<svg width="1920" height="654" viewBox="0 0 1920 654" fill="none" xmlns="http://www.w3.org/2000/svg">
<rect opacity="0.8" y="238" width="1920" height="104" fill="url(#paint0_linear_323_28)"/>
<path d="M0 56.0212C106.667 54.0208 213.333 52.0204 320 38.7957C426.667 25.5709 533.333 1.12176 640 0.0382131C746.667 -1.04533 853.333 21.2367 960 25.8765C1066.67 30.5163 1173.33 17.5184 1280 17.2638C1386.67 17.0091 1493.33 29.493 1600 43.1021C1706.67 56.7112 1813.33 71.4362 1920 86.1659V379C1813.33 379 1706.67 379 1600 379C1493.33 379 1386.67 379 1280 379C1173.33 379 1066.67 379 960 379C853.333 379 746.667 379 640 379C533.333 379 426.667 379 320 379C213.333 379 106.667 379 0 379V56.0212Z" fill="#051D0B" fill-opacity="0.35"/>
<path d="M0 25.8765C106.667 27.9927 213.333 30.1088 320 47.4084C426.667 64.7081 533.333 97.1912 640 112.004C746.667 126.817 853.333 123.965 960 116.311C1066.67 108.656 1173.33 96.1956 1280 73.2468C1386.67 50.2979 1493.33 16.8609 1600 21.5701C1706.67 26.2794 1813.33 69.1441 1920 112.004V379C1813.33 379 1706.67 379 1600 379C1493.33 379 1386.67 379 1280 379C1173.33 379 1066.67 379 960 379C853.333 379 746.667 379 640 379C533.333 379 426.667 379 320 379C213.333 379 106.667 379 0 379V25.8765Z" fill="#051D0B" fill-opacity="0.35"/>
<path d="M0 129.23C106.667 112.227 213.333 95.2233 320 81.8596C426.667 68.4959 533.333 58.7672 640 64.6341C746.667 70.501 853.333 91.9542 960 112.004C1066.67 132.054 1173.33 150.692 1280 146.455C1386.67 142.218 1493.33 115.098 1600 103.392C1706.67 91.6856 1813.33 95.3854 1920 99.0852V379C1813.33 379 1706.67 379 1600 379C1493.33 379 1386.67 379 1280 379C1173.33 379 1066.67 379 960 379C853.333 379 746.667 379 640 379C533.333 379 426.667 379 320 379C213.333 379 106.667 379 0 379V129.23Z" fill="#051D0B" fill-opacity="0.35"/>
<path d="M0 159.374C106.667 146.085 213.333 132.791 320 129.23C426.667 125.669 533.333 131.832 640 120.617C746.667 109.402 853.333 80.8083 960 90.4722C1066.67 100.136 1173.33 148.062 1280 155.068C1386.67 162.074 1493.33 128.155 1600 112.004C1706.67 95.8529 1813.33 97.4689 1920 99.085V379C1813.33 379 1706.67 379 1600 379C1493.33 379 1386.67 379 1280 379C1173.33 379 1066.67 379 960 379C853.333 379 746.667 379 640 379C533.333 379 426.667 379 320 379C213.333 379 106.667 379 0 379V159.374Z" fill="#051D0B" fill-opacity="0.35"/>
<path d="M0 146.455C106.667 172.724 213.333 198.998 320 193.826C426.667 188.653 533.333 152.04 640 146.455C746.667 140.871 853.333 166.311 960 163.681C1066.67 161.051 1173.33 130.341 1280 133.536C1386.67 136.731 1493.33 173.822 1600 176.6C1706.67 179.378 1813.33 147.845 1920 116.311V379C1813.33 379 1706.67 379 1600 379C1493.33 379 1386.67 379 1280 379C1173.33 379 1066.67 379 960 379C853.333 379 746.667 379 640 379C533.333 379 426.667 379 320 379C213.333 379 106.667 379 0 379V146.455Z" fill="#051D0B" fill-opacity="0.35"/>
<path d="M0 176.6C106.667 151.831 213.333 127.063 320 124.923C426.667 122.784 533.333 143.279 640 163.681C746.667 184.083 853.333 204.401 960 198.132C1066.67 191.862 1173.33 159.013 1280 159.374C1386.67 159.735 1493.33 193.316 1600 198.132C1706.67 202.948 1813.33 179.008 1920 155.068V379C1813.33 379 1706.67 379 1600 379C1493.33 379 1386.67 379 1280 379C1173.33 379 1066.67 379 960 379C853.333 379 746.667 379 640 379C533.333 379 426.667 379 320 379C213.333 379 106.667 379 0 379V176.6Z" fill="#051D0B" fill-opacity="0.35"/>
<path d="M0 185.213C106.667 175.961 213.333 166.709 320 172.294C426.667 177.878 533.333 198.294 640 193.825C746.667 189.357 853.333 159.995 960 163.681C1066.67 167.367 1173.33 204.091 1280 223.97C1386.67 243.849 1493.33 246.873 1600 241.196C1706.67 235.519 1813.33 221.132 1920 206.745V379C1813.33 379 1706.67 379 1600 379C1493.33 379 1386.67 379 1280 379C1173.33 379 1066.67 379 960 379C853.333 379 746.667 379 640 379C533.333 379 426.667 379 320 379C213.333 379 106.667 379 0 379V185.213Z" fill="#051D0B" fill-opacity="0.35"/>
<path d="M0 176.6C106.667 184.528 213.333 192.455 320 211.051C426.667 229.647 533.333 258.908 640 249.809C746.667 240.71 853.333 193.252 960 189.519C1066.67 185.787 1173.33 225.781 1280 245.502C1386.67 265.224 1493.33 264.673 1600 262.728C1706.67 260.783 1813.33 257.449 1920 254.115V379C1813.33 379 1706.67 379 1600 379C1493.33 379 1386.67 379 1280 379C1173.33 379 1066.67 379 960 379C853.333 379 746.667 379 640 379C533.333 379 426.667 379 320 379C213.333 379 106.667 379 0 379V176.6Z" fill="#051D0B" fill-opacity="0.35"/>
<path d="M0 301.485C106.667 307.047 213.333 312.603 320 301.485C426.667 290.367 533.333 262.566 640 258.421C746.667 254.277 853.333 273.781 960 275.647C1066.67 277.513 1173.33 261.741 1280 249.809C1386.67 237.876 1493.33 229.791 1600 236.889C1706.67 243.988 1813.33 266.279 1920 288.566V379C1813.33 379 1706.67 379 1600 379C1493.33 379 1386.67 379 1280 379C1173.33 379 1066.67 379 960 379C853.333 379 746.667 379 640 379C533.333 379 426.667 379 320 379C213.333 379 106.667 379 0 379V301.485Z" fill="#051D0B" fill-opacity="0.35"/>
<path d="M0 245.502C106.667 249.156 213.333 252.805 320 262.728C426.667 272.651 533.333 288.844 640 297.179C746.667 305.514 853.333 305.982 960 310.098C1066.67 314.215 1173.33 321.971 1280 327.324C1386.67 332.677 1493.33 335.622 1600 323.017C1706.67 310.413 1813.33 282.264 1920 254.115V379C1813.33 379 1706.67 379 1600 379C1493.33 379 1386.67 379 1280 379C1173.33 379 1066.67 379 960 379C853.333 379 746.667 379 640 379C533.333 379 426.667 379 320 379C213.333 379 106.667 379 0 379V245.502Z" fill="#051D0B" fill-opacity="0.35"/>
<rect y="304" width="1920" height="75" fill="#051D0B"/>
<rect y="315" width="1920" height="75" fill="#051D0B" fill-opacity="0.5"/>
<path d="M1920 597.979C1813.33 599.979 1706.67 601.98 1600 615.205C1493.33 628.429 1386.67 652.878 1280 653.962C1173.33 655.046 1066.67 632.764 960 628.124C853.333 623.484 746.667 636.482 640 636.736C533.333 636.991 426.667 624.507 320 610.898C213.333 597.289 106.667 582.564 -3.14713e-05 567.834V275C106.667 275 213.333 275 320 275C426.667 275 533.333 275 640 275C746.667 275 853.333 275 960 275C1066.67 275 1173.33 275 1280 275C1386.67 275 1493.33 275 1600 275C1706.67 275 1813.33 275 1920 275V597.979Z" fill="#051D0B" fill-opacity="0.35"/>
<path d="M1920 628.124C1813.33 626.008 1706.67 623.891 1600 606.592C1493.33 589.292 1386.67 556.809 1280 541.996C1173.33 527.183 1066.67 530.035 960 537.69C853.333 545.344 746.667 557.805 640 580.753C533.333 603.702 426.667 637.139 320 632.43C213.333 627.721 106.667 584.856 -3.14713e-05 541.996V275C106.667 275 213.333 275 320 275C426.667 275 533.333 275 640 275C746.667 275 853.333 275 960 275C1066.67 275 1173.33 275 1280 275C1386.67 275 1493.33 275 1600 275C1706.67 275 1813.33 275 1920 275V628.124Z" fill="#051D0B" fill-opacity="0.35"/>
<path d="M1920 524.77C1813.33 541.774 1706.67 558.777 1600 572.141C1493.33 585.504 1386.67 595.233 1280 589.366C1173.33 583.499 1066.67 562.046 960 541.996C853.333 521.946 746.667 503.308 640 507.545C533.333 511.782 426.667 538.903 320 550.609C213.333 562.315 106.667 558.615 -3.14713e-05 554.915V275C106.667 275 213.333 275 320 275C426.667 275 533.333 275 640 275C746.667 275 853.333 275 960 275C1066.67 275 1173.33 275 1280 275C1386.67 275 1493.33 275 1600 275C1706.67 275 1813.33 275 1920 275V524.77Z" fill="#051D0B" fill-opacity="0.35"/>
<path d="M1920 494.626C1813.33 507.916 1706.67 521.21 1600 524.771C1493.33 528.332 1386.67 522.168 1280 533.383C1173.33 544.599 1066.67 573.192 960 563.528C853.333 553.864 746.667 505.938 640 498.932C533.333 491.926 426.667 525.845 320 541.996C213.333 558.147 106.667 556.531 -3.14713e-05 554.915V275C106.667 275 213.333 275 320 275C426.667 275 533.333 275 640 275C746.667 275 853.333 275 960 275C1066.67 275 1173.33 275 1280 275C1386.67 275 1493.33 275 1600 275C1706.67 275 1813.33 275 1920 275V494.626Z" fill="#051D0B" fill-opacity="0.35"/>
<path d="M1920 507.545C1813.33 481.276 1706.67 455.002 1600 460.175C1493.33 465.347 1386.67 501.96 1280 507.545C1173.33 513.129 1066.67 487.689 960 490.319C853.333 492.949 746.667 523.659 640 520.464C533.333 517.269 426.667 480.178 320 477.4C213.333 474.622 106.667 506.156 -3.14713e-05 537.689V275C106.667 275 213.333 275 320 275C426.667 275 533.333 275 640 275C746.667 275 853.333 275 960 275C1066.67 275 1173.33 275 1280 275C1386.67 275 1493.33 275 1600 275C1706.67 275 1813.33 275 1920 275V507.545Z" fill="#051D0B" fill-opacity="0.35"/>
<path d="M1920 477.4C1813.33 502.169 1706.67 526.938 1600 529.077C1493.33 531.216 1386.67 510.722 1280 490.319C1173.33 469.917 1066.67 449.599 960 455.868C853.333 462.138 746.667 494.987 640 494.626C533.333 494.265 426.667 460.684 320 455.868C213.333 451.053 106.667 474.992 -3.14713e-05 498.932V275C106.667 275 213.333 275 320 275C426.667 275 533.333 275 640 275C746.667 275 853.333 275 960 275C1066.67 275 1173.33 275 1280 275C1386.67 275 1493.33 275 1600 275C1706.67 275 1813.33 275 1920 275V477.4Z" fill="#051D0B" fill-opacity="0.35"/>
<path d="M1920 468.788C1813.33 478.039 1706.67 487.291 1600 481.707C1493.33 476.122 1386.67 455.706 1280 460.175C1173.33 464.643 1066.67 494.005 960 490.319C853.333 486.634 746.667 449.909 640 430.03C533.333 410.151 426.667 407.128 320 412.805C213.333 418.482 106.667 432.869 -3.14713e-05 447.256V275C106.667 275 213.333 275 320 275C426.667 275 533.333 275 640 275C746.667 275 853.333 275 960 275C1066.67 275 1173.33 275 1280 275C1386.67 275 1493.33 275 1600 275C1706.67 275 1813.33 275 1920 275V468.788Z" fill="#051D0B" fill-opacity="0.35"/>
<path d="M1920 477.4C1813.33 469.473 1706.67 461.545 1600 442.949C1493.33 424.353 1386.67 395.093 1280 404.192C1173.33 413.291 1066.67 460.749 960 464.481C853.333 468.213 746.667 428.219 640 408.498C533.333 388.777 426.667 389.328 320 391.272C213.333 393.217 106.667 396.551 -3.14713e-05 399.885V275C106.667 275 213.333 275 320 275C426.667 275 533.333 275 640 275C746.667 275 853.333 275 960 275C1066.67 275 1173.33 275 1280 275C1386.67 275 1493.33 275 1600 275C1706.67 275 1813.33 275 1920 275V477.4Z" fill="#051D0B" fill-opacity="0.35"/>
<path d="M1920 352.515C1813.33 346.954 1706.67 341.397 1600 352.515C1493.33 363.633 1386.67 391.435 1280 395.579C1173.33 399.723 1066.67 380.219 960 378.353C853.333 376.487 746.667 392.259 640 404.192C533.333 416.124 426.667 424.209 320 417.111C213.333 410.012 106.667 387.721 -3.14713e-05 365.434V275C106.667 275 213.333 275 320 275C426.667 275 533.333 275 640 275C746.667 275 853.333 275 960 275C1066.67 275 1173.33 275 1280 275C1386.67 275 1493.33 275 1600 275C1706.67 275 1813.33 275 1920 275V352.515Z" fill="#051D0B" fill-opacity="0.35"/>
<path d="M1920 408.498C1813.33 404.844 1706.67 401.196 1600 391.272C1493.33 381.349 1386.67 365.156 1280 356.821C1173.33 348.486 1066.67 348.019 960 343.902C853.333 339.786 746.667 332.03 640 326.677C533.333 321.324 426.667 318.379 320 330.983C213.333 343.587 106.667 371.736 -3.14713e-05 399.885V275C106.667 275 213.333 275 320 275C426.667 275 533.333 275 640 275C746.667 275 853.333 275 960 275C1066.67 275 1173.33 275 1280 275C1386.67 275 1493.33 275 1600 275C1706.67 275 1813.33 275 1920 275V408.498Z" fill="#051D0B" fill-opacity="0.35"/>
<defs>
<linearGradient id="paint0_linear_323_28" x1="143.961" y1="238" x2="144.008" y2="290" gradientUnits="userSpaceOnUse">
<stop stop-color="#051D0B" stop-opacity="0"/>
<stop offset="1" stop-color="#051D0B"/>
</linearGradient>
</defs>
</svg>
