<svg width="1920" height="1131" viewBox="0 0 1920 1131" fill="none" xmlns="http://www.w3.org/2000/svg">
<rect width="1920" height="1131" fill="#024012"/>
<path fill-rule="evenodd" clip-rule="evenodd" d="M866.12 265.469L864.743 281.313L863.779 293.85L862.677 308.177L862.264 326.087L874.382 339.864L893.935 362.734L896 368.658L928.772 381.47L948.187 390.288L965.675 401.998L980.959 409.438L986.054 411.917L999.962 418.53L1023.51 433.96L1054.08 443.88L1084.09 454.488L1101.31 462.616L1126.09 470.194L1127.74 471.158L1148.68 483.144L1151.15 484.522L1164.37 492.099L1187.78 508.631L1221.52 530.261L1237.21 539.354L1248.09 546.104L1266.41 558.641L1282.52 571.316L1346.13 628.903H1369.4H1369.68L1370.09 629.041L1370.37 629.179L1370.78 629.454L1370.92 629.592L1369.13 670.096L1367.34 685.388L1367.06 686.353L1366.79 687.317L1366.65 688.006L1366.51 688.557V689.246V689.935V690.624L1366.37 691.175L1366.1 691.588L1365.55 692.277L1364.86 692.828L1364.58 693.104L1364.17 693.792L1363.9 694.206L1363.48 694.619L1362.93 694.757H1362.38L1361.83 694.481L1355.22 701.094L1353.71 703.712L1327.13 875.509L1323.96 921.249L1323.83 924.004L1323.69 927.173L1322.72 925.795L1321.49 924.555L1319.83 923.04L1318.59 921.386L1317.63 919.595L1316.25 917.942L1315.98 917.529L1314.33 915.738L1312.54 913.258L1309.92 909.538L1308.27 907.747L1306.48 906.094L1305.24 904.441L1303.72 903.201L1301.66 901.961L1299.87 901.41L1297.25 900.583L1295.46 900.032L1293.53 898.517L1292.29 897.277L1289.68 895.348L1287.75 893.557L1285.96 891.904L1283.07 890.113L1281 887.909L1275.77 883.224L1272.19 880.882L1270.12 878.816L1268.88 877.852L1266.96 876.061L1264.48 874.269L1262.28 872.203L1260.49 870.963L1257.87 869.448L1255.39 868.345L1252.36 866.83L1250.3 865.177L1248.51 863.937L1245.75 862.284L1243.27 860.768L1240.66 859.115L1237.77 856.911L1235.01 855.395L1231.98 854.293L1229.37 853.466L1226.2 852.227L1217.52 848.507L1215.73 846.991L1212.84 845.063L1210.91 843.272L1209.4 841.756L1207.61 839.69L1206.92 838.174L1206.23 836.934L1205.41 835.419L1203.48 833.49L1200.72 831.699L1197.56 828.806L1193.7 824.811L1189.85 820.815L1185.99 816.82L1181.17 811.86L1176.35 806.901L1171.53 801.528L1164.92 795.604L1162.17 793.675L1158.59 790.782L1156.66 789.128L1154.18 787.2L1152.53 785.96L1150.47 784.995L1148.68 784.444L1146.61 783.755L1144.41 781.964L1142.75 780.449L1141.24 778.934L1139.72 777.831L1138.21 776.867L1137.11 775.351L1135.46 774.525L1133.67 774.387L1131.46 774.525H1129.54L1127.88 773.836L1126.78 772.734L1125.68 771.77L1122.79 768.876L1121.69 768.05L1119.9 767.361L1118.79 767.085L1117.28 766.121L1116.45 765.157L1115.77 764.192L1114.25 762.952L1112.46 761.988L1106.26 760.335L1102.82 759.646L1100.21 759.508L1097.18 759.646L1095.39 759.784L1092.91 760.61L1089.47 760.748L1087.54 760.61L1084.78 759.508L1083.68 758.406L1082.44 757.304L1080.1 755.651L1077.21 754.411L1074.73 753.308L1072.67 751.517L1068.95 749.313L1067.43 747.66L1065.51 745.731L1063.03 744.629L1056.28 741.185L1051.87 738.567L1047.47 735.95L1040.72 731.679L1038.1 730.026L1036.18 729.199L1033.42 727.959L1030.81 725.893L1029.57 724.653L1027.91 723.413L1024.33 720.933L1022.54 719.417L1019.51 717.213L1017.72 715.698L1015.93 714.044L1013.87 712.529L1011.67 711.565L1009.19 710.6L1006.57 709.498L1003.54 708.396L1000.79 707.707L993.352 704.538L992.113 703.987L989.91 703.023L988.395 702.747L986.33 702.61L983.851 702.334L981.373 701.507L978.343 699.992L975.176 698.476L972.56 697.788L971.183 696.823L967.052 693.655L961.819 690.486L959.341 688.557L957.551 687.317L956.036 685.94L951.768 683.46L949.427 681.531L945.296 678.224L944.332 677.122L941.991 677.949L939.237 678.362L937.447 676.985L938.686 675.194L936.345 674.229L936.483 672.163L934.418 669.269L932.628 668.167L930.838 667.341L929.598 666.652L928.221 665.688L927.946 665.136L926.982 664.448L923.264 663.07L920.235 660.866L916.242 658.248L913.488 657.697L910.183 655.217L908.53 653.977L906.603 653.151L903.986 651.222L901.646 649.018L899.856 647.226L899.029 645.298L896.826 644.333L897.102 641.854L896.826 640.751V640.063V639.511L896.964 639.098L894.898 638.96H894.072L893.659 638.272L893.246 637.583L892.695 636.756L892.282 636.067L891.181 635.516L890.354 634.69L889.391 634.138L887.876 632.761L887.325 631.659L886.499 630.143L885.673 629.454L884.158 627.663L879.889 624.77L848.907 601.212L842.16 603.14L833.623 601.487L832.935 593.634L819.44 590.741L777.58 554.784L777.305 547.757L776.203 546.655L771.521 544.175L769.318 542.247L767.253 540.18L763.122 537.011L758.165 533.292L756.099 531.363L754.034 529.847L751.831 528.056L749.903 527.092L747.562 526.128L744.808 525.026L744.395 524.888L742.743 524.199L742.192 523.786L741.09 522.959L739.576 521.995L737.235 521.168L729.248 516.484L727.045 514.831L724.98 513.177L722.777 511.8L721.95 511.524L721.262 511.249L719.196 510.422L717.131 509.044L716.305 507.942L715.479 506.702L712.312 503.671L710.108 502.156L709.007 501.192L708.043 499.952L707.079 499.263L706.804 499.125L704.187 497.61L702.948 496.507L701.984 495.405L701.296 494.165L701.02 493.614L700.607 492.65L700.332 491.548L698.542 489.343L697.302 488.241L693.447 485.073L689.867 481.491L685.736 477.082L684.91 476.118L682.431 473.362L679.126 469.643L675.822 465.923L671.553 460.55L667.284 455.177L664.117 451.044L663.016 448.702L662.19 446.635L661.639 444.155L661.226 441.813L660.813 440.436L659.298 438.093L656.131 434.374L652.413 430.103L648.695 425.832L644.427 420.872L640.158 415.913L636.303 411.917L632.447 407.922L629.968 405.442L628.729 404.202L628.454 403.927L624.598 399.931L620.467 396.212L616.336 392.492L614.684 390.563L611.517 386.843L607.937 383.124L604.357 379.404L600.777 375.684L593.479 369.485L590.725 367.143L589.761 366.316L586.043 363.147L582.187 361.632L581.637 361.081L581.086 360.53L580.673 359.979L580.26 359.427L579.847 358.876L579.433 358.325L579.02 357.774L578.607 357.223L578.194 356.672L577.781 356.121L577.368 355.57L576.955 355.019L576.679 354.606L576.542 354.468L576.129 353.917L575.716 353.366L575.302 352.815L574.889 352.263L574.201 351.85L573.512 351.437L572.824 351.024L572.135 350.61L571.447 350.197L570.758 349.784L570.345 349.508L570.07 349.37L569.381 348.957L568.693 348.544L568.142 348.13L567.591 347.717L567.041 347.304L566.49 346.891L565.939 346.477L565.388 346.064L564.837 345.651L564.287 345.237L563.736 344.824L563.185 344.411L562.634 343.997L562.084 343.584L561.533 343.171L560.982 342.757L560.431 342.344L559.88 341.931L559.33 341.518L558.779 341.104L558.503 340.966L558.09 340.691L557.539 340.278L556.989 339.864L556.438 339.451L555.887 339.038L555.336 338.624L554.786 338.211L554.235 337.798L553.684 337.384L553.133 336.971L552.582 336.558L552.032 336.145L551.481 335.731L550.93 335.318L550.379 334.905L549.828 334.491L549.278 334.078L548.727 333.665L548.176 333.251L547.625 332.838L547.074 332.425L546.524 332.011L545.973 331.598L545.422 331.185L544.871 330.772L544.321 330.358L543.77 329.945L542.53 328.567L541.98 328.154L541.429 327.741L540.878 327.327L540.327 326.914L539.777 326.501L539.226 326.087L538.675 325.674L538.124 325.261L537.573 324.847L537.023 324.434L536.472 324.021L535.921 323.608L535.37 323.194L534.819 322.781L534.269 322.368L533.718 321.954L533.167 321.541L532.616 321.128L532.065 320.714L531.515 320.301L530.964 319.888L530.413 319.475L529.862 319.061L529.311 318.648L528.761 318.235L528.21 317.821L527.659 317.408L527.108 316.995L526.558 316.581L526.007 316.168L525.456 315.755L524.905 315.341L524.354 314.928L523.804 314.515L523.253 314.102L522.702 313.688L522.151 313.275L521.6 312.862L521.05 312.448L520.499 312.035L519.948 311.622L519.397 311.208L518.984 310.933L517.745 309.28L517.194 308.866L516.643 308.453L516.093 308.04L515.542 307.626L514.991 307.213L514.44 306.8L513.889 306.386L513.339 305.973L512.788 305.56L512.237 305.147L511.686 304.733L511.135 304.32L510.585 303.907L510.034 303.493L509.483 303.08L508.932 302.667L508.381 302.253L507.831 301.84L507.28 301.427L506.729 301.013L506.178 300.6L505.628 300.187L505.077 299.774L504.526 299.36L504.388 299.222L503.975 298.947L503.424 298.396L502.874 297.845L502.323 297.294L501.772 296.743L501.221 296.192L500.67 295.64L500.12 295.089L499.569 294.538L499.018 293.987L498.467 293.436L497.916 293.023L497.228 292.747L496.539 292.472L495.851 292.196L495.163 291.921L494.474 291.645L493.786 291.37L493.097 291.094L492.409 290.819L491.72 290.543L491.032 290.268L490.343 290.13L489.655 289.992L488.966 289.854L488.278 289.716L487.589 289.579H487.314L486.901 289.441L486.212 289.303L485.524 289.165L484.835 289.028L484.147 288.89L481.944 289.303L481.255 289.165L481.117 288.477L480.98 287.788L480.842 287.099L480.704 286.41L480.567 285.721V285.446V284.895L480.429 284.206L480.567 283.379L480.429 282.69L480.291 282.001L480.153 281.313L480.016 280.624L479.878 279.935L479.74 278.97L478.363 275.113L477.813 274.7L477.262 274.286L476.711 273.873L476.16 273.46L475.609 273.046L475.059 272.358L474.508 271.944L473.957 271.531L473.406 271.118L472.718 270.704L472.029 270.429L471.341 270.153L470.652 269.878H470.515L469.964 269.74L469.275 269.327L468.862 269.051L468.587 268.913L467.898 268.5L467.21 268.087L466.797 267.949L466.108 267.536L465.42 267.122L464.731 266.709L464.043 266.296L463.354 265.882L462.666 265.469L462.391 265.194L461.702 264.78L461.151 264.367L460.6 263.954L460.05 263.54L459.499 263.127L459.086 262.852L458.397 262.3H459.223H459.499H468.725H468.862L579.433 262.163H587.007H601.052L809.801 262.025H866.395L866.257 262.852L866.12 265.469Z" fill="url(#paint0_radial_475_108)"/>
<path d="M1025.16 666.101L1025.57 665.55M1023.78 666.239L1024.2 666.101L1025.16 665.963M866.12 265.469L864.743 281.313L863.779 293.85L862.677 308.177L862.264 326.087L874.382 339.864L893.935 362.734L896 368.658L928.772 381.47L948.187 390.288L965.675 401.998L980.959 409.438L986.054 411.917L999.962 418.53L1023.51 433.96L1054.08 443.88L1084.09 454.488L1101.31 462.616L1126.09 470.194L1127.74 471.158L1148.68 483.144L1151.15 484.522L1164.37 492.099L1187.78 508.631L1221.52 530.261L1237.21 539.354L1248.09 546.104L1266.41 558.641L1282.52 571.316L1346.13 628.903H1369.4H1369.68L1370.09 629.041L1370.37 629.179L1370.78 629.454L1370.92 629.592L1369.13 670.096L1367.34 685.388L1367.06 686.353L1366.79 687.317L1366.65 688.006L1366.51 688.557V689.246V689.935V690.624L1366.37 691.175L1366.1 691.588L1365.55 692.277L1364.86 692.828L1364.58 693.104L1364.17 693.792L1363.9 694.206L1363.48 694.619L1362.93 694.757H1362.38L1361.83 694.481L1355.22 701.094L1353.71 703.712L1327.13 875.509L1323.96 921.249L1323.83 924.004L1323.69 927.173L1322.72 925.795L1321.49 924.555L1319.83 923.04L1318.59 921.386L1317.63 919.595L1316.25 917.942L1315.98 917.529L1314.33 915.738L1312.54 913.258L1309.92 909.538L1308.27 907.747L1306.48 906.094L1305.24 904.441L1303.72 903.201L1301.66 901.961L1299.87 901.41L1297.25 900.583L1295.46 900.032L1293.53 898.517L1292.29 897.277L1289.68 895.348L1287.75 893.557L1285.96 891.904L1283.07 890.113L1281 887.909L1275.77 883.224L1272.19 880.882L1270.12 878.816L1268.88 877.852L1266.96 876.061L1264.48 874.269L1262.28 872.203L1260.49 870.963L1257.87 869.448L1255.39 868.345L1252.36 866.83L1250.3 865.177L1248.51 863.937L1245.75 862.284L1243.27 860.768L1240.66 859.115L1237.77 856.911L1235.01 855.395L1231.98 854.293L1229.37 853.466L1226.2 852.227L1217.52 848.507L1215.73 846.991L1212.84 845.063L1210.91 843.272L1209.4 841.756L1207.61 839.69L1206.92 838.174L1206.23 836.934L1205.41 835.419L1203.48 833.49L1200.72 831.699L1197.56 828.806L1193.7 824.811L1189.85 820.815L1185.99 816.82L1181.17 811.86L1176.35 806.901L1171.53 801.528L1164.92 795.604L1162.17 793.675L1158.59 790.782L1156.66 789.128L1154.18 787.2L1152.53 785.96L1150.47 784.995L1148.68 784.444L1146.61 783.755L1144.41 781.964L1142.75 780.449L1141.24 778.934L1139.72 777.831L1138.21 776.867L1137.11 775.351L1135.46 774.525L1133.67 774.387L1131.46 774.525H1129.54L1127.88 773.836L1126.78 772.734L1125.68 771.77L1122.79 768.876L1121.69 768.05L1119.9 767.361L1118.79 767.085L1117.28 766.121L1116.45 765.157L1115.77 764.192L1114.25 762.952L1112.46 761.988L1106.26 760.335L1102.82 759.646L1100.21 759.508L1097.18 759.646L1095.39 759.784L1092.91 760.61L1089.47 760.748L1087.54 760.61L1084.78 759.508L1083.68 758.406L1082.44 757.304L1080.1 755.651L1077.21 754.411L1074.73 753.308L1072.67 751.517L1068.95 749.313L1067.43 747.66L1065.51 745.731L1063.03 744.629L1056.28 741.185L1051.87 738.567L1047.47 735.95L1040.72 731.679L1038.1 730.026L1036.18 729.199L1033.42 727.959L1030.81 725.893L1029.57 724.653L1027.91 723.413L1024.33 720.933L1022.54 719.417L1019.51 717.213L1017.72 715.698L1015.93 714.044L1013.87 712.529L1011.67 711.565L1009.19 710.6L1006.57 709.498L1003.54 708.396L1000.79 707.707L993.352 704.538L992.113 703.987L989.91 703.023L988.395 702.747L986.33 702.61L983.851 702.334L981.373 701.507L978.343 699.992L975.176 698.476L972.56 697.788L971.183 696.823L967.052 693.655L961.819 690.486L959.341 688.557L957.551 687.317L956.036 685.94L951.768 683.46L949.427 681.531L945.296 678.224L944.332 677.122L941.991 677.949L939.237 678.362L937.447 676.985L938.686 675.194L936.345 674.229L936.483 672.163L934.418 669.269L932.628 668.167L930.838 667.341L929.598 666.652L928.221 665.688L927.946 665.136L926.982 664.448L923.264 663.07L920.235 660.866L916.242 658.248L913.488 657.697L910.183 655.217L908.53 653.977L906.603 653.151L903.986 651.222L901.646 649.018L899.856 647.226L899.029 645.298L896.826 644.333L897.102 641.854L896.826 640.751V640.063V639.511L896.964 639.098L894.898 638.96H894.072L893.659 638.272L893.246 637.583L892.695 636.756L892.282 636.067L891.181 635.516L890.354 634.69L889.391 634.138L887.876 632.761L887.325 631.659L886.499 630.143L885.673 629.454L884.158 627.663L879.889 624.77L848.907 601.212L842.16 603.14L833.623 601.487L832.935 593.634L819.44 590.741L777.58 554.784L777.305 547.757L776.203 546.655L771.521 544.175L769.318 542.247L767.253 540.18L763.122 537.011L758.165 533.292L756.099 531.363L754.034 529.847L751.831 528.056L749.903 527.092L747.562 526.128L744.808 525.026L744.395 524.888L742.743 524.199L742.192 523.786L741.09 522.959L739.576 521.995L737.235 521.168L729.248 516.484L727.045 514.831L724.98 513.177L722.777 511.8L721.95 511.524L721.262 511.249L719.196 510.422L717.131 509.044L716.305 507.942L715.479 506.702L712.312 503.671L710.108 502.156L709.007 501.192L708.043 499.952L707.079 499.263L706.804 499.125L704.187 497.61L702.948 496.507L701.984 495.405L701.296 494.165L701.02 493.614L700.607 492.65L700.332 491.548L698.542 489.343L697.302 488.241L693.447 485.073L689.867 481.491L685.736 477.082L684.91 476.118L682.431 473.362L679.126 469.643L675.822 465.923L671.553 460.55L667.284 455.177L664.117 451.044L663.016 448.702L662.19 446.635L661.639 444.155L661.226 441.813L660.813 440.436L659.298 438.093L656.131 434.374L652.413 430.103L648.695 425.832L644.427 420.872L640.158 415.913L636.303 411.917L632.447 407.922L629.968 405.442L628.729 404.202L628.454 403.927L624.598 399.931L620.467 396.212L616.336 392.492L614.684 390.563L611.517 386.843L607.937 383.124L604.357 379.404L600.777 375.684L593.479 369.485L590.725 367.143L589.761 366.316L586.043 363.147L582.187 361.632L581.637 361.081L581.086 360.53L580.673 359.979L580.26 359.427L579.847 358.876L579.433 358.325L579.02 357.774L578.607 357.223L578.194 356.672L577.781 356.121L577.368 355.57L576.955 355.019L576.679 354.606L576.542 354.468L576.129 353.917L575.716 353.366L575.302 352.815L574.889 352.263L574.201 351.85L573.512 351.437L572.824 351.024L572.135 350.61L571.447 350.197L570.758 349.784L570.345 349.508L570.07 349.37L569.381 348.957L568.693 348.544L568.142 348.13L567.591 347.717L567.041 347.304L566.49 346.891L565.939 346.477L565.388 346.064L564.837 345.651L564.287 345.237L563.736 344.824L563.185 344.411L562.634 343.997L562.084 343.584L561.533 343.171L560.982 342.757L560.431 342.344L559.88 341.931L559.33 341.518L558.779 341.104L558.503 340.966L558.09 340.691L557.539 340.278L556.989 339.864L556.438 339.451L555.887 339.038L555.336 338.624L554.786 338.211L554.235 337.798L553.684 337.384L553.133 336.971L552.582 336.558L552.032 336.145L551.481 335.731L550.93 335.318L550.379 334.905L549.828 334.491L549.278 334.078L548.727 333.665L548.176 333.251L547.625 332.838L547.074 332.425L546.524 332.011L545.973 331.598L545.422 331.185L544.871 330.772L544.321 330.358L543.77 329.945L542.53 328.567L541.98 328.154L541.429 327.741L540.878 327.327L540.327 326.914L539.777 326.501L539.226 326.087L538.675 325.674L538.124 325.261L537.573 324.847L537.023 324.434L536.472 324.021L535.921 323.608L535.37 323.194L534.819 322.781L534.269 322.368L533.718 321.954L533.167 321.541L532.616 321.128L532.065 320.714L531.515 320.301L530.964 319.888L530.413 319.475L529.862 319.061L529.311 318.648L528.761 318.235L528.21 317.821L527.659 317.408L527.108 316.995L526.558 316.581L526.007 316.168L525.456 315.755L524.905 315.341L524.354 314.928L523.804 314.515L523.253 314.102L522.702 313.688L522.151 313.275L521.6 312.862L521.05 312.448L520.499 312.035L519.948 311.622L519.397 311.208L518.984 310.933L517.745 309.28L517.194 308.866L516.643 308.453L516.093 308.04L515.542 307.626L514.991 307.213L514.44 306.8L513.889 306.386L513.339 305.973L512.788 305.56L512.237 305.147L511.686 304.733L511.135 304.32L510.585 303.907L510.034 303.493L509.483 303.08L508.932 302.667L508.381 302.253L507.831 301.84L507.28 301.427L506.729 301.013L506.178 300.6L505.628 300.187L505.077 299.774L504.526 299.36L504.388 299.222L503.975 298.947L503.424 298.396L502.874 297.845L502.323 297.294L501.772 296.743L501.221 296.192L500.67 295.64L500.12 295.089L499.569 294.538L499.018 293.987L498.467 293.436L497.916 293.023L497.228 292.747L496.539 292.472L495.851 292.196L495.163 291.921L494.474 291.645L493.786 291.37L493.097 291.094L492.409 290.819L491.72 290.543L491.032 290.268L490.343 290.13L489.655 289.992L488.966 289.854L488.278 289.716L487.589 289.579H487.314L486.901 289.441L486.212 289.303L485.524 289.165L484.835 289.028L484.147 288.89L481.944 289.303L481.255 289.165L481.117 288.477L480.98 287.788L480.842 287.099L480.704 286.41L480.567 285.721V285.446V284.895L480.429 284.206L480.567 283.379L480.429 282.69L480.291 282.001L480.153 281.313L480.016 280.624L479.878 279.935L479.74 278.97L478.363 275.113L477.813 274.7L477.262 274.286L476.711 273.873L476.16 273.46L475.609 273.046L475.059 272.358L474.508 271.944L473.957 271.531L473.406 271.118L472.718 270.704L472.029 270.429L471.341 270.153L470.652 269.878H470.515L469.964 269.74L469.275 269.327L468.862 269.051L468.587 268.913L467.898 268.5L467.21 268.087L466.797 267.949L466.108 267.536L465.42 267.122L464.731 266.709L464.043 266.296L463.354 265.882L462.666 265.469L462.391 265.194L461.702 264.78L461.151 264.367L460.6 263.954L460.05 263.54L459.499 263.127L459.086 262.852L458.397 262.3H459.223H459.499H468.725H468.862L579.433 262.163H587.007H601.052L809.801 262.025H866.395L866.257 262.852L866.12 265.469Z" stroke="#265980" stroke-width="0.7368" stroke-miterlimit="10" stroke-linecap="square" stroke-linejoin="bevel"/>
<path fill-rule="evenodd" clip-rule="evenodd" d="M866.395 261.887L866.257 262.714L865.982 265.331L864.605 281.175L863.641 293.712L862.539 308.04L862.126 325.95L874.244 339.727L893.797 362.596L895.862 368.52L887.325 372.24L879.063 376.373L874.106 379.266L861.989 382.986L847.668 387.808L835.551 391.665L816.962 391.252L803.467 389.323L802.503 389.186L776.616 392.768L773.587 392.905L771.384 393.043L769.181 393.456L768.354 393.87L765.05 394.145L763.26 394.834L759.266 395.936L754.86 398.416L751.142 398.278L750.316 398.554L745.084 401.309L738.612 404.34L731.865 406.82L725.806 409.3L724.98 409.438L716.167 413.157V414.122L716.305 414.397L716.442 414.673V415.362L716.305 416.464L716.167 417.428L715.754 418.806L714.377 423.352L714.102 424.041L713.688 425.281L713.275 426.245L713 427.072L712.449 428.45L712.036 429.552L711.898 429.965L711.21 431.343L710.521 432.721L710.246 433.272L709.971 434.374L709.558 436.165L709.42 436.716L709.282 437.267L709.007 437.956L708.594 438.92L708.181 439.747L707.767 440.436L706.391 442.364L706.115 442.64L705.289 443.742L704.187 444.982L703.637 445.533L703.223 445.946L702.81 446.222L702.535 446.497L702.26 446.773L701.847 447.048L701.571 447.186L701.158 447.324L700.332 447.6L698.129 448.564L695.925 449.528L694.411 450.217L692.896 450.906L689.591 452.284L688.352 452.835L686.7 453.524L685.874 453.937L685.46 454.212L684.634 454.901L683.395 455.59L678.3 462.479L675.959 465.647L671.691 460.274L667.422 454.901L664.255 450.768L663.154 448.426L662.327 446.36L661.777 443.88L661.363 441.538L660.95 440.16L659.436 437.818L656.269 434.098L652.551 429.827L648.833 425.557L644.564 420.597L640.296 415.637L636.44 411.642L632.585 407.647L630.106 405.167L628.867 403.927L628.591 403.651L624.736 399.656L620.605 395.936L616.474 392.217L614.822 390.288L611.655 386.568L608.074 382.848L604.494 379.128L600.914 375.409L593.616 369.209L590.862 366.867L589.898 366.04L586.181 362.872L582.325 361.356L581.774 360.805L581.223 360.254L580.81 359.703L580.397 359.152L579.984 358.601L579.571 358.05L579.158 357.499L578.745 356.948L578.332 356.397L577.919 355.846L577.506 355.294L577.093 354.743L576.817 354.33L576.679 354.192L576.266 353.641L575.853 353.09L575.44 352.539L575.027 351.988L574.339 351.575L573.65 351.161L572.962 350.748L572.273 350.335L571.585 349.921L570.896 349.508L570.483 349.233L570.208 349.095L569.519 348.682L568.831 348.268L568.28 347.855L567.729 347.442L567.178 347.028L566.628 346.615L566.077 346.202L565.526 345.788L564.975 345.375L564.424 344.962L563.874 344.549L563.323 344.135L562.772 343.722L562.221 343.309L561.67 342.895L561.12 342.482L560.569 342.069L560.018 341.655L559.467 341.242L558.916 340.829L558.641 340.691L558.228 340.415L557.677 340.002L557.126 339.589L556.576 339.176L556.025 338.762L555.474 338.349L554.923 337.936L554.372 337.522L553.822 337.109L553.271 336.696L552.72 336.282L552.169 335.869L551.619 335.456L551.068 335.042L550.517 334.629L549.966 334.216L549.415 333.803L548.865 333.389L548.314 332.976L547.763 332.563L547.212 332.149L546.661 331.736L546.111 331.323L545.56 330.909L545.009 330.496L544.458 330.083L543.907 329.669L542.53 328.567L541.98 328.154L541.429 327.741L540.878 327.327L540.327 326.914L539.777 326.501L539.226 326.087L538.675 325.674L538.124 325.261L537.573 324.848L537.023 324.434L536.472 324.021L535.921 323.608L535.37 323.194L534.819 322.781L534.269 322.368L533.718 321.954L533.167 321.541L532.616 321.128L532.065 320.714L531.515 320.301L530.964 319.888L530.413 319.475L529.862 319.061L529.311 318.648L528.761 318.235L528.21 317.821L527.659 317.408L527.108 316.995L526.558 316.581L526.007 316.168L525.456 315.755L524.905 315.342L524.354 314.928L523.804 314.515L523.253 314.102L522.702 313.688L522.151 313.275L521.6 312.862L521.05 312.448L520.499 312.035L519.948 311.622L519.397 311.208L518.984 310.933L517.745 309.28L517.194 308.866L516.643 308.453L516.093 308.04L515.542 307.626L514.991 307.213L514.44 306.8L513.889 306.387L513.339 305.973L512.788 305.56L512.237 305.147L511.686 304.733L511.135 304.32L510.585 303.907L510.034 303.493L509.483 303.08L508.932 302.667L508.381 302.253L507.831 301.84L507.28 301.427L506.729 301.014L506.178 300.6L505.628 300.187L505.077 299.774L504.526 299.36L504.388 299.223L503.975 298.947L503.424 298.396L502.874 297.845L502.323 297.294L501.772 296.743L501.221 296.192L500.67 295.641L500.12 295.089L499.569 294.538L499.018 293.987L498.467 293.436L497.916 293.023L497.228 292.747L496.539 292.472L495.851 292.196L495.163 291.921L494.474 291.645L493.786 291.37L493.097 291.094L492.409 290.819L491.72 290.543L491.032 290.268L490.343 290.13L489.655 289.992L488.966 289.854L488.278 289.717L487.589 289.579H487.314L486.901 289.441L486.212 289.303L485.524 289.165L484.835 289.028L484.147 288.89L481.944 289.303L481.255 289.165L481.117 288.477L480.98 287.788L480.842 287.099L480.704 286.41L480.567 285.721V285.446V284.895L480.429 284.206L480.567 283.379L480.429 282.69L480.291 282.001L480.153 281.313L480.016 280.624L479.878 279.935L479.74 278.971L478.363 275.113L477.813 274.7L477.262 274.286L476.711 273.873L476.16 273.46L475.609 273.046L475.059 272.358L474.508 271.944L473.957 271.531L473.406 271.118L472.718 270.704L472.029 270.429L471.341 270.153L470.652 269.878H470.515L469.964 269.74L469.275 269.327L468.862 269.051L468.587 268.913L467.898 268.5L467.21 268.087L466.797 267.949L466.108 267.536L465.42 267.122L464.731 266.709L464.043 266.296L463.354 265.883L462.666 265.469L462.391 265.194L461.702 264.78L461.151 264.367L460.6 263.954L460.05 263.54L459.499 263.127L459.086 262.852L458.397 262.301H459.223H459.499H468.725H468.862L579.433 262.163H587.007H601.052L809.801 262.025L866.395 261.887Z" stroke="white" stroke-width="0.7368" stroke-miterlimit="10" stroke-linecap="square" stroke-linejoin="bevel"/>
<path fill-rule="evenodd" clip-rule="evenodd" d="M884.433 628.077L879.889 624.77L848.907 601.212L842.16 603.14L833.623 601.487L832.934 593.634L819.44 590.741L777.58 554.784L777.305 547.757L776.203 546.655L771.521 544.175L769.318 542.247L767.253 540.18L763.122 537.011L758.165 533.292L756.099 531.363L754.034 529.847L751.831 528.056L749.903 527.092L747.562 526.128L744.808 525.026L744.395 524.888L742.743 524.199L742.192 523.786L741.09 522.959L739.576 521.995L737.235 521.168L729.248 516.484L727.045 514.831L724.98 513.177L722.776 511.8L721.95 511.524L721.262 511.249L719.196 510.422L717.131 509.044L716.305 507.942L715.479 506.702L712.311 503.671L710.108 502.156L709.007 501.191L708.043 499.952L707.079 499.263L706.804 499.125L704.187 497.609L702.948 496.507L701.984 495.405L701.296 494.165L701.02 493.614L700.607 492.65L700.332 491.548L698.542 489.343L697.302 488.241L693.447 485.073L689.867 481.491L685.736 477.082L684.91 476.118L682.431 473.362L679.126 469.642L675.822 465.923L678.163 462.754L683.257 455.866L684.497 455.177L685.323 454.488L685.736 454.212L686.562 453.799L688.214 453.11L689.454 452.559L692.758 451.181L694.273 450.493L695.788 449.804L697.991 448.839L700.194 447.875L701.02 447.599L701.433 447.462L701.709 447.324L702.122 447.048L702.397 446.773L702.673 446.497L703.086 446.222L703.499 445.808L704.05 445.257L705.151 444.017L705.977 442.915L706.253 442.64L707.63 440.711L708.043 440.022L708.456 439.196L708.869 438.231L709.144 437.542L709.282 436.991L709.42 436.44L709.833 434.649L710.108 433.547L710.384 432.996L711.072 431.618L711.761 430.241L711.898 429.827L712.311 428.725L712.862 427.347L713.138 426.521L713.551 425.556L713.964 424.316L714.239 423.628L715.616 419.081L716.029 417.704L716.167 416.739L716.305 415.637V414.948L716.167 414.673L716.029 414.397V413.433L724.842 409.713L725.668 409.575L731.727 407.095L738.474 404.616L744.946 401.585L750.178 398.829L751.004 398.554L754.722 398.691L759.129 396.212L763.122 395.11L764.912 394.421L768.217 394.145L769.043 393.732L771.246 393.319L773.449 393.181L776.479 393.043L802.366 389.461L803.33 389.599L816.824 391.528L835.413 391.941L847.53 388.083L861.851 383.261L873.968 379.542L878.925 376.648L887.187 372.515L895.725 368.796L928.497 381.608L930.7 388.634L932.903 395.661L940.476 419.081L949.977 441.262L954.246 452.146L954.659 458.345L954.246 464.545L951.905 470.194L951.492 475.842L951.079 479.148L948.738 482.042L945.846 483.419L942.542 484.797L941.44 486.312L939.788 488.655L938.824 492.925L938.411 497.609L936.483 504.222L936.07 508.907L934.693 512.626L934.418 515.519L933.178 522.27L932.49 523.51L931.251 524.612L930.011 525.026L927.67 524.888L925.467 524.75L923.126 524.888L921.336 525.439L920.097 526.541L919.409 527.919L919.271 529.71L919.133 531.087L918.72 532.603L917.756 533.567L915.966 534.807L915.14 536.047L913.901 537.149L912.524 537.7L911.284 538.527L910.871 539.767V541.971L910.596 545.966V548.171V549.135L911.147 550.651L911.697 552.579V553.957L911.422 555.059L910.734 556.575V557.952L911.422 559.33L912.524 560.983L913.763 562.912L914.589 565.392V567.596L913.901 569.663L913.35 572.005V573.382L912.524 574.347L911.422 577.24L910.596 578.618L908.806 580.684L904.537 586.47L903.986 587.71L903.711 590.052L903.298 596.528L903.436 599.834V601.763L903.573 602.452L904.262 603.692L905.501 605.345L905.914 606.034L906.327 606.998L906.465 607.687V608.238V608.789L905.914 609.891L905.639 610.58V611.131L905.501 611.958L905.226 612.646L904.675 613.335L903.849 614.162L903.298 614.713L901.646 615.677L899.993 616.642L898.479 617.193L896.413 617.882L894.485 618.295L893.659 618.708L892.695 619.259L892.42 619.535L884.433 628.077Z" stroke="white" stroke-width="0.7368" stroke-miterlimit="10" stroke-linecap="square" stroke-linejoin="bevel"/>
<path fill-rule="evenodd" clip-rule="evenodd" d="M1006.3 656.457L1007.12 656.733L1007.67 657.559L1013.32 658.524L1014.7 654.666L1016.07 654.528L1018.14 650.257L1019.24 648.742L1023.65 651.222L1020.62 657.284L1024.47 662.381L1026.67 662.106L1026.4 663.345L1025.3 664.31V665.274L1024.88 665.825L1023.92 665.963L1023.51 666.101L1023.37 666.514L1027.78 666.376L1029.98 666.101L1032.32 665.963L1081.07 676.02L1089.74 651.497L1103.65 614.713L1122.65 562.085L1140.41 514.417L1151.02 485.21L1151.43 483.97L1164.65 491.548L1188.06 508.08L1221.79 529.71L1237.49 538.802L1248.37 545.553L1266.68 558.09L1282.79 570.765L1346.41 628.352H1369.68H1369.95L1370.37 628.49L1370.64 628.628L1371.06 628.903L1371.19 629.041L1369.4 669.545L1367.34 685.388L1367.06 686.353L1366.79 687.317L1366.65 688.006L1366.51 688.557V689.246V689.935V690.624L1366.37 691.175L1366.1 691.588L1365.55 692.277L1364.86 692.828L1364.58 693.104L1364.17 693.792L1363.9 694.206L1363.48 694.619L1362.93 694.757H1362.38L1361.83 694.481L1355.22 701.094L1353.71 703.712L1327.13 875.509L1323.96 921.249L1323.83 924.004L1323.69 927.173L1322.72 925.795L1321.49 924.555L1319.83 923.04L1318.59 921.386L1317.63 919.595L1316.25 917.942L1315.98 917.529L1314.33 915.738L1312.53 913.258L1309.92 909.538L1308.27 907.747L1306.48 906.094L1305.24 904.441L1303.72 903.201L1301.66 901.961L1299.87 901.41L1297.25 900.583L1295.46 900.032L1293.53 898.517L1292.29 897.277L1289.68 895.348L1287.75 893.557L1285.96 891.904L1283.07 890.113L1281 887.909L1275.77 883.224L1272.19 880.882L1270.12 878.816L1268.88 877.852L1266.96 876.061L1264.48 874.27L1262.28 872.203L1260.49 870.963L1257.87 869.448L1255.39 868.345L1252.36 866.83L1250.3 865.177L1248.51 863.937L1245.75 862.284L1243.27 860.768L1240.66 859.115L1237.77 856.911L1235.01 855.395L1231.98 854.293L1229.37 853.466L1226.2 852.226L1217.52 848.507L1215.73 846.991L1212.84 845.062L1210.91 843.272L1209.4 841.756L1207.61 839.69L1206.92 838.174L1206.23 836.934L1205.41 835.419L1203.48 833.49L1200.72 831.699L1197.56 828.806L1193.7 824.811L1189.85 820.815L1185.99 816.82L1181.17 811.86L1176.35 806.901L1171.53 801.528L1164.92 795.604L1162.17 793.675L1158.59 790.782L1156.66 789.128L1154.18 787.2L1152.53 785.96L1150.46 784.995L1148.67 784.444L1146.61 783.755L1144.41 781.964L1142.75 780.449L1141.24 778.933L1139.72 777.831L1138.21 776.867L1137.11 775.351L1135.46 774.525L1133.67 774.387L1131.46 774.525H1129.53L1127.88 773.836L1126.78 772.734L1125.68 771.77L1122.79 768.876L1121.69 768.05L1119.9 767.361L1118.79 767.085L1117.28 766.121L1116.45 765.157L1115.77 764.192L1114.25 762.952L1112.46 761.988L1106.26 760.335L1102.82 759.646L1100.21 759.508L1097.18 759.646L1095.39 759.784L1092.91 760.61L1089.46 760.748L1087.54 760.61L1084.78 759.508L1083.68 758.406L1082.44 757.304L1080.1 755.651L1077.21 754.411L1074.73 753.308L1072.67 751.517L1068.95 749.313L1067.43 747.66L1065.51 745.731L1063.03 744.629L1056.28 741.185L1051.87 738.567L1047.47 735.95L1040.72 731.679L1038.1 730.026L1036.18 729.199L1033.42 727.959L1030.81 725.892L1029.57 724.653L1027.91 723.413L1024.33 720.933L1022.54 719.417L1019.51 717.213L1017.72 715.698L1015.93 714.044L1013.87 712.529L1011.67 711.565L1009.19 710.6L1006.57 709.498L1003.54 708.396L1000.79 707.707L993.352 704.538L992.113 703.987L989.91 703.023L988.395 702.747L986.33 702.61L983.851 702.334L981.372 701.507L978.343 699.992L975.176 698.477L972.56 697.788L971.183 696.823L978.481 670.647L979.169 668.167L989.221 648.053L1006.3 656.457Z" stroke="white" stroke-width="0.7368" stroke-miterlimit="10" stroke-linecap="square" stroke-linejoin="bevel"/>
<path fill-rule="evenodd" clip-rule="evenodd" d="M892.42 619.397L892.695 619.122L893.659 618.571L894.485 618.157L896.413 617.744L898.479 617.193L899.993 616.642L901.646 615.677L903.298 614.713L903.849 614.162L904.675 613.335L905.226 612.646L905.501 611.958L905.639 611.131V610.58L905.914 609.891L906.465 608.789V608.238V607.687L906.327 606.998L905.914 606.034L905.501 605.345L904.262 603.692L903.573 602.452L903.436 601.763V599.834L903.298 596.528L903.711 590.052L903.986 587.71L904.537 586.47L908.806 580.684L910.596 578.618L911.422 577.24L912.524 574.347L913.35 573.382V572.005L913.901 569.663L914.589 567.596V565.392L913.763 562.912L912.524 560.983L911.422 559.33L910.734 557.952V556.575L911.422 555.059L911.697 553.957V552.579L911.147 550.651L910.596 549.135V548.171V545.966L910.871 541.971V539.767L911.284 538.527L912.524 537.7L913.901 537.149L915.14 536.047L915.966 534.807L917.756 533.567L918.72 532.603L919.133 531.087L919.271 529.71L919.409 527.919L920.097 526.541L921.336 525.439L923.126 524.888L925.467 524.75L927.67 524.888L930.011 525.026L931.251 524.612L932.49 523.51L933.178 522.27L934.418 515.519L934.693 512.626L936.07 508.907L936.483 504.222L938.411 497.609L938.824 492.925L939.788 488.655L941.44 486.312L942.542 484.797L945.846 483.419L948.738 482.042L951.079 479.148L951.492 475.842L951.905 470.194L954.246 464.545L954.659 458.345L954.246 452.146L949.977 441.262L940.476 419.081L932.903 395.661L930.7 388.634L928.497 381.608L947.912 390.425L965.4 402.136L980.684 409.575L985.779 412.055L999.686 418.668L1023.23 434.098L1053.8 444.017L1083.82 454.626L1101.03 462.754L1125.82 470.331L1127.47 471.296L1148.4 483.282L1150.88 484.659L1150.46 485.899L1139.86 515.106L1122.1 562.774L1103.1 615.402L1089.19 652.186L1080.51 676.709L1031.77 666.652L1029.43 666.79L1027.23 667.065L1022.82 667.203L1022.96 666.79L1023.37 666.652L1024.33 666.514L1024.75 665.963V664.999L1025.85 664.034L1026.12 662.794L1023.92 663.07L1020.07 657.972L1023.09 651.911L1018.69 649.431L1017.59 650.946L1015.52 655.217L1014.14 655.355L1012.77 659.212L1007.12 658.248L1006.57 657.421L1005.74 657.146L988.808 648.742L978.756 668.856L978.068 671.336L970.77 697.512L966.639 694.343L961.406 691.175L958.928 689.246L957.138 688.006L955.623 686.628L951.354 684.148L949.014 682.22L944.883 678.913L943.919 677.811L941.578 678.638L938.824 679.051L937.034 677.673L938.273 675.882L935.932 674.918L936.07 672.851L934.004 669.958L932.214 668.856L930.424 668.03L929.185 667.341L927.808 666.376L927.533 665.825L926.569 665.136L922.851 663.759L919.822 661.554L915.828 658.937L913.074 658.386L909.77 655.906L908.117 654.666L906.19 653.839L903.573 651.911L901.232 649.706L899.442 647.915L898.616 645.987L896.413 645.022L896.688 642.542L896.413 641.44V640.751V640.2L896.551 639.787L894.485 639.649H893.659L893.246 638.96L892.833 638.271L892.282 637.445L891.869 636.756L890.767 636.205L889.941 635.378L888.977 634.827L887.463 633.45L886.912 632.347L886.086 630.832L885.26 630.143L883.745 628.352L892.42 619.397Z" stroke="white" stroke-width="0.7368" stroke-miterlimit="10" stroke-linecap="square" stroke-linejoin="bevel"/>
<path d="M1248.76 214V186H1261C1264.04 186 1266.71 186.587 1269 187.76C1271.29 188.933 1273.08 190.56 1274.36 192.64C1275.64 194.72 1276.28 197.173 1276.28 200C1276.28 202.8 1275.64 205.253 1274.36 207.36C1273.08 209.44 1271.29 211.067 1269 212.24C1266.71 213.413 1264.04 214 1261 214H1248.76ZM1253.96 209.6H1260.76C1262.87 209.6 1264.68 209.2 1266.2 208.4C1267.75 207.6 1268.93 206.48 1269.76 205.04C1270.61 203.6 1271.04 201.92 1271.04 200C1271.04 198.053 1270.61 196.373 1269.76 194.96C1268.93 193.52 1267.75 192.4 1266.2 191.6C1264.68 190.8 1262.87 190.4 1260.76 190.4H1253.96V209.6ZM1291.37 214.28C1288.99 214.28 1286.91 213.813 1285.13 212.88C1283.37 211.92 1281.99 210.613 1281.01 208.96C1280.05 207.307 1279.57 205.427 1279.57 203.32C1279.57 201.187 1280.03 199.307 1280.97 197.68C1281.93 196.027 1283.23 194.733 1284.89 193.8C1286.57 192.867 1288.47 192.4 1290.61 192.4C1292.69 192.4 1294.54 192.853 1296.17 193.76C1297.79 194.667 1299.07 195.947 1300.01 197.6C1300.94 199.253 1301.41 201.2 1301.41 203.44C1301.41 203.653 1301.39 203.893 1301.37 204.16C1301.37 204.427 1301.35 204.68 1301.33 204.92H1283.53V201.6H1298.69L1296.73 202.64C1296.75 201.413 1296.5 200.333 1295.97 199.4C1295.43 198.467 1294.7 197.733 1293.77 197.2C1292.86 196.667 1291.81 196.4 1290.61 196.4C1289.38 196.4 1288.3 196.667 1287.37 197.2C1286.46 197.733 1285.74 198.48 1285.21 199.44C1284.7 200.373 1284.45 201.48 1284.45 202.76V203.56C1284.45 204.84 1284.74 205.973 1285.33 206.96C1285.91 207.947 1286.74 208.707 1287.81 209.24C1288.87 209.773 1290.1 210.04 1291.49 210.04C1292.69 210.04 1293.77 209.853 1294.73 209.48C1295.69 209.107 1296.54 208.52 1297.29 207.72L1299.97 210.8C1299.01 211.92 1297.79 212.787 1296.33 213.4C1294.89 213.987 1293.23 214.28 1291.37 214.28ZM1312.81 214.28C1311.02 214.28 1309.3 214.053 1307.65 213.6C1306.02 213.12 1304.73 212.547 1303.77 211.88L1305.69 208.08C1306.65 208.693 1307.8 209.2 1309.13 209.6C1310.46 210 1311.8 210.2 1313.13 210.2C1314.7 210.2 1315.84 209.987 1316.53 209.56C1317.25 209.133 1317.61 208.56 1317.61 207.84C1317.61 207.253 1317.37 206.813 1316.89 206.52C1316.41 206.2 1315.78 205.96 1315.01 205.8C1314.24 205.64 1313.37 205.493 1312.41 205.36C1311.48 205.227 1310.53 205.053 1309.57 204.84C1308.64 204.6 1307.78 204.267 1307.01 203.84C1306.24 203.387 1305.61 202.787 1305.13 202.04C1304.65 201.293 1304.41 200.307 1304.41 199.08C1304.41 197.72 1304.8 196.547 1305.57 195.56C1306.34 194.547 1307.42 193.773 1308.81 193.24C1310.22 192.68 1311.89 192.4 1313.81 192.4C1315.25 192.4 1316.7 192.56 1318.17 192.88C1319.64 193.2 1320.85 193.653 1321.81 194.24L1319.89 198.04C1318.88 197.427 1317.85 197.013 1316.81 196.8C1315.8 196.56 1314.78 196.44 1313.77 196.44C1312.25 196.44 1311.12 196.667 1310.37 197.12C1309.65 197.573 1309.29 198.147 1309.29 198.84C1309.29 199.48 1309.53 199.96 1310.01 200.28C1310.49 200.6 1311.12 200.853 1311.89 201.04C1312.66 201.227 1313.52 201.387 1314.45 201.52C1315.41 201.627 1316.36 201.8 1317.29 202.04C1318.22 202.28 1319.08 202.613 1319.85 203.04C1320.65 203.44 1321.29 204.013 1321.77 204.76C1322.25 205.507 1322.49 206.48 1322.49 207.68C1322.49 209.013 1322.09 210.173 1321.29 211.16C1320.52 212.147 1319.41 212.92 1317.97 213.48C1316.53 214.013 1314.81 214.28 1312.81 214.28ZM1339.96 214V209.68L1339.68 208.76V201.2C1339.68 199.733 1339.24 198.6 1338.36 197.8C1337.48 196.973 1336.14 196.56 1334.36 196.56C1333.16 196.56 1331.97 196.747 1330.8 197.12C1329.65 197.493 1328.68 198.013 1327.88 198.68L1325.92 195.04C1327.06 194.16 1328.42 193.507 1330 193.08C1331.6 192.627 1333.25 192.4 1334.96 192.4C1338.05 192.4 1340.44 193.147 1342.12 194.64C1343.82 196.107 1344.68 198.387 1344.68 201.48V214H1339.96ZM1333.24 214.28C1331.64 214.28 1330.24 214.013 1329.04 213.48C1327.84 212.92 1326.9 212.16 1326.24 211.2C1325.6 210.213 1325.28 209.107 1325.28 207.88C1325.28 206.68 1325.56 205.6 1326.12 204.64C1326.7 203.68 1327.65 202.92 1328.96 202.36C1330.26 201.8 1332 201.52 1334.16 201.52H1340.36V204.84H1334.52C1332.81 204.84 1331.66 205.12 1331.08 205.68C1330.49 206.213 1330.2 206.88 1330.2 207.68C1330.2 208.587 1330.56 209.307 1331.28 209.84C1332 210.373 1333 210.64 1334.28 210.64C1335.5 210.64 1336.6 210.36 1337.56 209.8C1338.54 209.24 1339.25 208.413 1339.68 207.32L1340.52 210.32C1340.04 211.573 1339.17 212.547 1337.92 213.24C1336.69 213.933 1335.13 214.28 1333.24 214.28ZM1362.63 214V186H1375.75C1379.11 186 1381.67 186.667 1383.43 188C1385.19 189.307 1386.07 191.067 1386.07 193.28C1386.07 194.773 1385.72 196.053 1385.03 197.12C1384.33 198.16 1383.4 198.973 1382.23 199.56C1381.08 200.12 1379.83 200.4 1378.47 200.4L1379.19 198.96C1380.76 198.96 1382.17 199.253 1383.43 199.84C1384.68 200.4 1385.67 201.227 1386.39 202.32C1387.13 203.413 1387.51 204.773 1387.51 206.4C1387.51 208.8 1386.59 210.667 1384.75 212C1382.91 213.333 1380.17 214 1376.55 214H1362.63ZM1367.83 209.92H1376.23C1378.17 209.92 1379.67 209.6 1380.71 208.96C1381.75 208.32 1382.27 207.293 1382.27 205.88C1382.27 204.493 1381.75 203.48 1380.71 202.84C1379.67 202.173 1378.17 201.84 1376.23 201.84H1367.43V197.8H1375.19C1377 197.8 1378.39 197.48 1379.35 196.84C1380.33 196.2 1380.83 195.24 1380.83 193.96C1380.83 192.653 1380.33 191.68 1379.35 191.04C1378.39 190.4 1377 190.08 1375.19 190.08H1367.83V209.92ZM1405.74 214V209.68L1405.46 208.76V201.2C1405.46 199.733 1405.02 198.6 1404.14 197.8C1403.26 196.973 1401.92 196.56 1400.14 196.56C1398.94 196.56 1397.75 196.747 1396.58 197.12C1395.43 197.493 1394.46 198.013 1393.66 198.68L1391.7 195.04C1392.84 194.16 1394.2 193.507 1395.78 193.08C1397.38 192.627 1399.03 192.4 1400.74 192.4C1403.83 192.4 1406.22 193.147 1407.9 194.64C1409.6 196.107 1410.46 198.387 1410.46 201.48V214H1405.74ZM1399.02 214.28C1397.42 214.28 1396.02 214.013 1394.82 213.48C1393.62 212.92 1392.68 212.16 1392.02 211.2C1391.38 210.213 1391.06 209.107 1391.06 207.88C1391.06 206.68 1391.34 205.6 1391.9 204.64C1392.48 203.68 1393.43 202.92 1394.74 202.36C1396.04 201.8 1397.78 201.52 1399.94 201.52H1406.14V204.84H1400.3C1398.59 204.84 1397.44 205.12 1396.86 205.68C1396.27 206.213 1395.98 206.88 1395.98 207.68C1395.98 208.587 1396.34 209.307 1397.06 209.84C1397.78 210.373 1398.78 210.64 1400.06 210.64C1401.28 210.64 1402.38 210.36 1403.34 209.8C1404.32 209.24 1405.03 208.413 1405.46 207.32L1406.3 210.32C1405.82 211.573 1404.95 212.547 1403.7 213.24C1402.47 213.933 1400.91 214.28 1399.02 214.28ZM1443.83 192.4C1445.54 192.4 1447.05 192.733 1448.35 193.4C1449.69 194.067 1450.73 195.093 1451.47 196.48C1452.22 197.84 1452.59 199.6 1452.59 201.76V214H1447.59V202.4C1447.59 200.507 1447.18 199.093 1446.35 198.16C1445.53 197.227 1444.34 196.76 1442.79 196.76C1441.7 196.76 1440.73 197 1439.87 197.48C1439.05 197.96 1438.39 198.667 1437.91 199.6C1437.46 200.533 1437.23 201.72 1437.23 203.16V214H1432.23V202.4C1432.23 200.507 1431.82 199.093 1430.99 198.16C1430.17 197.227 1428.98 196.76 1427.43 196.76C1426.34 196.76 1425.37 197 1424.51 197.48C1423.69 197.96 1423.03 198.667 1422.55 199.6C1422.1 200.533 1421.87 201.72 1421.87 203.16V214H1416.87V192.64H1421.63V198.32L1420.79 196.64C1421.51 195.253 1422.55 194.2 1423.91 193.48C1425.3 192.76 1426.87 192.4 1428.63 192.4C1430.63 192.4 1432.37 192.893 1433.83 193.88C1435.33 194.867 1436.31 196.36 1436.79 198.36L1434.83 197.68C1435.53 196.08 1436.67 194.8 1438.27 193.84C1439.87 192.88 1441.73 192.4 1443.83 192.4ZM1470.82 214.28C1469.01 214.28 1467.4 213.88 1465.98 213.08C1464.57 212.28 1463.45 211.08 1462.62 209.48C1461.82 207.853 1461.42 205.8 1461.42 203.32C1461.42 200.813 1461.84 198.76 1462.66 197.16C1463.52 195.56 1464.65 194.373 1466.06 193.6C1467.5 192.8 1469.09 192.4 1470.82 192.4C1472.93 192.4 1474.78 192.853 1476.38 193.76C1478.01 194.667 1479.29 195.933 1480.22 197.56C1481.18 199.187 1481.66 201.107 1481.66 203.32C1481.66 205.533 1481.18 207.453 1480.22 209.08C1479.29 210.707 1478.01 211.987 1476.38 212.92C1474.78 213.827 1472.93 214.28 1470.82 214.28ZM1458.98 214V184.32H1463.98V197.6L1463.58 203.28L1463.74 208.96V214H1458.98ZM1470.26 210C1471.46 210 1472.53 209.733 1473.46 209.2C1474.42 208.667 1475.18 207.893 1475.74 206.88C1476.3 205.867 1476.58 204.68 1476.58 203.32C1476.58 201.933 1476.3 200.747 1475.74 199.76C1475.18 198.747 1474.42 197.973 1473.46 197.44C1472.53 196.907 1471.46 196.64 1470.26 196.64C1469.06 196.64 1467.98 196.907 1467.02 197.44C1466.06 197.973 1465.3 198.747 1464.74 199.76C1464.18 200.747 1463.9 201.933 1463.9 203.32C1463.9 204.68 1464.18 205.867 1464.74 206.88C1465.3 207.893 1466.06 208.667 1467.02 209.2C1467.98 209.733 1469.06 210 1470.26 210ZM1499.29 214V209.68L1499.01 208.76V201.2C1499.01 199.733 1498.57 198.6 1497.69 197.8C1496.81 196.973 1495.48 196.56 1493.69 196.56C1492.49 196.56 1491.3 196.747 1490.13 197.12C1488.98 197.493 1488.01 198.013 1487.21 198.68L1485.25 195.04C1486.4 194.16 1487.76 193.507 1489.33 193.08C1490.93 192.627 1492.58 192.4 1494.29 192.4C1497.38 192.4 1499.77 193.147 1501.45 194.64C1503.16 196.107 1504.01 198.387 1504.01 201.48V214H1499.29ZM1492.57 214.28C1490.97 214.28 1489.57 214.013 1488.37 213.48C1487.17 212.92 1486.24 212.16 1485.57 211.2C1484.93 210.213 1484.61 209.107 1484.61 207.88C1484.61 206.68 1484.89 205.6 1485.45 204.64C1486.04 203.68 1486.98 202.92 1488.29 202.36C1489.6 201.8 1491.33 201.52 1493.49 201.52H1499.69V204.84H1493.85C1492.14 204.84 1491 205.12 1490.41 205.68C1489.82 206.213 1489.53 206.88 1489.53 207.68C1489.53 208.587 1489.89 209.307 1490.61 209.84C1491.33 210.373 1492.33 210.64 1493.61 210.64C1494.84 210.64 1495.93 210.36 1496.89 209.8C1497.88 209.24 1498.58 208.413 1499.01 207.32L1499.85 210.32C1499.37 211.573 1498.5 212.547 1497.25 213.24C1496.02 213.933 1494.46 214.28 1492.57 214.28ZM1522.55 192.4C1524.26 192.4 1525.78 192.733 1527.11 193.4C1528.47 194.067 1529.54 195.093 1530.31 196.48C1531.08 197.84 1531.47 199.6 1531.47 201.76V214H1526.47V202.4C1526.47 200.507 1526.02 199.093 1525.11 198.16C1524.23 197.227 1522.99 196.76 1521.39 196.76C1520.22 196.76 1519.18 197 1518.27 197.48C1517.36 197.96 1516.66 198.68 1516.15 199.64C1515.67 200.573 1515.43 201.76 1515.43 203.2V214H1510.43V192.64H1515.19V198.4L1514.35 196.64C1515.1 195.28 1516.18 194.24 1517.59 193.52C1519.03 192.773 1520.68 192.4 1522.55 192.4ZM1547.53 222.04C1545.56 222.04 1543.62 221.773 1541.73 221.24C1539.86 220.733 1538.33 219.987 1537.13 219L1539.37 215.24C1540.3 216.013 1541.48 216.627 1542.89 217.08C1544.33 217.56 1545.78 217.8 1547.25 217.8C1549.6 217.8 1551.32 217.253 1552.41 216.16C1553.5 215.093 1554.05 213.48 1554.05 211.32V207.52L1554.45 202.68L1554.29 197.84V192.64H1559.05V210.76C1559.05 214.627 1558.06 217.467 1556.09 219.28C1554.12 221.12 1551.26 222.04 1547.53 222.04ZM1546.89 213.04C1544.86 213.04 1543.02 212.613 1541.37 211.76C1539.74 210.88 1538.45 209.667 1537.49 208.12C1536.56 206.573 1536.09 204.76 1536.09 202.68C1536.09 200.627 1536.56 198.827 1537.49 197.28C1538.45 195.733 1539.74 194.533 1541.37 193.68C1543.02 192.827 1544.86 192.4 1546.89 192.4C1548.7 192.4 1550.33 192.76 1551.77 193.48C1553.21 194.2 1554.36 195.32 1555.21 196.84C1556.09 198.36 1556.53 200.307 1556.53 202.68C1556.53 205.053 1556.09 207.013 1555.21 208.56C1554.36 210.08 1553.21 211.213 1551.77 211.96C1550.33 212.68 1548.7 213.04 1546.89 213.04ZM1547.65 208.8C1548.9 208.8 1550.02 208.547 1551.01 208.04C1552 207.507 1552.76 206.787 1553.29 205.88C1553.85 204.947 1554.13 203.88 1554.13 202.68C1554.13 201.48 1553.85 200.427 1553.29 199.52C1552.76 198.587 1552 197.88 1551.01 197.4C1550.02 196.893 1548.9 196.64 1547.65 196.64C1546.4 196.64 1545.26 196.893 1544.25 197.4C1543.26 197.88 1542.49 198.587 1541.93 199.52C1541.4 200.427 1541.13 201.48 1541.13 202.68C1541.13 203.88 1541.4 204.947 1541.93 205.88C1542.49 206.787 1543.26 207.507 1544.25 208.04C1545.26 208.547 1546.4 208.8 1547.65 208.8ZM1578.78 214V209.68L1578.5 208.76V201.2C1578.5 199.733 1578.06 198.6 1577.18 197.8C1576.3 196.973 1574.97 196.56 1573.18 196.56C1571.98 196.56 1570.8 196.747 1569.62 197.12C1568.48 197.493 1567.5 198.013 1566.7 198.68L1564.74 195.04C1565.89 194.16 1567.25 193.507 1568.82 193.08C1570.42 192.627 1572.08 192.4 1573.78 192.4C1576.88 192.4 1579.26 193.147 1580.94 194.64C1582.65 196.107 1583.5 198.387 1583.5 201.48V214H1578.78ZM1572.06 214.28C1570.46 214.28 1569.06 214.013 1567.86 213.48C1566.66 212.92 1565.73 212.16 1565.06 211.2C1564.42 210.213 1564.1 209.107 1564.1 207.88C1564.1 206.68 1564.38 205.6 1564.94 204.64C1565.53 203.68 1566.48 202.92 1567.78 202.36C1569.09 201.8 1570.82 201.52 1572.98 201.52H1579.18V204.84H1573.34C1571.64 204.84 1570.49 205.12 1569.9 205.68C1569.32 206.213 1569.02 206.88 1569.02 207.68C1569.02 208.587 1569.38 209.307 1570.1 209.84C1570.82 210.373 1571.82 210.64 1573.1 210.64C1574.33 210.64 1575.42 210.36 1576.38 209.8C1577.37 209.24 1578.08 208.413 1578.5 207.32L1579.34 210.32C1578.86 211.573 1578 212.547 1576.74 213.24C1575.52 213.933 1573.96 214.28 1572.06 214.28ZM1602.04 192.4C1603.75 192.4 1605.27 192.733 1606.6 193.4C1607.96 194.067 1609.03 195.093 1609.8 196.48C1610.57 197.84 1610.96 199.6 1610.96 201.76V214H1605.96V202.4C1605.96 200.507 1605.51 199.093 1604.6 198.16C1603.72 197.227 1602.48 196.76 1600.88 196.76C1599.71 196.76 1598.67 197 1597.76 197.48C1596.85 197.96 1596.15 198.68 1595.64 199.64C1595.16 200.573 1594.92 201.76 1594.92 203.2V214H1589.92V192.64H1594.68V198.4L1593.84 196.64C1594.59 195.28 1595.67 194.24 1597.08 193.52C1598.52 192.773 1600.17 192.4 1602.04 192.4Z" fill="white"/>
<path d="M1465.76 816V788H1478C1481.04 788 1483.71 788.587 1486 789.76C1488.29 790.933 1490.08 792.56 1491.36 794.64C1492.64 796.72 1493.28 799.173 1493.28 802C1493.28 804.8 1492.64 807.253 1491.36 809.36C1490.08 811.44 1488.29 813.067 1486 814.24C1483.71 815.413 1481.04 816 1478 816H1465.76ZM1470.96 811.6H1477.76C1479.87 811.6 1481.68 811.2 1483.2 810.4C1484.75 809.6 1485.93 808.48 1486.76 807.04C1487.61 805.6 1488.04 803.92 1488.04 802C1488.04 800.053 1487.61 798.373 1486.76 796.96C1485.93 795.52 1484.75 794.4 1483.2 793.6C1481.68 792.8 1479.87 792.4 1477.76 792.4H1470.96V811.6ZM1508.37 816.28C1505.99 816.28 1503.91 815.813 1502.13 814.88C1500.37 813.92 1498.99 812.613 1498.01 810.96C1497.05 809.307 1496.57 807.427 1496.57 805.32C1496.57 803.187 1497.03 801.307 1497.97 799.68C1498.93 798.027 1500.23 796.733 1501.89 795.8C1503.57 794.867 1505.47 794.4 1507.61 794.4C1509.69 794.4 1511.54 794.853 1513.17 795.76C1514.79 796.667 1516.07 797.947 1517.01 799.6C1517.94 801.253 1518.41 803.2 1518.41 805.44C1518.41 805.653 1518.39 805.893 1518.37 806.16C1518.37 806.427 1518.35 806.68 1518.33 806.92H1500.53V803.6H1515.69L1513.73 804.64C1513.75 803.413 1513.5 802.333 1512.97 801.4C1512.43 800.467 1511.7 799.733 1510.77 799.2C1509.86 798.667 1508.81 798.4 1507.61 798.4C1506.38 798.4 1505.3 798.667 1504.37 799.2C1503.46 799.733 1502.74 800.48 1502.21 801.44C1501.7 802.373 1501.45 803.48 1501.45 804.76V805.56C1501.45 806.84 1501.74 807.973 1502.33 808.96C1502.91 809.947 1503.74 810.707 1504.81 811.24C1505.87 811.773 1507.1 812.04 1508.49 812.04C1509.69 812.04 1510.77 811.853 1511.73 811.48C1512.69 811.107 1513.54 810.52 1514.29 809.72L1516.97 812.8C1516.01 813.92 1514.79 814.787 1513.33 815.4C1511.89 815.987 1510.23 816.28 1508.37 816.28ZM1529.81 816.28C1528.02 816.28 1526.3 816.053 1524.65 815.6C1523.02 815.12 1521.73 814.547 1520.77 813.88L1522.69 810.08C1523.65 810.693 1524.8 811.2 1526.13 811.6C1527.46 812 1528.8 812.2 1530.13 812.2C1531.7 812.2 1532.84 811.987 1533.53 811.56C1534.25 811.133 1534.61 810.56 1534.61 809.84C1534.61 809.253 1534.37 808.813 1533.89 808.52C1533.41 808.2 1532.78 807.96 1532.01 807.8C1531.24 807.64 1530.37 807.493 1529.41 807.36C1528.48 807.227 1527.53 807.053 1526.57 806.84C1525.64 806.6 1524.78 806.267 1524.01 805.84C1523.24 805.387 1522.61 804.787 1522.13 804.04C1521.65 803.293 1521.41 802.307 1521.41 801.08C1521.41 799.72 1521.8 798.547 1522.57 797.56C1523.34 796.547 1524.42 795.773 1525.81 795.24C1527.22 794.68 1528.89 794.4 1530.81 794.4C1532.25 794.4 1533.7 794.56 1535.17 794.88C1536.64 795.2 1537.85 795.653 1538.81 796.24L1536.89 800.04C1535.88 799.427 1534.85 799.013 1533.81 798.8C1532.8 798.56 1531.78 798.44 1530.77 798.44C1529.25 798.44 1528.12 798.667 1527.37 799.12C1526.65 799.573 1526.29 800.147 1526.29 800.84C1526.29 801.48 1526.53 801.96 1527.01 802.28C1527.49 802.6 1528.12 802.853 1528.89 803.04C1529.66 803.227 1530.52 803.387 1531.45 803.52C1532.41 803.627 1533.36 803.8 1534.29 804.04C1535.22 804.28 1536.08 804.613 1536.85 805.04C1537.65 805.44 1538.29 806.013 1538.77 806.76C1539.25 807.507 1539.49 808.48 1539.49 809.68C1539.49 811.013 1539.09 812.173 1538.29 813.16C1537.52 814.147 1536.41 814.92 1534.97 815.48C1533.53 816.013 1531.81 816.28 1529.81 816.28ZM1556.96 816V811.68L1556.68 810.76V803.2C1556.68 801.733 1556.24 800.6 1555.36 799.8C1554.48 798.973 1553.14 798.56 1551.36 798.56C1550.16 798.56 1548.97 798.747 1547.8 799.12C1546.65 799.493 1545.68 800.013 1544.88 800.68L1542.92 797.04C1544.06 796.16 1545.42 795.507 1547 795.08C1548.6 794.627 1550.25 794.4 1551.96 794.4C1555.05 794.4 1557.44 795.147 1559.12 796.64C1560.82 798.107 1561.68 800.387 1561.68 803.48V816H1556.96ZM1550.24 816.28C1548.64 816.28 1547.24 816.013 1546.04 815.48C1544.84 814.92 1543.9 814.16 1543.24 813.2C1542.6 812.213 1542.28 811.107 1542.28 809.88C1542.28 808.68 1542.56 807.6 1543.12 806.64C1543.7 805.68 1544.65 804.92 1545.96 804.36C1547.26 803.8 1549 803.52 1551.16 803.52H1557.36V806.84H1551.52C1549.81 806.84 1548.66 807.12 1548.08 807.68C1547.49 808.213 1547.2 808.88 1547.2 809.68C1547.2 810.587 1547.56 811.307 1548.28 811.84C1549 812.373 1550 812.64 1551.28 812.64C1552.5 812.64 1553.6 812.36 1554.56 811.8C1555.54 811.24 1556.25 810.413 1556.68 809.32L1557.52 812.32C1557.04 813.573 1556.17 814.547 1554.92 815.24C1553.69 815.933 1552.13 816.28 1550.24 816.28ZM1588.31 816.4C1586.12 816.4 1584.03 816.093 1582.03 815.48C1580.03 814.84 1578.44 814.027 1577.27 813.04L1579.07 809C1580.19 809.88 1581.57 810.613 1583.23 811.2C1584.88 811.787 1586.57 812.08 1588.31 812.08C1589.77 812.08 1590.96 811.92 1591.87 811.6C1592.77 811.28 1593.44 810.853 1593.87 810.32C1594.29 809.76 1594.51 809.133 1594.51 808.44C1594.51 807.587 1594.2 806.907 1593.59 806.4C1592.97 805.867 1592.17 805.453 1591.19 805.16C1590.23 804.84 1589.15 804.547 1587.95 804.28C1586.77 804.013 1585.59 803.707 1584.39 803.36C1583.21 802.987 1582.13 802.52 1581.15 801.96C1580.19 801.373 1579.4 800.6 1578.79 799.64C1578.17 798.68 1577.87 797.453 1577.87 795.96C1577.87 794.44 1578.27 793.053 1579.07 791.8C1579.89 790.52 1581.13 789.507 1582.79 788.76C1584.47 787.987 1586.59 787.6 1589.15 787.6C1590.83 787.6 1592.49 787.813 1594.15 788.24C1595.8 788.667 1597.24 789.28 1598.47 790.08L1596.83 794.12C1595.57 793.373 1594.28 792.827 1592.95 792.48C1591.61 792.107 1590.33 791.92 1589.11 791.92C1587.67 791.92 1586.49 792.093 1585.59 792.44C1584.71 792.787 1584.05 793.24 1583.63 793.8C1583.23 794.36 1583.03 795 1583.03 795.72C1583.03 796.573 1583.32 797.267 1583.91 797.8C1584.52 798.307 1585.31 798.707 1586.27 799C1587.25 799.293 1588.35 799.587 1589.55 799.88C1590.75 800.147 1591.93 800.453 1593.11 800.8C1594.31 801.147 1595.39 801.6 1596.35 802.16C1597.33 802.72 1598.12 803.48 1598.71 804.44C1599.32 805.4 1599.63 806.613 1599.63 808.08C1599.63 809.573 1599.21 810.96 1598.39 812.24C1597.59 813.493 1596.35 814.507 1594.67 815.28C1592.99 816.027 1590.87 816.4 1588.31 816.4ZM1614.34 816.28C1611.97 816.28 1609.89 815.813 1608.1 814.88C1606.34 813.92 1604.97 812.613 1603.98 810.96C1603.02 809.307 1602.54 807.427 1602.54 805.32C1602.54 803.187 1603.01 801.307 1603.94 799.68C1604.9 798.027 1606.21 796.733 1607.86 795.8C1609.54 794.867 1611.45 794.4 1613.58 794.4C1615.66 794.4 1617.52 794.853 1619.14 795.76C1620.77 796.667 1622.05 797.947 1622.98 799.6C1623.92 801.253 1624.38 803.2 1624.38 805.44C1624.38 805.653 1624.37 805.893 1624.34 806.16C1624.34 806.427 1624.33 806.68 1624.3 806.92H1606.5V803.6H1621.66L1619.7 804.64C1619.73 803.413 1619.48 802.333 1618.94 801.4C1618.41 800.467 1617.68 799.733 1616.74 799.2C1615.84 798.667 1614.78 798.4 1613.58 798.4C1612.36 798.4 1611.28 798.667 1610.34 799.2C1609.44 799.733 1608.72 800.48 1608.18 801.44C1607.68 802.373 1607.42 803.48 1607.42 804.76V805.56C1607.42 806.84 1607.72 807.973 1608.3 808.96C1608.89 809.947 1609.72 810.707 1610.78 811.24C1611.85 811.773 1613.08 812.04 1614.46 812.04C1615.66 812.04 1616.74 811.853 1617.7 811.48C1618.66 811.107 1619.52 810.52 1620.26 809.72L1622.94 812.8C1621.98 813.92 1620.77 814.787 1619.3 815.4C1617.86 815.987 1616.21 816.28 1614.34 816.28ZM1637.23 816.28C1634.88 816.28 1633.07 815.68 1631.79 814.48C1630.51 813.253 1629.87 811.453 1629.87 809.08V789.92H1634.87V808.96C1634.87 809.973 1635.12 810.76 1635.63 811.32C1636.16 811.88 1636.89 812.16 1637.83 812.16C1638.95 812.16 1639.88 811.867 1640.63 811.28L1642.03 814.84C1641.44 815.32 1640.72 815.68 1639.87 815.92C1639.01 816.16 1638.13 816.28 1637.23 816.28ZM1626.35 798.8V794.8H1640.59V798.8H1626.35ZM1659.3 816V811.68L1659.02 810.76V803.2C1659.02 801.733 1658.58 800.6 1657.7 799.8C1656.82 798.973 1655.49 798.56 1653.7 798.56C1652.5 798.56 1651.31 798.747 1650.14 799.12C1648.99 799.493 1648.02 800.013 1647.22 800.68L1645.26 797.04C1646.41 796.16 1647.77 795.507 1649.34 795.08C1650.94 794.627 1652.59 794.4 1654.3 794.4C1657.39 794.4 1659.78 795.147 1661.46 796.64C1663.17 798.107 1664.02 800.387 1664.02 803.48V816H1659.3ZM1652.58 816.28C1650.98 816.28 1649.58 816.013 1648.38 815.48C1647.18 814.92 1646.25 814.16 1645.58 813.2C1644.94 812.213 1644.62 811.107 1644.62 809.88C1644.62 808.68 1644.9 807.6 1645.46 806.64C1646.05 805.68 1646.99 804.92 1648.3 804.36C1649.61 803.8 1651.34 803.52 1653.5 803.52H1659.7V806.84H1653.86C1652.15 806.84 1651.01 807.12 1650.42 807.68C1649.83 808.213 1649.54 808.88 1649.54 809.68C1649.54 810.587 1649.9 811.307 1650.62 811.84C1651.34 812.373 1652.34 812.64 1653.62 812.64C1654.85 812.64 1655.94 812.36 1656.9 811.8C1657.89 811.24 1658.59 810.413 1659.02 809.32L1659.86 812.32C1659.38 813.573 1658.51 814.547 1657.26 815.24C1656.03 815.933 1654.47 816.28 1652.58 816.28ZM1682.28 816.28C1680.46 816.28 1678.85 815.88 1677.44 815.08C1676.02 814.28 1674.9 813.08 1674.08 811.48C1673.28 809.853 1672.88 807.8 1672.88 805.32C1672.88 802.813 1673.29 800.76 1674.12 799.16C1674.97 797.56 1676.1 796.373 1677.52 795.6C1678.96 794.8 1680.54 794.4 1682.28 794.4C1684.38 794.4 1686.24 794.853 1687.84 795.76C1689.46 796.667 1690.74 797.933 1691.68 799.56C1692.64 801.187 1693.12 803.107 1693.12 805.32C1693.12 807.533 1692.64 809.453 1691.68 811.08C1690.74 812.707 1689.46 813.987 1687.84 814.92C1686.24 815.827 1684.38 816.28 1682.28 816.28ZM1670.44 816V786.32H1675.44V799.6L1675.04 805.28L1675.2 810.96V816H1670.44ZM1681.72 812C1682.92 812 1683.98 811.733 1684.92 811.2C1685.88 810.667 1686.64 809.893 1687.2 808.88C1687.76 807.867 1688.04 806.68 1688.04 805.32C1688.04 803.933 1687.76 802.747 1687.2 801.76C1686.64 800.747 1685.88 799.973 1684.92 799.44C1683.98 798.907 1682.92 798.64 1681.72 798.64C1680.52 798.64 1679.44 798.907 1678.48 799.44C1677.52 799.973 1676.76 800.747 1676.2 801.76C1675.64 802.747 1675.36 803.933 1675.36 805.32C1675.36 806.68 1675.64 807.867 1676.2 808.88C1676.76 809.893 1677.52 810.667 1678.48 811.2C1679.44 811.733 1680.52 812 1681.72 812ZM1706.9 816.28C1705.08 816.28 1703.48 815.947 1702.1 815.28C1700.71 814.587 1699.63 813.547 1698.86 812.16C1698.08 810.747 1697.7 808.973 1697.7 806.84V794.64H1702.7V806.16C1702.7 808.08 1703.12 809.52 1703.98 810.48C1704.86 811.413 1706.1 811.88 1707.7 811.88C1708.87 811.88 1709.88 811.64 1710.74 811.16C1711.62 810.68 1712.3 809.96 1712.78 809C1713.28 808.04 1713.54 806.853 1713.54 805.44V794.64H1718.54V816H1713.78V810.24L1714.62 812C1713.9 813.387 1712.84 814.453 1711.46 815.2C1710.07 815.92 1708.55 816.28 1706.9 816.28Z" fill="white"/>
<path d="M281.76 805V777H294C297.04 777 299.707 777.587 302 778.76C304.293 779.933 306.08 781.56 307.36 783.64C308.64 785.72 309.28 788.173 309.28 791C309.28 793.8 308.64 796.253 307.36 798.36C306.08 800.44 304.293 802.067 302 803.24C299.707 804.413 297.04 805 294 805H281.76ZM286.96 800.6H293.76C295.867 800.6 297.68 800.2 299.2 799.4C300.747 798.6 301.933 797.48 302.76 796.04C303.613 794.6 304.04 792.92 304.04 791C304.04 789.053 303.613 787.373 302.76 785.96C301.933 784.52 300.747 783.4 299.2 782.6C297.68 781.8 295.867 781.4 293.76 781.4H286.96V800.6ZM324.367 805.28C321.994 805.28 319.914 804.813 318.127 803.88C316.367 802.92 314.994 801.613 314.007 799.96C313.047 798.307 312.567 796.427 312.567 794.32C312.567 792.187 313.034 790.307 313.967 788.68C314.927 787.027 316.234 785.733 317.887 784.8C319.567 783.867 321.474 783.4 323.607 783.4C325.687 783.4 327.54 783.853 329.167 784.76C330.794 785.667 332.074 786.947 333.007 788.6C333.94 790.253 334.407 792.2 334.407 794.44C334.407 794.653 334.394 794.893 334.367 795.16C334.367 795.427 334.354 795.68 334.327 795.92H316.527V792.6H331.687L329.727 793.64C329.754 792.413 329.5 791.333 328.967 790.4C328.434 789.467 327.7 788.733 326.767 788.2C325.86 787.667 324.807 787.4 323.607 787.4C322.38 787.4 321.3 787.667 320.367 788.2C319.46 788.733 318.74 789.48 318.207 790.44C317.7 791.373 317.447 792.48 317.447 793.76V794.56C317.447 795.84 317.74 796.973 318.327 797.96C318.914 798.947 319.74 799.707 320.807 800.24C321.874 800.773 323.1 801.04 324.487 801.04C325.687 801.04 326.767 800.853 327.727 800.48C328.687 800.107 329.54 799.52 330.287 798.72L332.967 801.8C332.007 802.92 330.794 803.787 329.327 804.4C327.887 804.987 326.234 805.28 324.367 805.28ZM345.81 805.28C344.023 805.28 342.303 805.053 340.65 804.6C339.023 804.12 337.73 803.547 336.77 802.88L338.69 799.08C339.65 799.693 340.796 800.2 342.13 800.6C343.463 801 344.796 801.2 346.13 801.2C347.703 801.2 348.836 800.987 349.53 800.56C350.25 800.133 350.61 799.56 350.61 798.84C350.61 798.253 350.37 797.813 349.89 797.52C349.41 797.2 348.783 796.96 348.01 796.8C347.236 796.64 346.37 796.493 345.41 796.36C344.476 796.227 343.53 796.053 342.57 795.84C341.636 795.6 340.783 795.267 340.01 794.84C339.236 794.387 338.61 793.787 338.13 793.04C337.65 792.293 337.41 791.307 337.41 790.08C337.41 788.72 337.796 787.547 338.57 786.56C339.343 785.547 340.423 784.773 341.81 784.24C343.223 783.68 344.89 783.4 346.81 783.4C348.25 783.4 349.703 783.56 351.17 783.88C352.636 784.2 353.85 784.653 354.81 785.24L352.89 789.04C351.876 788.427 350.85 788.013 349.81 787.8C348.796 787.56 347.783 787.44 346.77 787.44C345.25 787.44 344.116 787.667 343.37 788.12C342.65 788.573 342.29 789.147 342.29 789.84C342.29 790.48 342.53 790.96 343.01 791.28C343.49 791.6 344.116 791.853 344.89 792.04C345.663 792.227 346.516 792.387 347.45 792.52C348.41 792.627 349.356 792.8 350.29 793.04C351.223 793.28 352.076 793.613 352.85 794.04C353.65 794.44 354.29 795.013 354.77 795.76C355.25 796.507 355.49 797.48 355.49 798.68C355.49 800.013 355.09 801.173 354.29 802.16C353.516 803.147 352.41 803.92 350.97 804.48C349.53 805.013 347.81 805.28 345.81 805.28ZM372.956 805V800.68L372.676 799.76V792.2C372.676 790.733 372.236 789.6 371.356 788.8C370.476 787.973 369.142 787.56 367.356 787.56C366.156 787.56 364.969 787.747 363.796 788.12C362.649 788.493 361.676 789.013 360.876 789.68L358.916 786.04C360.062 785.16 361.422 784.507 362.996 784.08C364.596 783.627 366.249 783.4 367.956 783.4C371.049 783.4 373.436 784.147 375.116 785.64C376.822 787.107 377.676 789.387 377.676 792.48V805H372.956ZM366.236 805.28C364.636 805.28 363.236 805.013 362.036 804.48C360.836 803.92 359.902 803.16 359.236 802.2C358.596 801.213 358.276 800.107 358.276 798.88C358.276 797.68 358.556 796.6 359.116 795.64C359.702 794.68 360.649 793.92 361.956 793.36C363.262 792.8 364.996 792.52 367.156 792.52H373.356V795.84H367.516C365.809 795.84 364.662 796.12 364.076 796.68C363.489 797.213 363.196 797.88 363.196 798.68C363.196 799.587 363.556 800.307 364.276 800.84C364.996 801.373 365.996 801.64 367.276 801.64C368.502 801.64 369.596 801.36 370.556 800.8C371.542 800.24 372.249 799.413 372.676 798.32L373.516 801.32C373.036 802.573 372.169 803.547 370.916 804.24C369.689 804.933 368.129 805.28 366.236 805.28ZM395.627 805V777H408.747C412.107 777 414.667 777.667 416.427 779C418.187 780.307 419.067 782.067 419.067 784.28C419.067 785.773 418.721 787.053 418.027 788.12C417.334 789.16 416.401 789.973 415.227 790.56C414.081 791.12 412.827 791.4 411.467 791.4L412.187 789.96C413.761 789.96 415.174 790.253 416.427 790.84C417.681 791.4 418.667 792.227 419.387 793.32C420.134 794.413 420.507 795.773 420.507 797.4C420.507 799.8 419.587 801.667 417.747 803C415.907 804.333 413.174 805 409.547 805H395.627ZM400.827 800.92H409.227C411.174 800.92 412.667 800.6 413.707 799.96C414.747 799.32 415.267 798.293 415.267 796.88C415.267 795.493 414.747 794.48 413.707 793.84C412.667 793.173 411.174 792.84 409.227 792.84H400.427V788.8H408.187C410.001 788.8 411.387 788.48 412.347 787.84C413.334 787.2 413.827 786.24 413.827 784.96C413.827 783.653 413.334 782.68 412.347 782.04C411.387 781.4 410.001 781.08 408.187 781.08H400.827V800.92ZM425.577 805V783.64H430.577V805H425.577ZM428.097 780.12C427.164 780.12 426.39 779.827 425.777 779.24C425.19 778.653 424.897 777.947 424.897 777.12C424.897 776.267 425.19 775.56 425.777 775C426.39 774.413 427.164 774.12 428.097 774.12C429.03 774.12 429.79 774.4 430.377 774.96C430.99 775.493 431.297 776.173 431.297 777C431.297 777.88 431.004 778.627 430.417 779.24C429.83 779.827 429.057 780.12 428.097 780.12ZM449.259 783.4C450.966 783.4 452.486 783.733 453.819 784.4C455.179 785.067 456.246 786.093 457.019 787.48C457.793 788.84 458.179 790.6 458.179 792.76V805H453.179V793.4C453.179 791.507 452.726 790.093 451.819 789.16C450.939 788.227 449.699 787.76 448.099 787.76C446.926 787.76 445.886 788 444.979 788.48C444.073 788.96 443.366 789.68 442.859 790.64C442.379 791.573 442.139 792.76 442.139 794.2V805H437.139V783.64H441.899V789.4L441.059 787.64C441.806 786.28 442.886 785.24 444.299 784.52C445.739 783.773 447.393 783.4 449.259 783.4ZM477.682 805V800.68L477.402 799.76V792.2C477.402 790.733 476.962 789.6 476.082 788.8C475.202 787.973 473.869 787.56 472.082 787.56C470.882 787.56 469.696 787.747 468.522 788.12C467.376 788.493 466.402 789.013 465.602 789.68L463.642 786.04C464.789 785.16 466.149 784.507 467.722 784.08C469.322 783.627 470.976 783.4 472.682 783.4C475.776 783.4 478.162 784.147 479.842 785.64C481.549 787.107 482.402 789.387 482.402 792.48V805H477.682ZM470.962 805.28C469.362 805.28 467.962 805.013 466.762 804.48C465.562 803.92 464.629 803.16 463.962 802.2C463.322 801.213 463.002 800.107 463.002 798.88C463.002 797.68 463.282 796.6 463.842 795.64C464.429 794.68 465.376 793.92 466.682 793.36C467.989 792.8 469.722 792.52 471.882 792.52H478.082V795.84H472.242C470.536 795.84 469.389 796.12 468.802 796.68C468.216 797.213 467.922 797.88 467.922 798.68C467.922 799.587 468.282 800.307 469.002 800.84C469.722 801.373 470.722 801.64 472.002 801.64C473.229 801.64 474.322 801.36 475.282 800.8C476.269 800.24 476.976 799.413 477.402 798.32L478.242 801.32C477.762 802.573 476.896 803.547 475.642 804.24C474.416 804.933 472.856 805.28 470.962 805.28ZM488.819 805V775.32H493.819V805H488.819ZM513.542 805V800.68L513.262 799.76V792.2C513.262 790.733 512.822 789.6 511.942 788.8C511.062 787.973 509.728 787.56 507.942 787.56C506.742 787.56 505.555 787.747 504.382 788.12C503.235 788.493 502.262 789.013 501.462 789.68L499.502 786.04C500.648 785.16 502.008 784.507 503.582 784.08C505.182 783.627 506.835 783.4 508.542 783.4C511.635 783.4 514.022 784.147 515.702 785.64C517.408 787.107 518.262 789.387 518.262 792.48V805H513.542ZM506.822 805.28C505.222 805.28 503.822 805.013 502.622 804.48C501.422 803.92 500.488 803.16 499.822 802.2C499.182 801.213 498.862 800.107 498.862 798.88C498.862 797.68 499.142 796.6 499.702 795.64C500.288 794.68 501.235 793.92 502.542 793.36C503.848 792.8 505.582 792.52 507.742 792.52H513.942V795.84H508.102C506.395 795.84 505.248 796.12 504.662 796.68C504.075 797.213 503.782 797.88 503.782 798.68C503.782 799.587 504.142 800.307 504.862 800.84C505.582 801.373 506.582 801.64 507.862 801.64C509.088 801.64 510.182 801.36 511.142 800.8C512.128 800.24 512.835 799.413 513.262 798.32L514.102 801.32C513.622 802.573 512.755 803.547 511.502 804.24C510.275 804.933 508.715 805.28 506.822 805.28ZM529.008 805L521.168 783.64H525.888L532.608 802.48H530.368L537.408 783.64H541.608L548.448 802.48H546.248L553.168 783.64H557.608L549.728 805H544.928L538.688 788.32H540.168L533.808 805H529.008ZM573.542 805V800.68L573.262 799.76V792.2C573.262 790.733 572.822 789.6 571.942 788.8C571.062 787.973 569.728 787.56 567.942 787.56C566.742 787.56 565.555 787.747 564.382 788.12C563.235 788.493 562.262 789.013 561.462 789.68L559.502 786.04C560.648 785.16 562.008 784.507 563.582 784.08C565.182 783.627 566.835 783.4 568.542 783.4C571.635 783.4 574.022 784.147 575.702 785.64C577.408 787.107 578.262 789.387 578.262 792.48V805H573.542ZM566.822 805.28C565.222 805.28 563.822 805.013 562.622 804.48C561.422 803.92 560.488 803.16 559.822 802.2C559.182 801.213 558.862 800.107 558.862 798.88C558.862 797.68 559.142 796.6 559.702 795.64C560.288 794.68 561.235 793.92 562.542 793.36C563.848 792.8 565.582 792.52 567.742 792.52H573.942V795.84H568.102C566.395 795.84 565.248 796.12 564.662 796.68C564.075 797.213 563.782 797.88 563.782 798.68C563.782 799.587 564.142 800.307 564.862 800.84C565.582 801.373 566.582 801.64 567.862 801.64C569.088 801.64 570.182 801.36 571.142 800.8C572.128 800.24 572.835 799.413 573.262 798.32L574.102 801.32C573.622 802.573 572.755 803.547 571.502 804.24C570.275 804.933 568.715 805.28 566.822 805.28ZM596.798 783.4C598.505 783.4 600.025 783.733 601.358 784.4C602.718 785.067 603.785 786.093 604.558 787.48C605.332 788.84 605.718 790.6 605.718 792.76V805H600.718V793.4C600.718 791.507 600.265 790.093 599.358 789.16C598.478 788.227 597.238 787.76 595.638 787.76C594.465 787.76 593.425 788 592.518 788.48C591.612 788.96 590.905 789.68 590.398 790.64C589.918 791.573 589.678 792.76 589.678 794.2V805H584.678V783.64H589.438V789.4L588.598 787.64C589.345 786.28 590.425 785.24 591.838 784.52C593.278 783.773 594.932 783.4 596.798 783.4Z" fill="white"/>
<path d="M192.76 513V485H205C208.04 485 210.707 485.587 213 486.76C215.293 487.933 217.08 489.56 218.36 491.64C219.64 493.72 220.28 496.173 220.28 499C220.28 501.8 219.64 504.253 218.36 506.36C217.08 508.44 215.293 510.067 213 511.24C210.707 512.413 208.04 513 205 513H192.76ZM197.96 508.6H204.76C206.867 508.6 208.68 508.2 210.2 507.4C211.747 506.6 212.933 505.48 213.76 504.04C214.613 502.6 215.04 500.92 215.04 499C215.04 497.053 214.613 495.373 213.76 493.96C212.933 492.52 211.747 491.4 210.2 490.6C208.68 489.8 206.867 489.4 204.76 489.4H197.96V508.6ZM235.367 513.28C232.994 513.28 230.914 512.813 229.127 511.88C227.367 510.92 225.994 509.613 225.007 507.96C224.047 506.307 223.567 504.427 223.567 502.32C223.567 500.187 224.034 498.307 224.967 496.68C225.927 495.027 227.234 493.733 228.887 492.8C230.567 491.867 232.474 491.4 234.607 491.4C236.687 491.4 238.54 491.853 240.167 492.76C241.794 493.667 243.074 494.947 244.007 496.6C244.94 498.253 245.407 500.2 245.407 502.44C245.407 502.653 245.394 502.893 245.367 503.16C245.367 503.427 245.354 503.68 245.327 503.92H227.527V500.6H242.687L240.727 501.64C240.754 500.413 240.5 499.333 239.967 498.4C239.434 497.467 238.7 496.733 237.767 496.2C236.86 495.667 235.807 495.4 234.607 495.4C233.38 495.4 232.3 495.667 231.367 496.2C230.46 496.733 229.74 497.48 229.207 498.44C228.7 499.373 228.447 500.48 228.447 501.76V502.56C228.447 503.84 228.74 504.973 229.327 505.96C229.914 506.947 230.74 507.707 231.807 508.24C232.874 508.773 234.1 509.04 235.487 509.04C236.687 509.04 237.767 508.853 238.727 508.48C239.687 508.107 240.54 507.52 241.287 506.72L243.967 509.8C243.007 510.92 241.794 511.787 240.327 512.4C238.887 512.987 237.234 513.28 235.367 513.28ZM256.81 513.28C255.023 513.28 253.303 513.053 251.65 512.6C250.023 512.12 248.73 511.547 247.77 510.88L249.69 507.08C250.65 507.693 251.796 508.2 253.13 508.6C254.463 509 255.796 509.2 257.13 509.2C258.703 509.2 259.836 508.987 260.53 508.56C261.25 508.133 261.61 507.56 261.61 506.84C261.61 506.253 261.37 505.813 260.89 505.52C260.41 505.2 259.783 504.96 259.01 504.8C258.236 504.64 257.37 504.493 256.41 504.36C255.476 504.227 254.53 504.053 253.57 503.84C252.636 503.6 251.783 503.267 251.01 502.84C250.236 502.387 249.61 501.787 249.13 501.04C248.65 500.293 248.41 499.307 248.41 498.08C248.41 496.72 248.796 495.547 249.57 494.56C250.343 493.547 251.423 492.773 252.81 492.24C254.223 491.68 255.89 491.4 257.81 491.4C259.25 491.4 260.703 491.56 262.17 491.88C263.636 492.2 264.85 492.653 265.81 493.24L263.89 497.04C262.876 496.427 261.85 496.013 260.81 495.8C259.796 495.56 258.783 495.44 257.77 495.44C256.25 495.44 255.116 495.667 254.37 496.12C253.65 496.573 253.29 497.147 253.29 497.84C253.29 498.48 253.53 498.96 254.01 499.28C254.49 499.6 255.116 499.853 255.89 500.04C256.663 500.227 257.516 500.387 258.45 500.52C259.41 500.627 260.356 500.8 261.29 501.04C262.223 501.28 263.076 501.613 263.85 502.04C264.65 502.44 265.29 503.013 265.77 503.76C266.25 504.507 266.49 505.48 266.49 506.68C266.49 508.013 266.09 509.173 265.29 510.16C264.516 511.147 263.41 511.92 261.97 512.48C260.53 513.013 258.81 513.28 256.81 513.28ZM283.956 513V508.68L283.676 507.76V500.2C283.676 498.733 283.236 497.6 282.356 496.8C281.476 495.973 280.142 495.56 278.356 495.56C277.156 495.56 275.969 495.747 274.796 496.12C273.649 496.493 272.676 497.013 271.876 497.68L269.916 494.04C271.062 493.16 272.422 492.507 273.996 492.08C275.596 491.627 277.249 491.4 278.956 491.4C282.049 491.4 284.436 492.147 286.116 493.64C287.822 495.107 288.676 497.387 288.676 500.48V513H283.956ZM277.236 513.28C275.636 513.28 274.236 513.013 273.036 512.48C271.836 511.92 270.902 511.16 270.236 510.2C269.596 509.213 269.276 508.107 269.276 506.88C269.276 505.68 269.556 504.6 270.116 503.64C270.702 502.68 271.649 501.92 272.956 501.36C274.262 500.8 275.996 500.52 278.156 500.52H284.356V503.84H278.516C276.809 503.84 275.662 504.12 275.076 504.68C274.489 505.213 274.196 505.88 274.196 506.68C274.196 507.587 274.556 508.307 275.276 508.84C275.996 509.373 276.996 509.64 278.276 509.64C279.502 509.64 280.596 509.36 281.556 508.8C282.542 508.24 283.249 507.413 283.676 506.32L284.516 509.32C284.036 510.573 283.169 511.547 281.916 512.24C280.689 512.933 279.129 513.28 277.236 513.28ZM306.627 513V485H311.827V508.6H326.467V513H306.627ZM330.093 513V491.64H335.093V513H330.093ZM332.613 488.12C331.679 488.12 330.906 487.827 330.293 487.24C329.706 486.653 329.413 485.947 329.413 485.12C329.413 484.267 329.706 483.56 330.293 483C330.906 482.413 331.679 482.12 332.613 482.12C333.546 482.12 334.306 482.4 334.893 482.96C335.506 483.493 335.813 484.173 335.813 485C335.813 485.88 335.519 486.627 334.933 487.24C334.346 487.827 333.573 488.12 332.613 488.12ZM354.815 513V508.68L354.535 507.76V500.2C354.535 498.733 354.095 497.6 353.215 496.8C352.335 495.973 351.002 495.56 349.215 495.56C348.015 495.56 346.828 495.747 345.655 496.12C344.508 496.493 343.535 497.013 342.735 497.68L340.775 494.04C341.922 493.16 343.282 492.507 344.855 492.08C346.455 491.627 348.108 491.4 349.815 491.4C352.908 491.4 355.295 492.147 356.975 493.64C358.682 495.107 359.535 497.387 359.535 500.48V513H354.815ZM348.095 513.28C346.495 513.28 345.095 513.013 343.895 512.48C342.695 511.92 341.762 511.16 341.095 510.2C340.455 509.213 340.135 508.107 340.135 506.88C340.135 505.68 340.415 504.6 340.975 503.64C341.562 502.68 342.508 501.92 343.815 501.36C345.122 500.8 346.855 500.52 349.015 500.52H355.215V503.84H349.375C347.668 503.84 346.522 504.12 345.935 504.68C345.348 505.213 345.055 505.88 345.055 506.68C345.055 507.587 345.415 508.307 346.135 508.84C346.855 509.373 347.855 509.64 349.135 509.64C350.362 509.64 351.455 509.36 352.415 508.8C353.402 508.24 354.108 507.413 354.535 506.32L355.375 509.32C354.895 510.573 354.028 511.547 352.775 512.24C351.548 512.933 349.988 513.28 348.095 513.28ZM378.072 491.4C379.779 491.4 381.299 491.733 382.632 492.4C383.992 493.067 385.059 494.093 385.832 495.48C386.605 496.84 386.992 498.6 386.992 500.76V513H381.992V501.4C381.992 499.507 381.539 498.093 380.632 497.16C379.752 496.227 378.512 495.76 376.912 495.76C375.739 495.76 374.699 496 373.792 496.48C372.885 496.96 372.179 497.68 371.672 498.64C371.192 499.573 370.952 500.76 370.952 502.2V513H365.952V491.64H370.712V497.4L369.872 495.64C370.619 494.28 371.699 493.24 373.112 492.52C374.552 491.773 376.205 491.4 378.072 491.4ZM403.054 521.04C401.08 521.04 399.147 520.773 397.254 520.24C395.387 519.733 393.854 518.987 392.654 518L394.894 514.24C395.827 515.013 397 515.627 398.414 516.08C399.854 516.56 401.307 516.8 402.774 516.8C405.12 516.8 406.84 516.253 407.934 515.16C409.027 514.093 409.574 512.48 409.574 510.32V506.52L409.974 501.68L409.814 496.84V491.64H414.574V509.76C414.574 513.627 413.587 516.467 411.614 518.28C409.64 520.12 406.787 521.04 403.054 521.04ZM402.414 512.04C400.387 512.04 398.547 511.613 396.894 510.76C395.267 509.88 393.974 508.667 393.014 507.12C392.08 505.573 391.614 503.76 391.614 501.68C391.614 499.627 392.08 497.827 393.014 496.28C393.974 494.733 395.267 493.533 396.894 492.68C398.547 491.827 400.387 491.4 402.414 491.4C404.227 491.4 405.854 491.76 407.294 492.48C408.734 493.2 409.88 494.32 410.734 495.84C411.614 497.36 412.054 499.307 412.054 501.68C412.054 504.053 411.614 506.013 410.734 507.56C409.88 509.08 408.734 510.213 407.294 510.96C405.854 511.68 404.227 512.04 402.414 512.04ZM403.174 507.8C404.427 507.8 405.547 507.547 406.534 507.04C407.52 506.507 408.28 505.787 408.814 504.88C409.374 503.947 409.654 502.88 409.654 501.68C409.654 500.48 409.374 499.427 408.814 498.52C408.28 497.587 407.52 496.88 406.534 496.4C405.547 495.893 404.427 495.64 403.174 495.64C401.92 495.64 400.787 495.893 399.774 496.4C398.787 496.88 398.014 497.587 397.454 498.52C396.92 499.427 396.654 500.48 396.654 501.68C396.654 502.88 396.92 503.947 397.454 504.88C398.014 505.787 398.787 506.507 399.774 507.04C400.787 507.547 401.92 507.8 403.174 507.8ZM432.682 513V485H445.802C449.162 485 451.722 485.667 453.482 487C455.242 488.307 456.122 490.067 456.122 492.28C456.122 493.773 455.775 495.053 455.082 496.12C454.389 497.16 453.455 497.973 452.282 498.56C451.135 499.12 449.882 499.4 448.522 499.4L449.242 497.96C450.815 497.96 452.229 498.253 453.482 498.84C454.735 499.4 455.722 500.227 456.442 501.32C457.189 502.413 457.562 503.773 457.562 505.4C457.562 507.8 456.642 509.667 454.802 511C452.962 512.333 450.229 513 446.602 513H432.682ZM437.882 508.92H446.282C448.229 508.92 449.722 508.6 450.762 507.96C451.802 507.32 452.322 506.293 452.322 504.88C452.322 503.493 451.802 502.48 450.762 501.84C449.722 501.173 448.229 500.84 446.282 500.84H437.482V496.8H445.242C447.055 496.8 448.442 496.48 449.402 495.84C450.389 495.2 450.882 494.24 450.882 492.96C450.882 491.653 450.389 490.68 449.402 490.04C448.442 489.4 447.055 489.08 445.242 489.08H437.882V508.92ZM471.672 513.28C469.858 513.28 468.258 512.947 466.872 512.28C465.485 511.587 464.405 510.547 463.632 509.16C462.858 507.747 462.472 505.973 462.472 503.84V491.64H467.472V503.16C467.472 505.08 467.898 506.52 468.752 507.48C469.632 508.413 470.872 508.88 472.472 508.88C473.645 508.88 474.658 508.64 475.512 508.16C476.392 507.68 477.072 506.96 477.552 506C478.058 505.04 478.312 503.853 478.312 502.44V491.64H483.312V513H478.552V507.24L479.392 509C478.672 510.387 477.618 511.453 476.232 512.2C474.845 512.92 473.325 513.28 471.672 513.28ZM501.978 491.4C503.685 491.4 505.205 491.733 506.538 492.4C507.898 493.067 508.965 494.093 509.738 495.48C510.511 496.84 510.898 498.6 510.898 500.76V513H505.898V501.4C505.898 499.507 505.445 498.093 504.538 497.16C503.658 496.227 502.418 495.76 500.818 495.76C499.645 495.76 498.605 496 497.698 496.48C496.791 496.96 496.085 497.68 495.578 498.64C495.098 499.573 494.858 500.76 494.858 502.2V513H489.858V491.64H494.618V497.4L493.778 495.64C494.525 494.28 495.605 493.24 497.018 492.52C498.458 491.773 500.111 491.4 501.978 491.4ZM518.61 521.04C517.57 521.04 516.53 520.867 515.49 520.52C514.45 520.173 513.584 519.693 512.89 519.08L514.89 515.4C515.397 515.853 515.97 516.213 516.61 516.48C517.25 516.747 517.904 516.88 518.57 516.88C519.477 516.88 520.21 516.653 520.77 516.2C521.33 515.747 521.85 514.987 522.33 513.92L523.57 511.12L523.97 510.52L532.05 491.64H536.85L526.85 514.72C526.184 516.32 525.437 517.587 524.61 518.52C523.81 519.453 522.904 520.107 521.89 520.48C520.904 520.853 519.81 521.04 518.61 521.04ZM523.01 513.76L513.37 491.64H518.57L526.41 510.08L523.01 513.76ZM549.015 513.28C547.202 513.28 545.602 512.947 544.215 512.28C542.829 511.587 541.749 510.547 540.975 509.16C540.202 507.747 539.815 505.973 539.815 503.84V491.64H544.815V503.16C544.815 505.08 545.242 506.52 546.095 507.48C546.975 508.413 548.215 508.88 549.815 508.88C550.989 508.88 552.002 508.64 552.855 508.16C553.735 507.68 554.415 506.96 554.895 506C555.402 505.04 555.655 503.853 555.655 502.44V491.64H560.655V513H555.895V507.24L556.735 509C556.015 510.387 554.962 511.453 553.575 512.2C552.189 512.92 550.669 513.28 549.015 513.28Z" fill="white"/>
<path d="M800 348C800 352.418 803.582 356 808 356C812.418 356 816 352.418 816 348C816 343.582 812.418 340 808 340C803.582 340 800 343.582 800 348ZM981.974 206V204.5H981.439L981.025 204.838L981.974 206ZM1171 206C1171 210.418 1174.58 214 1179 214C1183.42 214 1187 210.418 1187 206C1187 201.582 1183.42 198 1179 198C1174.58 198 1171 201.582 1171 206ZM808 348L808.948 349.162L982.922 207.162L981.974 206L981.025 204.838L807.052 346.838L808 348ZM981.974 206V207.5H1179V206V204.5H981.974V206Z" fill="#FFDCDC"/>
<path d="M1034 626C1034 630.418 1037.58 634 1042 634C1046.42 634 1050 630.418 1050 626C1050 621.582 1046.42 618 1042 618C1037.58 618 1034 621.582 1034 626ZM929.005 787V788.5H929.785L930.233 787.862L929.005 787ZM659 787C659 791.418 662.582 795 667 795C671.418 795 675 791.418 675 787C675 782.582 671.418 779 667 779C662.582 779 659 782.582 659 787ZM1042 626L1040.77 625.138L927.777 786.138L929.005 787L930.233 787.862L1043.23 626.862L1042 626ZM929.005 787V785.5H667V787V788.5H929.005V787Z" fill="white"/>
<path d="M1172 700C1172 704.418 1175.58 708 1180 708C1184.42 708 1188 704.418 1188 700C1188 695.582 1184.42 692 1180 692C1175.58 692 1172 695.582 1172 700ZM1294.02 815L1292.95 816.056L1293.39 816.5H1294.02V815ZM1403 815C1403 819.418 1406.58 823 1411 823C1415.42 823 1419 819.418 1419 815C1419 810.582 1415.42 807 1411 807C1406.58 807 1403 810.582 1403 815ZM1180 700L1178.93 701.056L1292.95 816.056L1294.02 815L1295.08 813.944L1181.07 698.944L1180 700ZM1294.02 815V816.5H1411V815V813.5H1294.02V815Z" fill="white"/>
<path d="M864 593C864 588.582 867.582 585 872 585C876.418 585 880 588.582 880 593C880 597.418 876.418 601 872 601C867.582 601 864 597.418 864 593ZM810.718 498V496.5H811.536L811.979 497.187L810.718 498ZM601 498C601 493.582 604.582 490 609 490C613.418 490 617 493.582 617 498C617 502.418 613.418 506 609 506C604.582 506 601 502.418 601 498ZM872 593L870.74 593.813L809.458 498.813L810.718 498L811.979 497.187L873.261 592.187L872 593ZM810.718 498V499.5H609V498V496.5H810.718V498Z" fill="white"/>
<defs>
<radialGradient id="paint0_radial_475_108" cx="0" cy="0" r="1" gradientUnits="userSpaceOnUse" gradientTransform="translate(-454.371 128.867) scale(2128.78 1551.59)">
<stop stop-color="#102431"/>
<stop offset="1" stop-color="#4498D0"/>
</radialGradient>
</defs>
</svg>
