<svg width="35" height="50" viewBox="0 0 35 50" fill="none" xmlns="http://www.w3.org/2000/svg">
<path d="M33.3712 10C35.9266 15.425 35.3447 21.825 32.5362 27.025C30.1579 31.25 26.7422 34.825 23.8325 38.75C22.5674 40.5 21.3023 42.375 20.3662 44.4C20.0373 45.075 19.8096 45.775 19.5565 46.475C19.3035 47.175 19.0758 47.875 18.8481 48.575C18.6204 49.225 18.3421 50 17.5071 50C16.5204 50 16.242 48.9 16.0396 48.15C15.4324 46.325 14.8252 44.575 13.889 42.9C12.8263 40.925 11.4854 39.1 10.1191 37.325L33.3712 10ZM10.2203 16.05L1.87077 25.85C3.41416 29.075 5.7166 31.825 7.91784 34.575C8.44917 35.2 8.9805 35.85 9.48653 36.525L20.0373 24.175L19.9361 24.2C16.242 25.45 12.1432 23.6 10.6757 20C10.4733 19.575 10.3215 19.075 10.2203 18.575C10.0787 17.7475 10.0787 16.9025 10.2203 16.075V16.05ZM3.79369 6.55L3.76839 6.575C-0.330462 11.7 -1.03891 18.825 1.41534 24.85L11.5107 13L11.3841 12.875L3.79369 6.55ZM23.1241 0.9L14.977 10.425L15.0782 10.4C18.4686 9.25 22.2638 10.7 23.9843 13.75C24.3638 14.45 24.6674 15.2 24.7687 15.95C24.9205 16.9 24.9711 17.575 24.794 18.5V18.525L32.8904 9.025C30.7718 5.22533 27.3002 2.33866 23.1494 0.925L23.1241 0.9ZM12.1685 12.225L22.0614 0.6L21.9602 0.575C20.4927 0.2 18.9999 0 17.5071 0C12.5227 0 7.81663 2.125 4.47683 5.775L4.42622 5.8L12.1685 12.225Z" fill="white"/>
</svg>
