<svg width="80" height="80" viewBox="0 0 80 80" fill="none" xmlns="http://www.w3.org/2000/svg">
<path d="M40 0C18 0 0 18.0321 0 40.241C0 60.3213 14.64 76.988 33.76 80V51.8876H23.6V40.241H33.76V31.3655C33.76 21.2851 39.72 15.743 48.8799 15.743C53.2399 15.743 57.7999 16.506 57.7999 16.506V26.4257H52.7599C47.7999 26.4257 46.2399 29.5181 46.2399 32.6908V40.241H57.3599L55.5599 51.8876H46.2399V80C55.6657 78.5054 64.2487 73.6768 70.4396 66.3858C76.6305 59.0948 80.0213 49.8219 79.9999 40.241C79.9999 18.0321 61.9999 0 40 0Z" fill="white"/>
</svg>
