<svg width="80" height="80" viewBox="0 0 80 80" fill="none" xmlns="http://www.w3.org/2000/svg">
<circle cx="40" cy="40" r="40" fill="#D9D9D9"/>
<path d="M42.57 15C45.3824 15.0075 46.8098 15.0225 48.0423 15.0575L48.5272 15.075C49.0872 15.095 49.6397 15.12 50.3071 15.15C52.967 15.275 54.7819 15.695 56.3743 16.3125C58.0243 16.9475 59.4142 17.8074 60.8041 19.1949C62.0758 20.4442 63.0595 21.956 63.6865 23.6248C64.3039 25.2173 64.7239 27.0322 64.8489 29.6946C64.8789 30.3596 64.9039 30.9121 64.9239 31.4746L64.9389 31.9596C64.9764 33.1896 64.9914 34.617 64.9964 37.4295L64.9989 39.2944V42.5693C65.005 44.3928 64.9858 46.2163 64.9414 48.0392L64.9264 48.5242C64.9064 49.0867 64.8814 49.6392 64.8514 50.3041C64.7264 52.9666 64.3014 54.779 63.6865 56.374C63.0595 58.0428 62.0758 59.5546 60.8041 60.8039C59.5548 62.0756 58.0431 63.0593 56.3743 63.6863C54.7819 64.3038 52.967 64.7238 50.3071 64.8488L48.5272 64.9238L48.0423 64.9388C46.8098 64.9738 45.3824 64.9913 42.57 64.9963L40.7051 64.9988H37.4328C35.6085 65.0052 33.7843 64.9861 31.9606 64.9413L31.4756 64.9263C30.8821 64.9038 30.2888 64.878 29.6957 64.8488C27.0358 64.7238 25.2209 64.3038 23.626 63.6863C21.9581 63.059 20.4473 62.0753 19.1987 60.8039C17.9261 59.5548 16.9416 58.043 16.3139 56.374C15.6964 54.7815 15.2764 52.9666 15.1514 50.3041L15.0764 48.5242L15.0639 48.0392C15.0178 46.2163 14.997 44.3928 15.0014 42.5693V37.4295C14.9945 35.606 15.0128 33.7825 15.0564 31.9596L15.0739 31.4746C15.0939 30.9121 15.1189 30.3596 15.1489 29.6946C15.2739 27.0322 15.6939 25.2198 16.3114 23.6248C16.9406 21.9553 17.9268 20.4435 19.2012 19.1949C20.449 17.9238 21.959 16.9401 23.626 16.3125C25.2209 15.695 27.0333 15.275 29.6957 15.15C30.3606 15.12 30.9156 15.095 31.4756 15.075L31.9606 15.06C33.7835 15.0156 35.6069 14.9964 37.4303 15.0025L42.57 15ZM40.0002 27.4997C36.6851 27.4997 33.5059 28.8166 31.1618 31.1608C28.8177 33.5049 27.5008 36.6843 27.5008 39.9994C27.5008 43.3145 28.8177 46.4939 31.1618 48.838C33.5059 51.1822 36.6851 52.4991 40.0002 52.4991C43.3152 52.4991 46.4945 51.1822 48.8385 48.838C51.1826 46.4939 52.4995 43.3145 52.4995 39.9994C52.4995 36.6843 51.1826 33.5049 48.8385 31.1608C46.4945 28.8166 43.3152 27.4997 40.0002 27.4997ZM40.0002 32.4996C40.985 32.4994 41.9603 32.6932 42.8702 33.07C43.7802 33.4467 44.607 33.999 45.3036 34.6953C46.0001 35.3916 46.5526 36.2183 46.9297 37.1282C47.3067 38.038 47.5009 39.0133 47.501 39.9981C47.5012 40.983 47.3074 41.9583 46.9306 42.8683C46.5539 43.7783 46.0016 44.6051 45.3053 45.3017C44.609 45.9982 43.7824 46.5508 42.8725 46.9278C41.9627 47.3049 40.9875 47.4991 40.0027 47.4992C38.0136 47.4992 36.1061 46.7091 34.6996 45.3026C33.2932 43.8961 32.503 41.9885 32.503 39.9994C32.503 38.0103 33.2932 36.1027 34.6996 34.6962C36.1061 33.2897 38.0136 32.4996 40.0027 32.4996M53.127 23.7498C52.2982 23.7498 51.5034 24.079 50.9174 24.6651C50.3314 25.2511 50.0022 26.0459 50.0022 26.8747C50.0022 27.7035 50.3314 28.4983 50.9174 29.0844C51.5034 29.6704 52.2982 29.9996 53.127 29.9996C53.9558 29.9996 54.7506 29.6704 55.3366 29.0844C55.9226 28.4983 56.2518 27.7035 56.2518 26.8747C56.2518 26.0459 55.9226 25.2511 55.3366 24.6651C54.7506 24.079 53.9558 23.7498 53.127 23.7498Z" fill="#061E0C"/>
</svg>
