<svg width="305" height="80" viewBox="0 0 305 80" fill="none" xmlns="http://www.w3.org/2000/svg">
<circle cx="150" cy="40" r="40" fill="#D9D9D9"/>
<circle cx="265" cy="40" r="40" fill="#D9D9D9"/>
<path d="M40 0C18 0 0 18.0321 0 40.241C0 60.3213 14.64 76.988 33.76 80V51.8876H23.6V40.241H33.76V31.3655C33.76 21.2851 39.72 15.743 48.8799 15.743C53.2399 15.743 57.7999 16.506 57.7999 16.506V26.4257H52.7599C47.7999 26.4257 46.2399 29.5181 46.2399 32.6908V40.241H57.3599L55.5599 51.8876H46.2399V80C55.6657 78.5054 64.2487 73.6768 70.4396 66.3858C76.6305 59.0948 80.0213 49.8219 79.9999 40.241C79.9999 18.0321 61.9999 0 40 0Z" fill="white"/>
<path d="M152.57 15C155.382 15.0075 156.81 15.0225 158.042 15.0575L158.527 15.075C159.087 15.095 159.64 15.12 160.307 15.15C162.967 15.275 164.782 15.695 166.374 16.3125C168.024 16.9475 169.414 17.8074 170.804 19.1949C172.076 20.4442 173.059 21.956 173.686 23.6248C174.304 25.2173 174.724 27.0322 174.849 29.6946C174.879 30.3596 174.904 30.9121 174.924 31.4746L174.939 31.9596C174.976 33.1896 174.991 34.617 174.996 37.4295L174.999 39.2944V42.5693C175.005 44.3928 174.986 46.2163 174.941 48.0392L174.926 48.5242C174.906 49.0867 174.881 49.6392 174.851 50.3041C174.726 52.9666 174.301 54.779 173.686 56.374C173.059 58.0428 172.076 59.5546 170.804 60.8039C169.555 62.0756 168.043 63.0593 166.374 63.6863C164.782 64.3038 162.967 64.7238 160.307 64.8488L158.527 64.9238L158.042 64.9388C156.81 64.9738 155.382 64.9913 152.57 64.9963L150.705 64.9988H147.433C145.609 65.0052 143.784 64.9861 141.961 64.9413L141.476 64.9263C140.882 64.9038 140.289 64.878 139.696 64.8488C137.036 64.7238 135.221 64.3038 133.626 63.6863C131.958 63.059 130.447 62.0753 129.199 60.8039C127.926 59.5548 126.942 58.043 126.314 56.374C125.696 54.7815 125.276 52.9666 125.151 50.3041L125.076 48.5242L125.064 48.0392C125.018 46.2163 124.997 44.3928 125.001 42.5693V37.4295C124.995 35.606 125.013 33.7825 125.056 31.9596L125.074 31.4746C125.094 30.9121 125.119 30.3596 125.149 29.6946C125.274 27.0322 125.694 25.2198 126.311 23.6248C126.941 21.9553 127.927 20.4435 129.201 19.1949C130.449 17.9238 131.959 16.9401 133.626 16.3125C135.221 15.695 137.033 15.275 139.696 15.15C140.361 15.12 140.916 15.095 141.476 15.075L141.961 15.06C143.783 15.0156 145.607 14.9964 147.43 15.0025L152.57 15ZM150 27.4997C146.685 27.4997 143.506 28.8166 141.162 31.1608C138.818 33.5049 137.501 36.6843 137.501 39.9994C137.501 43.3145 138.818 46.4939 141.162 48.838C143.506 51.1822 146.685 52.4991 150 52.4991C153.315 52.4991 156.494 51.1822 158.839 48.838C161.183 46.4939 162.5 43.3145 162.5 39.9994C162.5 36.6843 161.183 33.5049 158.839 31.1608C156.494 28.8166 153.315 27.4997 150 27.4997ZM150 32.4996C150.985 32.4994 151.96 32.6932 152.87 33.07C153.78 33.4467 154.607 33.999 155.304 34.6953C156 35.3916 156.553 36.2183 156.93 37.1282C157.307 38.038 157.501 39.0133 157.501 39.9981C157.501 40.983 157.307 41.9583 156.931 42.8683C156.554 43.7783 156.002 44.6051 155.305 45.3017C154.609 45.9982 153.782 46.5508 152.873 46.9278C151.963 47.3049 150.988 47.4991 150.003 47.4992C148.014 47.4992 146.106 46.7091 144.7 45.3026C143.293 43.8961 142.503 41.9885 142.503 39.9994C142.503 38.0103 143.293 36.1027 144.7 34.6962C146.106 33.2897 148.014 32.4996 150.003 32.4996M163.127 23.7498C162.298 23.7498 161.503 24.079 160.917 24.6651C160.331 25.2511 160.002 26.0459 160.002 26.8747C160.002 27.7035 160.331 28.4983 160.917 29.0844C161.503 29.6704 162.298 29.9996 163.127 29.9996C163.956 29.9996 164.751 29.6704 165.337 29.0844C165.923 28.4983 166.252 27.7035 166.252 26.8747C166.252 26.0459 165.923 25.2511 165.337 24.6651C164.751 24.079 163.956 23.7498 163.127 23.7498Z" fill="#061E0C"/>
<path d="M260 48.1429L274.272 40L260 31.8571V48.1429ZM291.79 26.89C292.147 28.1657 292.395 29.8757 292.56 32.0471C292.752 34.2186 292.835 36.0914 292.835 37.72L293 40C293 45.9443 292.56 50.3143 291.79 53.11C291.102 55.5529 289.507 57.1271 287.033 57.8057C285.74 58.1586 283.375 58.4029 279.745 58.5657C276.17 58.7557 272.897 58.8371 269.873 58.8371L265.5 59C253.977 59 246.8 58.5657 243.968 57.8057C241.493 57.1271 239.898 55.5529 239.21 53.11C238.853 51.8343 238.605 50.1243 238.44 47.9529C238.248 45.7814 238.165 43.9086 238.165 42.28L238 40C238 34.0557 238.44 29.6857 239.21 26.89C239.898 24.4471 241.493 22.8729 243.968 22.1943C245.26 21.8414 247.625 21.5971 251.255 21.4343C254.83 21.2443 258.102 21.1629 261.127 21.1629L265.5 21C277.022 21 284.2 21.4343 287.033 22.1943C289.507 22.8729 291.102 24.4471 291.79 26.89Z" fill="#061E0C"/>
</svg>
