<svg width="80" height="80" viewBox="0 0 80 80" fill="none" xmlns="http://www.w3.org/2000/svg">
<circle cx="40" cy="40" r="40" fill="#D9D9D9"/>
<path d="M35 48.1429L49.2725 40L35 31.8571V48.1429ZM66.79 26.89C67.1475 28.1657 67.395 29.8757 67.56 32.0471C67.7525 34.2186 67.835 36.0914 67.835 37.72L68 40C68 45.9443 67.56 50.3143 66.79 53.11C66.1025 55.5529 64.5075 57.1271 62.0325 57.8057C60.74 58.1586 58.375 58.4029 54.745 58.5657C51.17 58.7557 47.8975 58.8371 44.8725 58.8371L40.5 59C28.9775 59 21.8 58.5657 18.9675 57.8057C16.4925 57.1271 14.8975 55.5529 14.21 53.11C13.8525 51.8343 13.605 50.1243 13.44 47.9529C13.2475 45.7814 13.165 43.9086 13.165 42.28L13 40C13 34.0557 13.44 29.6857 14.21 26.89C14.8975 24.4471 16.4925 22.8729 18.9675 22.1943C20.26 21.8414 22.625 21.5971 26.255 21.4343C29.83 21.2443 33.1025 21.1629 36.1275 21.1629L40.5 21C52.0225 21 59.2 21.4343 62.0325 22.1943C64.5075 22.8729 66.1025 24.4471 66.79 26.89Z" fill="#061E0C"/>
</svg>
