<?xml version="1.0" encoding="utf-8"?>
<!-- Generator: Adobe Illustrator 25.0.1, SVG Export Plug-In . SVG Version: 6.00 Build 0)  -->
<svg version="1.1"
	 id="Layer_1" xmlns:cc="http://creativecommons.org/ns#" xmlns:inkscape="http://www.inkscape.org/namespaces/inkscape"
	 xmlns="http://www.w3.org/2000/svg" xmlns:xlink="http://www.w3.org/1999/xlink" x="0px" y="0px" viewBox="0 0 841.7 595.2"
	 style="enable-background:new 0 0 841.7 595.2;" xml:space="preserve">
<style type="text/css">
	.st0{fill-rule:evenodd;clip-rule:evenodd;fill:url(#SVGID_1_);}
</style>
<linearGradient id="SVGID_1_" gradientUnits="userSpaceOnUse" x1="-45.6822" y1="602.883" x2="-45.2822" y2="602.083" gradientTransform="matrix(508.489 0 0 -237.1256 23500.334 143023.0625)">
	<stop  offset="0" style="stop-color:#102431"/>
	<stop  offset="1" style="stop-color:#316E97"/>
</linearGradient>
<path vector-effect="none" class="st0" d="M630.1,174l-0.1,1l-0.3,3.1l-1.6,18.4l-1.1,14.6l-1.2,16.7l-0.5,20.8l14,16l22.7,26.6
	l2.4,6.9l-9.9,4.4l-9.6,4.8l-5.7,3.4l-14.1,4.3l-16.7,5.7l-14.1,4.5l-21.5-0.5l-15.6-2.2l-1.1-0.2l-30.1,4.1l-3.6,0.2l-2.6,0.2
	l-2.6,0.5l-1,0.5l-3.9,0.3l-2.1,0.8l-4.7,1.2l-5.2,2.8l-4.3-0.2l-1,0.3l0,0l-6.1,3.2l-7.5,3.5l-7.8,2.8l-7.1,2.9l-0.9,0.2l-10.2,4.3
	l0,1.1l0.2,0.3l0.1,0.3l0,0.7l-0.2,1.2l-0.2,1.2l-0.4,1.5l-1.7,5.2l-0.3,0.8l-0.5,1.4l-0.4,1.1l-0.3,1l-0.6,1.6l-0.5,1.3l-0.2,0.4
	l-0.8,1.6l-0.8,1.7l-0.3,0.7l-0.3,1.3l-0.5,2.1l-0.2,0.6l-0.2,0.7l-0.3,0.8l-0.6,1.1l-0.5,1l-0.5,0.8l-1.5,2.2l-0.3,0.4l-1,1.3
	l-1.2,1.5l-0.6,0.7l-0.5,0.4l-0.4,0.4l-0.4,0.3l-0.4,0.3l-0.5,0.3l-0.3,0.2l-0.5,0.2l-0.9,0.4l-2.5,1.1l-2.5,1.2l-1.8,0.8l-1.8,0.8
	l-3.8,1.5l-1.5,0.6l-1.9,0.8l-0.9,0.4l-0.5,0.3l-1,0.8l-1.4,0.8l-6,8l-2.8,3.7l-5-6.3l-5-6.3l-3.6-4.7l-1.4-2.7l-0.9-2.5l-0.7-2.9
	l-0.5-2.7l-0.5-1.6l-1.8-2.7l-3.6-4.3l-4.3-5l-4.3-5l-5-5.7l-5-5.7l-4.5-4.7l-4.5-4.7l-2.8-2.9l-1.4-1.5l-0.3-0.3l-4.5-4.7l-4.7-4.2
	l-4.7-4.2l-1.9-2.2l-3.7-4.2l-4.2-4.3l-4.2-4.3l-4.2-4.3l-8.5-7.2l-3.3-2.7l-1.1-0.9l-4.4-3.6l-4.4-1.7l-0.6-0.6l-0.6-0.6l-0.5-0.7
	l-0.5-0.7l-0.5-0.7l-0.5-0.7l-0.5-0.7l-0.5-0.7l-0.5-0.7l-0.5-0.7l-0.5-0.7l-0.5-0.7l-0.3-0.5l-0.1-0.2l-0.5-0.7l-0.5-0.7l-0.5-0.7
	l-0.5-0.6l-0.7-0.4l-0.7-0.4l-0.7-0.4l-0.7-0.4l-0.7-0.4l-0.7-0.4l-0.4-0.3l-0.3-0.2l-0.7-0.4l-0.7-0.4l-0.7-0.5l-0.7-0.5l-0.7-0.5
	l-0.7-0.5l-0.7-0.5l-0.7-0.5l-0.7-0.5l-0.7-0.5l-0.7-0.5l-0.7-0.5l-0.7-0.5l-0.7-0.5l-0.7-0.5l-0.7-0.5l-0.7-0.5l-0.7-0.5l-0.7-0.5
	l-0.7-0.5l-0.3-0.2l-0.4-0.3l-0.7-0.5l-0.7-0.5l-0.7-0.5l0,0l-0.7-0.5l-0.7-0.5l-0.7-0.5l-0.7-0.5l-0.7-0.5l-0.7-0.5l-0.7-0.5
	l-0.7-0.5l-0.7-0.5l-0.7-0.5l-0.7-0.5l-0.7-0.5l-0.7-0.5l-0.7-0.5l-0.7-0.5l-0.7-0.5l-0.7-0.5l-0.7-0.5l-0.7-0.5l-0.7-0.5l-0.7-0.5
	l-0.7-0.5l-0.7-0.5l-0.7-0.5L253,251l-0.7-0.5l-0.7-0.5l-0.7-0.5l-0.7-0.5l-0.7-0.5l-0.7-0.5l-0.7-0.5l-0.7-0.5l-0.7-0.5l-0.7-0.5
	l-0.7-0.5l-0.7-0.5l-0.7-0.5l-0.7-0.5l-0.7-0.5l-0.7-0.5l-0.7-0.5l-0.7-0.5l-0.7-0.5l-0.7-0.5l-0.7-0.5l-0.7-0.5l-0.7-0.5l-0.7-0.5
	l-0.7-0.5l-0.7-0.5l-0.7-0.5l-0.7-0.5l-0.7-0.5l-0.7-0.5l-0.7-0.5l-0.7-0.5l-0.7-0.5l-0.7-0.5l-0.7-0.5l-0.7-0.5l-0.7-0.5l-0.7-0.5
	l-0.7-0.5l-0.7-0.5l-0.7-0.5l-0.4-0.3l-0.2-0.2l-0.7-0.5l-0.7-0.5l-0.7-0.5l-0.7-0.5l-0.7-0.5l-0.7-0.5l-0.7-0.5l-0.7-0.5l-0.7-0.5
	l-0.7-0.5l-0.7-0.5l-0.7-0.5l-0.7-0.5l-0.7-0.5l-0.7-0.5l-0.7-0.5l-0.7-0.5l-0.7-0.5l-0.7-0.5l-0.7-0.5l-0.7-0.5l-0.7-0.5l-0.7-0.5
	l-0.7-0.5l-0.2-0.1l-0.5-0.4l-0.6-0.6l-0.6-0.6l-0.6-0.6l-0.6-0.6l-0.6-0.6l-0.6-0.6L203,213l-0.6-0.6l-0.6-0.6l-0.6-0.6l-0.6-0.5
	l-0.8-0.4l-0.8-0.3l-0.8-0.3l-0.8-0.3l-0.8-0.3l-0.8-0.3l-0.8-0.3l-0.8-0.3l-0.8-0.3l-0.8-0.3l-0.8-0.2l-0.8-0.2l-0.8-0.2l-0.8-0.2
	l-0.8-0.2L188,207l-0.6-0.1l-0.8-0.2l-0.8-0.2l-0.8-0.2l-0.8-0.2l-0.8-0.2l-0.8-0.2l-0.2-0.8l-0.1-0.8l-0.1-0.8l-0.1-0.8l-0.1-0.8
	l0-0.3l-0.1-0.6l-0.1-0.8l-0.1-0.8l-0.1-0.8l-0.2-0.8l-0.2-0.8l-0.2-0.8l-0.2-0.8l-0.2-0.8l-1.6-4.5l-0.7-0.5l-0.7-0.5l-0.7-0.5
	l-0.7-0.5l-0.7-0.5l-0.7-0.5l-0.7-0.5l-0.7-0.5l-0.7-0.5l-0.8-0.4l-0.8-0.2l-0.8-0.2l-0.8-0.2l-0.1,0l-0.7-0.2l-0.7-0.4l-0.4-0.3
	l-0.3-0.2l-0.7-0.5l-0.7-0.5l-0.7-0.5l-0.7-0.5l-0.7-0.5l-0.7-0.5l-0.7-0.5l-0.7-0.5l-0.7-0.5l-0.7-0.5l-0.7-0.5l-0.7-0.5l-0.7-0.5
	l-0.7-0.5l-0.7-0.5l-0.4-0.3l-0.8-0.7h0l1,0l0.3,0l10.8,0h0.1l128.5-0.1l8.9,0l16.3,0l242.6-0.2L630.1,174"/>
</svg>
