<?xml version="1.0" encoding="utf-8"?>
<!-- Generator: Adobe Illustrator 25.0.1, SVG Export Plug-In . SVG Version: 6.00 Build 0)  -->
<svg version="1.1"
	 id="Layer_1" xmlns:cc="http://creativecommons.org/ns#" xmlns:inkscape="http://www.inkscape.org/namespaces/inkscape"
	 xmlns="http://www.w3.org/2000/svg" xmlns:xlink="http://www.w3.org/1999/xlink" x="0px" y="0px" viewBox="0 0 841.7 595.2"
	 style="enable-background:new 0 0 841.7 595.2;" xml:space="preserve">
<style type="text/css">
	.st0{fill-rule:evenodd;clip-rule:evenodd;fill:url(#SVGID_1_);}
</style>
<linearGradient id="SVGID_1_" gradientUnits="userSpaceOnUse" x1="-45.8354" y1="602.7339" x2="-45.4354" y2="601.934" gradientTransform="matrix(310.175 0 0 -366.3714 14494.6396 220803.6406)">
	<stop  offset="0" style="stop-color:#102431"/>
	<stop  offset="1" style="stop-color:#316E97"/>
</linearGradient>
<path vector-effect="none" class="st0" d="M275.1,390.8l0.4-0.3l1.1-0.6l1-0.4l2.3-0.5l2.4-0.7l1.8-0.7l1.9-1.1l1.9-1.1l0.6-0.6
	l0.9-1l0.6-0.8l0.4-0.8l0.1-1v-0.7l0.2-0.8l0.7-1.2l0-0.7l0-0.7l-0.2-0.8l-0.5-1.1l-0.4-0.9l-1.5-2L288,371l-0.2-0.7l0-2.3l-0.1-3.9
	l0.5-7.6l0.3-2.7l0.7-1.4l5-6.7l2-2.3l0.9-1.7l1.4-3.4l0.9-1.1v-1.5l0.6-2.7l0.8-2.4l0-2.6l-1-2.8l-1.4-2.3l-1.3-1.9l-0.8-1.5v-1.6
	l0.9-1.8l0.3-1.2l0-1.7l-0.6-2.2l-0.6-1.7l0-1.1l0-2.5l0.3-4.6l0-2.5l0.5-1.4l1.5-1l1.6-0.7l1.4-1.3l1-1.5l2.1-1.5l1.2-1.2l0.5-1.7
	l0.2-1.7l0.2-2l0.9-1.7l1.4-1.3l2-0.6l2.7-0.2l2.6,0.1l2.7,0.2l1.4-0.4l1.5-1.2l0.7-1.5l1.4-7.9l0.3-3.3l1.7-4.4l0.5-5.5l2.2-7.7
	l0.5-5.5l1.1-4.9l2-2.7l1.3-1.7l3.8-1.6l3.3-1.6l2.7-3.3l0.5-3.8l0.6-6.6l2.7-6.6l0.6-7.1l-0.5-7.1l-4.9-12.6l-11-25.8l-8.8-27.2
	l-2.6-8.1l-2.6-8.1l22.6,10.2l20.4,13.6l17.7,8.6l5.9,2.9l16.2,7.7l27.4,18l35.6,11.5l34.8,12.4l20.1,9.4l28.8,8.8l2,1.1l24.4,13.9
	l2.9,1.6l0,0l-0.5,1.4l-12.3,33.9l-20.6,55.3l-22,61.1l-16.1,42.7l-10,28.5l-56.6-11.6l-2.7,0.1l-2.6,0.4l-5.1,0.1l0.2-0.5l0.6-0.2
	l1.1-0.1l0.4-0.6l0-1.2l1.3-1.2l0.3-1.5l-2.6,0.3l-4.5-6l3.6-7l-5.1-2.9l-1.4,1.7l-2.4,4.9l-1.7,0.2l-1.6,4.5l-6.6-1.1l-0.6-1
	l-1-0.3l-19.7-9.7L376,447.6l-0.8,2.8l-8.5,30.4l-4.8-3.6l-6.1-3.6l-2.9-2.3l-2-1.4l-1.7-1.7l-5-3l-2.8-2.3l-4.8-3.8l-1.1-1.3
	l-2.7,1l-3.3,0.4l-2.1-1.6l1.5-2l-2.7-1.1l0.2-2.3l-2.3-3.3l-2.1-1.3l-2-0.9l-1.4-0.8l-1.6-1.1l-0.3-0.6l-1.1-0.9l-4.3-1.6l-3.6-2.6
	l-4.7-3l-3.2-0.7l-3.8-2.9l-1.9-1.4l-2.3-1l-3-2.2l-2.7-2.5l-2-2.1l-0.9-2.3l-2.6-1.1l0.3-2.9l-0.3-1.3l0-0.8l0-0.7l0.1-0.5
	l-2.4-0.1l-0.9-0.1l-0.5-0.9l-0.5-0.7l-0.6-0.9l-0.5-0.7l-1.4-0.6l-1-0.9l-1.2-0.6l-1.7-1.6l-0.6-1.3l-1-1.7l-1-0.8l-1.7-2
	L275.1,390.8"/>
</svg>
