<?xml version="1.0" encoding="utf-8"?>
<!-- Generator: Adobe Illustrator 25.0.1, SVG Export Plug-In . SVG Version: 6.00 Build 0)  -->
<svg version="1.1"
	 id="Layer_1" xmlns:cc="http://creativecommons.org/ns#" xmlns:inkscape="http://www.inkscape.org/namespaces/inkscape"
	 xmlns="http://www.w3.org/2000/svg" xmlns:xlink="http://www.w3.org/1999/xlink" x="0px" y="0px" viewBox="0 0 841.7 595.2"
	 style="enable-background:new 0 0 841.7 595.2;" xml:space="preserve">
<style type="text/css">
	.st0{fill-rule:evenodd;clip-rule:evenodd;fill:url(#SVGID_1_);}
</style>
<linearGradient id="SVGID_1_" gradientUnits="userSpaceOnUse" x1="-45.6579" y1="602.9011" x2="-45.2579" y2="602.1011" gradientTransform="matrix(324.2684 0 0 -301.1884 15108.7139 181607.6562)">
	<stop  offset="0" style="stop-color:#102431"/>
	<stop  offset="1" style="stop-color:#316E97"/>
</linearGradient>
<path vector-effect="none" class="st0" d="M501,448.2l-5.2-3.8l-36-27.4l-7.8,2.3l-9.9-1.9l-0.8-9.1l-15.7-3.3l-48.6-41.7l-0.2-8.2
	l-1.3-1.3l-5.4-2.8l-2.5-2.2l-2.4-2.4l-4.7-3.6l-5.8-4.4l-2.4-2.2l-2.4-1.8l-2.5-2l-2.2-1.1l-2.7-1.1l-3.3-1.3l-0.5-0.2l-1.9-0.7
	l-0.7-0.5l-1.3-0.9l-1.8-1.1l-2.7-0.9l-9.3-5.4l-2.5-2l-2.4-2l-2.5-1.6l-1-0.4l-0.8-0.3l-2.4-0.9l-2.4-1.6l-1-1.3l-1-1.4l-3.6-3.5
	l-2.5-1.8l-1.3-1.1l-1.1-1.5l-1.1-0.7l-0.4-0.2l-3.1-1.8l-1.5-1.3l-1.1-1.3l-0.7-1.5l-0.3-0.7l-0.4-1.1l-0.4-1.3l-2-2.5l-1.5-1.2
	l-4.5-3.7l-4.5-4.5l-4.7-5.1l-1-1.1l-2.8-3.1l-3.8-4.2l-3.8-4.3h0l2.8-3.7l6-8l1.4-0.8l1-0.8l0.5-0.3l0.9-0.4l1.9-0.8l1.5-0.6
	l3.8-1.5l1.8-0.8l1.8-0.8l2.5-1.2l2.5-1.1l0.9-0.4l0.5-0.2l0.3-0.2l0.5-0.3l0.4-0.3l0.4-0.3l0.4-0.4l0.5-0.5l0.6-0.7l1.2-1.5l1-1.3
	l0.3-0.4l1.5-2.2l0.5-0.8l0.5-1l0.6-1.1l0.3-0.8l0.2-0.7l0.2-0.6l0.5-2.1l0.3-1.3l0.3-0.7l0.8-1.7l0.8-1.6l0.2-0.4l0.5-1.3l0.6-1.6
	l0.3-1l0.4-1.1l0.5-1.4l0.3-0.8l1.7-5.2l0.4-1.5l0.2-1.2l0.2-1.2l0-0.7l-0.1-0.3l-0.2-0.3l0-1.1l10.2-4.3l0.9-0.2l7.1-2.9l7.8-2.8
	l7.5-3.5l6.1-3.2l0,0l1-0.3l4.3,0.2l5.2-2.8l4.7-1.2l2.1-0.9l3.9-0.3l1-0.5l2.6-0.5l2.6-0.2l3.6-0.2l30.1-4.1l1.1,0.2l15.6,2.2
	l21.5,0.5l14.1-4.5l16.7-5.7l14.1-4.3l5.7-3.4l9.6-4.8l9.9-4.4l38.1,14.8l2.6,8.1l2.6,8.1l8.8,27.2l11,25.8l4.9,12.6l0.5,7.1
	l-0.6,7.1l-2.7,6.6l-0.5,6.6l-0.5,3.8l-2.7,3.3l-3.3,1.6l-3.8,1.6l-1.3,1.7l-2,2.7l-1.1,4.9l-0.5,5.5l-2.2,7.7l-0.5,5.5l-1.7,4.4
	l-0.3,3.3l-1.4,7.9l-0.7,1.5l-1.5,1.2l-1.4,0.5l-2.7-0.2l-2.6-0.1l-2.7,0.2l-2,0.6l-1.4,1.3l-0.9,1.7l-0.2,2l-0.2,1.7l-0.5,1.7
	l-1.2,1.2l-2.1,1.5l-1,1.5l-1.4,1.3l-1.6,0.7l-1.5,1l-0.5,1.4l0,2.5l-0.3,4.6l0,2.5l0,1.1l0.6,1.7l0.6,2.2l0,1.7l-0.3,1.2l-0.9,1.7
	v1.6l0.8,1.5l1.3,1.9l1.4,2.3l1,2.8l0,2.6l-0.8,2.4l-0.6,2.7v1.5l-0.9,1.1l-1.3,3.4l-0.9,1.7l-2,2.3l-5,6.7l-0.7,1.4l-0.3,2.7
	l-0.5,7.6l0.1,3.9l0,2.3l0.2,0.8l0.8,1.5l1.5,2l0.4,0.9l0.5,1.1l0.2,0.8l0,0.7l0,0.7l-0.7,1.2l-0.2,0.8v0.7l-0.1,1l-0.4,0.8
	l-0.6,0.8l-0.9,1l-0.6,0.6l-1.9,1.1l-1.9,1.1l-1.8,0.7l-2.4,0.7l-2.2,0.5l-1,0.5l-1.1,0.6l-0.4,0.3L501,448.2"/>
</svg>
