<?xml version="1.0" encoding="utf-8"?>
<!-- Generator: Adobe Illustrator 25.0.1, SVG Export Plug-In . SVG Version: 6.00 Build 0)  -->
<svg version="1.1"
	 id="Layer_1" xmlns:cc="http://creativecommons.org/ns#" xmlns:inkscape="http://www.inkscape.org/namespaces/inkscape"
	 xmlns="http://www.w3.org/2000/svg" xmlns:xlink="http://www.w3.org/1999/xlink" x="0px" y="0px" viewBox="0 0 841.7 595.2"
	 style="enable-background:new 0 0 841.7 595.2;" xml:space="preserve">
<style type="text/css">
	.st0{fill-rule:evenodd;clip-rule:evenodd;fill:url(#SVGID_1_);}
	.st1{fill:none;stroke:#265980;stroke-width:0.7368;stroke-linecap:square;stroke-linejoin:bevel;stroke-miterlimit:10;}
	
		.st2{fill-rule:evenodd;clip-rule:evenodd;fill:#F5BE47;fill-opacity:0;stroke:#232323;stroke-width:0.7368;stroke-linecap:square;stroke-linejoin:bevel;stroke-miterlimit:10;}
	
		.st3{fill-rule:evenodd;clip-rule:evenodd;fill:#50A554;fill-opacity:0;stroke:#232323;stroke-width:0.7368;stroke-linecap:square;stroke-linejoin:bevel;stroke-miterlimit:10;}
	
		.st4{fill-rule:evenodd;clip-rule:evenodd;fill:#3773BB;fill-opacity:0;stroke:#232323;stroke-width:0.7368;stroke-linecap:square;stroke-linejoin:bevel;stroke-miterlimit:10;}
	
		.st5{fill-rule:evenodd;clip-rule:evenodd;fill:#DC5746;fill-opacity:0;stroke:#232323;stroke-width:0.7368;stroke-linecap:square;stroke-linejoin:bevel;stroke-miterlimit:10;}
</style>
<radialGradient id="SVGID_1_" cx="-46.9306" cy="602.6343" r="2.3324" gradientTransform="matrix(662.8284 0 0 -482.862 30524.9551 290962.25)" gradientUnits="userSpaceOnUse">
	<stop  offset="0" style="stop-color:#102431"/>
	<stop  offset="1" style="stop-color:#4498D0"/>
</radialGradient>
<path vector-effect="none" class="st0" d="M377,72.2l-1,11.5l-0.7,9.1l-0.8,10.4l-0.3,13l8.8,10l14.2,16.6l1.5,4.3l23.8,9.3
	l14.1,6.4l12.7,8.5l11.1,5.4l3.7,1.8l10.1,4.8l17.1,11.2l22.2,7.2l21.8,7.7l12.5,5.9l18,5.5l1.2,0.7l15.2,8.7l1.8,1l0,0l0,0l9.6,5.5
	l17,12l24.5,15.7l11.4,6.6l7.9,4.9l13.3,9.1l11.7,9.2l46.2,41.8l16.9,0l0.2,0l0.3,0.1l0.2,0.1l0.3,0.2l0.1,0.1l-1.3,29.4L741,377
	l-0.2,0.7l-0.2,0.7l-0.1,0.5l-0.1,0.4l0,0.5l0,0.5l0,0.5l-0.1,0.4l-0.2,0.3l-0.4,0.5l-0.5,0.4l-0.2,0.2l-0.3,0.5l-0.2,0.3l-0.3,0.3
	l-0.4,0.1l-0.4,0l-0.4-0.2l-4.8,4.8l-1.1,1.9L711.8,515l-2.3,33.2l-0.1,2l-0.1,2.3l-0.7-1l-0.9-0.9l-1.2-1.1l-0.9-1.2l-0.7-1.3
	l-1-1.2l-0.2-0.3l-1.2-1.3l-1.3-1.8l-1.9-2.7l-1.2-1.3l-1.3-1.2l-0.9-1.2l-1.1-0.9l-1.5-0.9l-1.3-0.4l-1.9-0.6l-1.3-0.4l-1.4-1.1
	l-0.9-0.9l-1.9-1.4l-1.4-1.3l-1.3-1.2l-2.1-1.3l-1.5-1.6l-3.8-3.4l-2.6-1.7l-1.5-1.5l-0.9-0.7l-1.4-1.3l-1.8-1.3l-1.6-1.5l-1.3-0.9
	l-1.9-1.1l-1.8-0.8l-2.2-1.1l-1.5-1.2l-1.3-0.9l-2-1.2l-1.8-1.1l-1.9-1.2l-2.1-1.6l-2-1.1l-2.2-0.8l-1.9-0.6l-2.3-0.9l-6.3-2.7
	l-1.3-1.1l-2.1-1.4l-1.4-1.3l-1.1-1.1l-1.3-1.5l-0.5-1.1L624,487l-0.6-1.1l-1.4-1.4l-2-1.3l-2.3-2.1l-2.8-2.9l-2.8-2.9l-2.8-2.9
	l-3.5-3.6l-3.5-3.6l-3.5-3.9L594,457l-2-1.4l-2.6-2.1l-1.4-1.2l-1.8-1.4L585,450l-1.5-0.7l-1.3-0.4l-1.5-0.5l-1.6-1.3l-1.2-1.1
	l-1.1-1.1l-1.1-0.8l-1.1-0.7l-0.8-1.1l-1.2-0.6l-1.3-0.1l-1.6,0.1h-1.4l-1.2-0.5l-0.8-0.8l-0.8-0.7l-2.1-2.1l-0.8-0.6l-1.3-0.5
	l-0.8-0.2l-1.1-0.7l-0.6-0.7l-0.5-0.7l-1.1-0.9l-1.3-0.7l-4.5-1.2l-2.5-0.5l-1.9-0.1l-2.2,0.1l-1.3,0.1l-1.8,0.6l-2.5,0.1l-1.4-0.1
	l-2-0.8l-0.8-0.8l-0.9-0.8l-1.7-1.2l-2.1-0.9l-1.8-0.8l-1.5-1.3l-2.7-1.6l-1.1-1.2l-1.4-1.4l-1.8-0.8l-4.9-2.5l-3.2-1.9l-3.2-1.9
	l-4.9-3.1l-1.9-1.2l-1.4-0.6l-2-0.9l-1.9-1.5l-0.9-0.9l-1.2-0.9l-2.6-1.8l-1.3-1.1l-2.2-1.6l-1.3-1.1l-1.3-1.2l-1.5-1.1l-1.6-0.7
	l-1.8-0.7l-1.9-0.8l-2.2-0.8l-2-0.5l-5.4-2.3l-0.9-0.4l-1.6-0.7l-1.1-0.2l-1.5-0.1l-1.8-0.2l-1.8-0.6l-2.2-1.1l-2.3-1.1l-1.9-0.5
	l-1-0.7l-3-2.3l-3.8-2.3l-1.8-1.4l-1.3-0.9l-1.1-1l-3.1-1.8l-1.7-1.4l-3-2.4l-0.7-0.8l-1.7,0.6l-2,0.3l-1.3-1l0.9-1.3l-1.7-0.7
	l0.1-1.5l-1.5-2.1l-1.3-0.8l-1.3-0.6l-0.9-0.5l-1-0.7l-0.2-0.4l-0.7-0.5l-2.7-1l-2.2-1.6l-2.9-1.9l-2-0.4l-2.4-1.8l-1.2-0.9
	l-1.4-0.6l-1.9-1.4l-1.7-1.6l-1.3-1.3l-0.6-1.4l-1.6-0.7l0.2-1.8l-0.2-0.8l0-0.5l0-0.4l0.1-0.3l-1.5-0.1l-0.6,0l-0.3-0.5l-0.3-0.5
	l-0.4-0.6l-0.3-0.5l-0.8-0.4l-0.6-0.6l-0.7-0.4l-1.1-1l-0.4-0.8l-0.6-1.1l-0.6-0.5l-1.1-1.3l0,0L387,333l-22.5-17.1l-4.9,1.4
	l-6.2-1.2l-0.5-5.7l-9.8-2.1l-30.4-26.1l-0.2-5.1l-0.8-0.8l-3.4-1.8l-1.6-1.4l-1.5-1.5l-3-2.3l-3.6-2.7l-1.5-1.4l-1.5-1.1l-1.6-1.3
	l-1.4-0.7l-1.7-0.7l-2-0.8l-0.3-0.1l-1.2-0.5l-0.4-0.3l-0.8-0.6l-1.1-0.7l-1.7-0.6l-5.8-3.4l-1.6-1.2l-1.5-1.2l-1.6-1l-0.6-0.2
	l-0.5-0.2l-1.5-0.6l-1.5-1l-0.6-0.8l-0.6-0.9l-2.3-2.2l-1.6-1.1l-0.8-0.7l-0.7-0.9l-0.7-0.5l-0.2-0.1l-1.9-1.1l-0.9-0.8l-0.7-0.8
	l-0.5-0.9l-0.2-0.4l-0.3-0.7l-0.2-0.8l-1.3-1.6l-0.9-0.8l-2.8-2.3L249,229l-3-3.2l-0.6-0.7l-1.8-2l-2.4-2.7l-2.4-2.7l0,0l-3.1-3.9
	l-3.1-3.9l-2.3-3l-0.8-1.7l-0.6-1.5l-0.4-1.8l-0.3-1.7l-0.3-1l-1.1-1.7l-2.3-2.7l-2.7-3.1l-2.7-3.1l-3.1-3.6l-3.1-3.6l-2.8-2.9
	l-2.8-2.9l-1.8-1.8l-0.9-0.9l-0.2-0.2l-2.8-2.9l-3-2.7l-3-2.7l-1.2-1.4l-2.3-2.7l-2.6-2.7l-2.6-2.7l-2.6-2.7l-5.3-4.5l-2-1.7
	l-0.7-0.6l-2.7-2.3l-2.8-1.1l-0.4-0.4l-0.4-0.4l-0.3-0.4l-0.3-0.4l-0.3-0.4l-0.3-0.4l-0.3-0.4l-0.3-0.4l-0.3-0.4l-0.3-0.4l-0.3-0.4
	l-0.3-0.4l-0.2-0.3l-0.1-0.1l-0.3-0.4l-0.3-0.4l-0.3-0.4l-0.3-0.4l-0.5-0.3l-0.5-0.3l-0.5-0.3l-0.5-0.3l-0.5-0.3l-0.5-0.3l-0.3-0.2
	l-0.2-0.1l-0.5-0.3l-0.5-0.3l-0.4-0.3l-0.4-0.3l-0.4-0.3l-0.4-0.3l-0.4-0.3l-0.4-0.3l-0.4-0.3l-0.4-0.3l-0.4-0.3l-0.4-0.3l-0.4-0.3
	l-0.4-0.3l-0.4-0.3l-0.4-0.3l-0.4-0.3l-0.4-0.3l-0.4-0.3l-0.4-0.3l-0.2-0.1l-0.3-0.2l-0.4-0.3l-0.4-0.3l-0.4-0.3l0,0l-0.4-0.3
	l-0.4-0.3l-0.4-0.3l-0.4-0.3l-0.4-0.3l-0.4-0.3l-0.4-0.3l-0.4-0.3l-0.4-0.3l-0.4-0.3l-0.4-0.3l-0.4-0.3l-0.4-0.3l-0.4-0.3l-0.4-0.3
	l-0.4-0.3l-0.4-0.3l-0.4-0.3l-0.4-0.3l-0.4-0.3l-0.4-0.3l-0.4-0.3l-0.4-0.3L142,118l-0.4-0.3l-0.4-0.3l-0.4-0.3l-0.4-0.3l-0.4-0.3
	l-0.4-0.3l-0.4-0.3l-0.4-0.3l-0.4-0.3l-0.4-0.3l-0.4-0.3l-0.4-0.3l-0.4-0.3l-0.4-0.3l-0.4-0.3l-0.4-0.3l-0.4-0.3l-0.4-0.3l-0.4-0.3
	l-0.4-0.3l-0.4-0.3l-0.4-0.3l-0.4-0.3l-0.4-0.3l-0.4-0.3l-0.4-0.3l-0.4-0.3l-0.4-0.3l-0.4-0.3l-0.4-0.3l-0.4-0.3l-0.4-0.3l-0.4-0.3
	l-0.4-0.3l-0.4-0.3l-0.4-0.3l-0.4-0.3l-0.4-0.3l-0.4-0.3l-0.4-0.3l-0.4-0.3l-0.4-0.3l-0.3-0.2L124,104l-0.4-0.3l-0.4-0.3l-0.4-0.3
	l-0.4-0.3l-0.4-0.3l-0.4-0.3l-0.4-0.3l-0.4-0.3l-0.4-0.3l-0.4-0.3l-0.4-0.3l-0.4-0.3l-0.4-0.3l-0.4-0.3l-0.4-0.3l-0.4-0.3l-0.4-0.3
	l-0.4-0.3l-0.4-0.3l-0.4-0.3l-0.4-0.3l-0.4-0.3l-0.4-0.3l-0.4-0.3l-0.1-0.1l-0.3-0.2l-0.4-0.4l-0.4-0.4l-0.4-0.4l-0.4-0.4l-0.4-0.4
	l-0.4-0.4l-0.4-0.4l-0.4-0.4l-0.4-0.4l-0.4-0.4l-0.4-0.3l-0.5-0.2l-0.5-0.2l-0.5-0.2l-0.5-0.2l-0.5-0.2l-0.5-0.2l-0.5-0.2l-0.5-0.2
	l-0.5-0.2l-0.5-0.2l-0.5-0.1l-0.5-0.1l-0.5-0.1l-0.5-0.1l-0.5-0.1l-0.2,0l-0.3-0.1l-0.5-0.1l-0.5-0.1l-0.5-0.1l-0.5-0.1L98,89.5
	l-0.5-0.1l-0.1-0.5l-0.1-0.5l-0.1-0.5l-0.1-0.5l-0.1-0.5l0-0.2l0-0.4l-0.1-0.5L97,85.2l-0.1-0.5l-0.1-0.5l-0.1-0.5l-0.1-0.5
	l-0.1-0.5L96.4,82l-1-2.8L95,78.9l-0.4-0.3l-0.4-0.3l-0.4-0.3l-0.4-0.3L93,77.2l-0.4-0.3l-0.4-0.3l-0.4-0.3L91.3,76l-0.5-0.2
	l-0.5-0.2l-0.5-0.2l-0.1,0l-0.4-0.1l-0.5-0.3l-0.3-0.2l-0.2-0.1l-0.5-0.3l-0.5-0.3L87,74l-0.5-0.3l-0.5-0.3l-0.5-0.3l-0.5-0.3
	l-0.5-0.3l-0.5-0.3L83.8,72l-0.5-0.3l-0.4-0.3l-0.4-0.3l-0.4-0.3l-0.4-0.3l-0.3-0.2l-0.5-0.4h0l0.6,0h0.2l6.7,0h0.1l80.3-0.1l5.5,0
	l10.2,0l151.6-0.1l41.1,0l-0.1,0.6L377,72.2 M492.5,363l0.3-0.4l0,0L492.5,363 M491.8,363l-0.3,0.1L491.8,363l0.7-0.1L491.8,363"/>
<path vector-effect="none" class="st1" d="M377,72.2l-1,11.5l-0.7,9.1l-0.8,10.4l-0.3,13l8.8,10l14.2,16.6l1.5,4.3l23.8,9.3
	l14.1,6.4l12.7,8.5l11.1,5.4l3.7,1.8l10.1,4.8l17.1,11.2l22.2,7.2l21.8,7.7l12.5,5.9l18,5.5l1.2,0.7l15.2,8.7l1.8,1l0,0l0,0l9.6,5.5
	l17,12l24.5,15.7l11.4,6.6l7.9,4.9l13.3,9.1l11.7,9.2l46.2,41.8l16.9,0l0.2,0l0.3,0.1l0.2,0.1l0.3,0.2l0.1,0.1l-1.3,29.4L741,377
	l-0.2,0.7l-0.2,0.7l-0.1,0.5l-0.1,0.4l0,0.5l0,0.5l0,0.5l-0.1,0.4l-0.2,0.3l-0.4,0.5l-0.5,0.4l-0.2,0.2l-0.3,0.5l-0.2,0.3l-0.3,0.3
	l-0.4,0.1l-0.4,0l-0.4-0.2l-4.8,4.8l-1.1,1.9L711.8,515l-2.3,33.2l-0.1,2l-0.1,2.3l-0.7-1l-0.9-0.9l-1.2-1.1l-0.9-1.2l-0.7-1.3
	l-1-1.2l-0.2-0.3l-1.2-1.3l-1.3-1.8l-1.9-2.7l-1.2-1.3l-1.3-1.2l-0.9-1.2l-1.1-0.9l-1.5-0.9l-1.3-0.4l-1.9-0.6l-1.3-0.4l-1.4-1.1
	l-0.9-0.9l-1.9-1.4l-1.4-1.3l-1.3-1.2l-2.1-1.3l-1.5-1.6l-3.8-3.4l-2.6-1.7l-1.5-1.5l-0.9-0.7l-1.4-1.3l-1.8-1.3l-1.6-1.5l-1.3-0.9
	l-1.9-1.1l-1.8-0.8l-2.2-1.1l-1.5-1.2l-1.3-0.9l-2-1.2l-1.8-1.1l-1.9-1.2l-2.1-1.6l-2-1.1l-2.2-0.8l-1.9-0.6l-2.3-0.9l-6.3-2.7
	l-1.3-1.1l-2.1-1.4l-1.4-1.3l-1.1-1.1l-1.3-1.5l-0.5-1.1L624,487l-0.6-1.1l-1.4-1.4l-2-1.3l-2.3-2.1l-2.8-2.9l-2.8-2.9l-2.8-2.9
	l-3.5-3.6l-3.5-3.6l-3.5-3.9L594,457l-2-1.4l-2.6-2.1l-1.4-1.2l-1.8-1.4L585,450l-1.5-0.7l-1.3-0.4l-1.5-0.5l-1.6-1.3l-1.2-1.1
	l-1.1-1.1l-1.1-0.8l-1.1-0.7l-0.8-1.1l-1.2-0.6l-1.3-0.1l-1.6,0.1h-1.4l-1.2-0.5l-0.8-0.8l-0.8-0.7l-2.1-2.1l-0.8-0.6l-1.3-0.5
	l-0.8-0.2l-1.1-0.7l-0.6-0.7l-0.5-0.7l-1.1-0.9l-1.3-0.7l-4.5-1.2l-2.5-0.5l-1.9-0.1l-2.2,0.1l-1.3,0.1l-1.8,0.6l-2.5,0.1l-1.4-0.1
	l-2-0.8l-0.8-0.8l-0.9-0.8l-1.7-1.2l-2.1-0.9l-1.8-0.8l-1.5-1.3l-2.7-1.6l-1.1-1.2l-1.4-1.4l-1.8-0.8l-4.9-2.5l-3.2-1.9l-3.2-1.9
	l-4.9-3.1l-1.9-1.2l-1.4-0.6l-2-0.9l-1.9-1.5l-0.9-0.9l-1.2-0.9l-2.6-1.8l-1.3-1.1l-2.2-1.6l-1.3-1.1l-1.3-1.2l-1.5-1.1l-1.6-0.7
	l-1.8-0.7l-1.9-0.8l-2.2-0.8l-2-0.5l-5.4-2.3l-0.9-0.4l-1.6-0.7l-1.1-0.2l-1.5-0.1l-1.8-0.2l-1.8-0.6l-2.2-1.1l-2.3-1.1l-1.9-0.5
	l-1-0.7l-3-2.3l-3.8-2.3l-1.8-1.4l-1.3-0.9l-1.1-1l-3.1-1.8l-1.7-1.4l-3-2.4l-0.7-0.8l-1.7,0.6l-2,0.3l-1.3-1l0.9-1.3l-1.7-0.7
	l0.1-1.5l-1.5-2.1l-1.3-0.8l-1.3-0.6l-0.9-0.5l-1-0.7l-0.2-0.4l-0.7-0.5l-2.7-1l-2.2-1.6l-2.9-1.9l-2-0.4l-2.4-1.8l-1.2-0.9
	l-1.4-0.6l-1.9-1.4l-1.7-1.6l-1.3-1.3l-0.6-1.4l-1.6-0.7l0.2-1.8l-0.2-0.8l0-0.5l0-0.4l0.1-0.3l-1.5-0.1l-0.6,0l-0.3-0.5l-0.3-0.5
	l-0.4-0.6l-0.3-0.5l-0.8-0.4l-0.6-0.6l-0.7-0.4l-1.1-1l-0.4-0.8l-0.6-1.1l-0.6-0.5l-1.1-1.3l0,0L387,333l-22.5-17.1l-4.9,1.4
	l-6.2-1.2l-0.5-5.7l-9.8-2.1l-30.4-26.1l-0.2-5.1l-0.8-0.8l-3.4-1.8l-1.6-1.4l-1.5-1.5l-3-2.3l-3.6-2.7l-1.5-1.4l-1.5-1.1l-1.6-1.3
	l-1.4-0.7l-1.7-0.7l-2-0.8l-0.3-0.1l-1.2-0.5l-0.4-0.3l-0.8-0.6l-1.1-0.7l-1.7-0.6l-5.8-3.4l-1.6-1.2l-1.5-1.2l-1.6-1l-0.6-0.2
	l-0.5-0.2l-1.5-0.6l-1.5-1l-0.6-0.8l-0.6-0.9l-2.3-2.2l-1.6-1.1l-0.8-0.7l-0.7-0.9l-0.7-0.5l-0.2-0.1l-1.9-1.1l-0.9-0.8l-0.7-0.8
	l-0.5-0.9l-0.2-0.4l-0.3-0.7l-0.2-0.8l-1.3-1.6l-0.9-0.8l-2.8-2.3L249,229l-3-3.2l-0.6-0.7l-1.8-2l-2.4-2.7l-2.4-2.7l0,0l-3.1-3.9
	l-3.1-3.9l-2.3-3l-0.8-1.7l-0.6-1.5l-0.4-1.8l-0.3-1.7l-0.3-1l-1.1-1.7l-2.3-2.7l-2.7-3.1l-2.7-3.1l-3.1-3.6l-3.1-3.6l-2.8-2.9
	l-2.8-2.9l-1.8-1.8l-0.9-0.9l-0.2-0.2l-2.8-2.9l-3-2.7l-3-2.7l-1.2-1.4l-2.3-2.7l-2.6-2.7l-2.6-2.7l-2.6-2.7l-5.3-4.5l-2-1.7
	l-0.7-0.6l-2.7-2.3l-2.8-1.1l-0.4-0.4l-0.4-0.4l-0.3-0.4l-0.3-0.4l-0.3-0.4l-0.3-0.4l-0.3-0.4l-0.3-0.4l-0.3-0.4l-0.3-0.4l-0.3-0.4
	l-0.3-0.4l-0.2-0.3l-0.1-0.1l-0.3-0.4l-0.3-0.4l-0.3-0.4l-0.3-0.4l-0.5-0.3l-0.5-0.3l-0.5-0.3l-0.5-0.3l-0.5-0.3l-0.5-0.3l-0.3-0.2
	l-0.2-0.1l-0.5-0.3l-0.5-0.3l-0.4-0.3l-0.4-0.3l-0.4-0.3l-0.4-0.3l-0.4-0.3l-0.4-0.3l-0.4-0.3l-0.4-0.3l-0.4-0.3l-0.4-0.3l-0.4-0.3
	l-0.4-0.3l-0.4-0.3l-0.4-0.3l-0.4-0.3l-0.4-0.3l-0.4-0.3l-0.4-0.3l-0.2-0.1l-0.3-0.2l-0.4-0.3l-0.4-0.3l-0.4-0.3l0,0l-0.4-0.3
	l-0.4-0.3l-0.4-0.3l-0.4-0.3l-0.4-0.3l-0.4-0.3l-0.4-0.3l-0.4-0.3l-0.4-0.3l-0.4-0.3l-0.4-0.3l-0.4-0.3l-0.4-0.3l-0.4-0.3l-0.4-0.3
	l-0.4-0.3l-0.4-0.3l-0.4-0.3l-0.4-0.3l-0.4-0.3l-0.4-0.3l-0.4-0.3l-0.4-0.3L142,118l-0.4-0.3l-0.4-0.3l-0.4-0.3l-0.4-0.3l-0.4-0.3
	l-0.4-0.3l-0.4-0.3l-0.4-0.3l-0.4-0.3l-0.4-0.3l-0.4-0.3l-0.4-0.3l-0.4-0.3l-0.4-0.3l-0.4-0.3l-0.4-0.3l-0.4-0.3l-0.4-0.3l-0.4-0.3
	l-0.4-0.3l-0.4-0.3l-0.4-0.3l-0.4-0.3l-0.4-0.3l-0.4-0.3l-0.4-0.3l-0.4-0.3l-0.4-0.3l-0.4-0.3l-0.4-0.3l-0.4-0.3l-0.4-0.3l-0.4-0.3
	l-0.4-0.3l-0.4-0.3l-0.4-0.3l-0.4-0.3l-0.4-0.3l-0.4-0.3l-0.4-0.3l-0.4-0.3l-0.4-0.3l-0.3-0.2L124,104l-0.4-0.3l-0.4-0.3l-0.4-0.3
	l-0.4-0.3l-0.4-0.3l-0.4-0.3l-0.4-0.3l-0.4-0.3l-0.4-0.3l-0.4-0.3l-0.4-0.3l-0.4-0.3l-0.4-0.3l-0.4-0.3l-0.4-0.3l-0.4-0.3l-0.4-0.3
	l-0.4-0.3l-0.4-0.3l-0.4-0.3l-0.4-0.3l-0.4-0.3l-0.4-0.3l-0.4-0.3l-0.1-0.1l-0.3-0.2l-0.4-0.4l-0.4-0.4l-0.4-0.4l-0.4-0.4l-0.4-0.4
	l-0.4-0.4l-0.4-0.4l-0.4-0.4l-0.4-0.4l-0.4-0.4l-0.4-0.3l-0.5-0.2l-0.5-0.2l-0.5-0.2l-0.5-0.2l-0.5-0.2l-0.5-0.2l-0.5-0.2l-0.5-0.2
	l-0.5-0.2l-0.5-0.2l-0.5-0.1l-0.5-0.1l-0.5-0.1l-0.5-0.1l-0.5-0.1l-0.2,0l-0.3-0.1l-0.5-0.1l-0.5-0.1l-0.5-0.1l-0.5-0.1L98,89.5
	l-0.5-0.1l-0.1-0.5l-0.1-0.5l-0.1-0.5l-0.1-0.5l-0.1-0.5l0-0.2l0-0.4l-0.1-0.5L97,85.2l-0.1-0.5l-0.1-0.5l-0.1-0.5l-0.1-0.5
	l-0.1-0.5L96.4,82l-1-2.8L95,78.9l-0.4-0.3l-0.4-0.3l-0.4-0.3l-0.4-0.3L93,77.2l-0.4-0.3l-0.4-0.3l-0.4-0.3L91.3,76l-0.5-0.2
	l-0.5-0.2l-0.5-0.2l-0.1,0l-0.4-0.1l-0.5-0.3l-0.3-0.2l-0.2-0.1l-0.5-0.3l-0.5-0.3L87,74l-0.5-0.3l-0.5-0.3l-0.5-0.3l-0.5-0.3
	l-0.5-0.3l-0.5-0.3L83.8,72l-0.5-0.3l-0.4-0.3l-0.4-0.3l-0.4-0.3l-0.4-0.3l-0.3-0.2l-0.5-0.4h0l0.6,0h0.2l6.7,0h0.1l80.3-0.1l5.5,0
	l10.2,0l151.6-0.1l41.1,0l-0.1,0.6L377,72.2 M492.5,363l0.3-0.4l0,0L492.5,363 M491.8,363l-0.3,0.1L491.8,363l0.7-0.1L491.8,363"/>
<path vector-effect="none" class="st2" d="M377.2,69.6l-0.1,0.6l-0.2,1.9l-1,11.5l-0.7,9.1l-0.8,10.4l-0.3,13l8.8,10l14.2,16.6
	l1.5,4.3l-6.2,2.7l-6,3l-3.6,2.1l-8.8,2.7l-10.4,3.5l-8.8,2.8l-13.5-0.3l-9.8-1.4l-0.7-0.1l-18.8,2.6l-2.2,0.1l-1.6,0.1l-1.6,0.3
	l-0.6,0.3l-2.4,0.2l-1.3,0.5l-2.9,0.8l-3.2,1.8l-2.7-0.1l-0.6,0.2l0,0l-3.8,2l-4.7,2.2l-4.9,1.8l-4.4,1.8l-0.6,0.1l-6.4,2.7l0,0.7
	l0.1,0.2l0.1,0.2l0,0.5l-0.1,0.8l-0.1,0.7l-0.3,1l-1,3.3l-0.2,0.5l-0.3,0.9l-0.3,0.7l-0.2,0.6l-0.4,1l-0.3,0.8l-0.1,0.3l-0.5,1
	l-0.5,1l-0.2,0.4l-0.2,0.8l-0.3,1.3l-0.1,0.4l-0.1,0.4l-0.2,0.5l-0.3,0.7l-0.3,0.6l-0.3,0.5l-1,1.4l-0.2,0.2l-0.6,0.8l-0.8,0.9
	l-0.4,0.4l-0.3,0.3l-0.3,0.2l-0.2,0.2l-0.2,0.2l-0.3,0.2l-0.2,0.1l-0.3,0.1l-0.6,0.2l-1.6,0.7l-1.6,0.7l-1.1,0.5l-1.1,0.5l-2.4,1
	l-0.9,0.4l-1.2,0.5l-0.6,0.3l-0.3,0.2l-0.6,0.5l-0.9,0.5l-3.7,5l-1.7,2.3l-3.1-3.9l-3.1-3.9l-2.3-3l-0.8-1.7l-0.6-1.5l-0.4-1.8
	l-0.3-1.7l-0.3-1l-1.1-1.7l-2.3-2.7l-2.7-3.1l-2.7-3.1l-3.1-3.6l-3.1-3.6l-2.8-2.9l-2.8-2.9l-1.8-1.8l-0.9-0.9l-0.2-0.2l-2.8-2.9
	l-3-2.7l-3-2.7l-1.2-1.4l-2.3-2.7l-2.6-2.7l-2.6-2.7l-2.6-2.7l-5.3-4.5l-2-1.7l-0.7-0.6l-2.7-2.3l-2.8-1.1l-0.4-0.4l-0.4-0.4
	l-0.3-0.4l-0.3-0.4l-0.3-0.4l-0.3-0.4l-0.3-0.4l-0.3-0.4l-0.3-0.4l-0.3-0.4l-0.3-0.4l-0.3-0.4l-0.2-0.3l-0.1-0.1l-0.3-0.4l-0.3-0.4
	l-0.3-0.4l-0.3-0.4l-0.5-0.3l-0.5-0.3l-0.5-0.3l-0.5-0.3l-0.5-0.3l-0.5-0.3l-0.3-0.2l-0.2-0.1l-0.5-0.3l-0.5-0.3l-0.4-0.3l-0.4-0.3
	l-0.4-0.3l-0.4-0.3l-0.4-0.3l-0.4-0.3l-0.4-0.3l-0.4-0.3l-0.4-0.3l-0.4-0.3l-0.4-0.3l-0.4-0.3l-0.4-0.3l-0.4-0.3l-0.4-0.3l-0.4-0.3
	l-0.4-0.3l-0.4-0.3l-0.2-0.1l-0.3-0.2l-0.4-0.3l-0.4-0.3l-0.4-0.3l0,0l-0.4-0.3l-0.4-0.3l-0.4-0.3l-0.4-0.3l-0.4-0.3l-0.4-0.3
	l-0.4-0.3l-0.4-0.3l-0.4-0.3l-0.4-0.3l-0.4-0.3l-0.4-0.3l-0.4-0.3l-0.4-0.3l-0.4-0.3l-0.4-0.3l-0.4-0.3l-0.4-0.3l-0.4-0.3l-0.4-0.3
	l-0.4-0.3l-0.4-0.3l-0.4-0.3L142,118l-0.4-0.3l-0.4-0.3l-0.4-0.3l-0.4-0.3l-0.4-0.3l-0.4-0.3l-0.4-0.3l-0.4-0.3l-0.4-0.3l-0.4-0.3
	l-0.4-0.3l-0.4-0.3l-0.4-0.3l-0.4-0.3l-0.4-0.3l-0.4-0.3l-0.4-0.3l-0.4-0.3l-0.4-0.3l-0.4-0.3l-0.4-0.3l-0.4-0.3l-0.4-0.3l-0.4-0.3
	l-0.4-0.3l-0.4-0.3l-0.4-0.3l-0.4-0.3l-0.4-0.3l-0.4-0.3l-0.4-0.3l-0.4-0.3l-0.4-0.3l-0.4-0.3l-0.4-0.3l-0.4-0.3l-0.4-0.3l-0.4-0.3
	l-0.4-0.3l-0.4-0.3l-0.4-0.3l-0.4-0.3l-0.3-0.2L124,104l-0.4-0.3l-0.4-0.3l-0.4-0.3l-0.4-0.3l-0.4-0.3l-0.4-0.3l-0.4-0.3l-0.4-0.3
	l-0.4-0.3l-0.4-0.3l-0.4-0.3l-0.4-0.3l-0.4-0.3l-0.4-0.3l-0.4-0.3l-0.4-0.3l-0.4-0.3l-0.4-0.3l-0.4-0.3l-0.4-0.3l-0.4-0.3l-0.4-0.3
	l-0.4-0.3l-0.4-0.3l-0.1-0.1l-0.3-0.2l-0.4-0.4l-0.4-0.4l-0.4-0.4l-0.4-0.4l-0.4-0.4l-0.4-0.4l-0.4-0.4l-0.4-0.4l-0.4-0.4l-0.4-0.4
	l-0.4-0.3l-0.5-0.2l-0.5-0.2l-0.5-0.2l-0.5-0.2l-0.5-0.2l-0.5-0.2l-0.5-0.2l-0.5-0.2l-0.5-0.2l-0.5-0.2l-0.5-0.1l-0.5-0.1l-0.5-0.1
	l-0.5-0.1l-0.5-0.1l-0.2,0l-0.3-0.1l-0.5-0.1l-0.5-0.1l-0.5-0.1l-0.5-0.1L98,89.5l-0.5-0.1l-0.1-0.5l-0.1-0.5l-0.1-0.5l-0.1-0.5
	l-0.1-0.5l0-0.2l0-0.4l-0.1-0.5L97,85.2l-0.1-0.5l-0.1-0.5l-0.1-0.5l-0.1-0.5l-0.1-0.5L96.4,82l-1-2.8L95,78.9l-0.4-0.3l-0.4-0.3
	l-0.4-0.3l-0.4-0.3L93,77.2l-0.4-0.3l-0.4-0.3l-0.4-0.3L91.3,76l-0.5-0.2l-0.5-0.2l-0.5-0.2l-0.1,0l-0.4-0.1l-0.5-0.3l-0.3-0.2
	l-0.2-0.1l-0.5-0.3l-0.5-0.3L87,74l-0.5-0.3l-0.5-0.3l-0.5-0.3l-0.5-0.3l-0.5-0.3l-0.5-0.3L83.8,72l-0.5-0.3l-0.4-0.3l-0.4-0.3
	l-0.4-0.3l-0.4-0.3l-0.3-0.2l-0.5-0.4h0l0.6,0h0.2l6.7,0h0.1l80.3-0.1l5.5,0l10.2,0l151.6-0.1L377.2,69.6"/>
<path vector-effect="none" class="st3" d="M390.3,335.4L390.3,335.4L387,333l-22.5-17.1l-4.9,1.4l-6.2-1.2l-0.5-5.7l-9.8-2.1
	l-30.4-26.1l-0.2-5.1l-0.8-0.8l-3.4-1.8l-1.6-1.4l-1.5-1.5l-3-2.3l-3.6-2.7l-1.5-1.4l-1.5-1.1l-1.6-1.3l-1.4-0.7l-1.7-0.7l-2-0.8
	l-0.3-0.1l-1.2-0.5l-0.4-0.3l-0.8-0.6l-1.1-0.7l-1.7-0.6l-5.8-3.4l-1.6-1.2l-1.5-1.2l-1.6-1l-0.6-0.2l-0.5-0.2l-1.5-0.6l-1.5-1
	l-0.6-0.8l-0.6-0.9l-2.3-2.2l-1.6-1.1l-0.8-0.7l-0.7-0.9l-0.7-0.5l-0.2-0.1l-1.9-1.1l-0.9-0.8l-0.7-0.8l-0.5-0.9l-0.2-0.4l-0.3-0.7
	l-0.2-0.8l-1.3-1.6l-0.9-0.8l-2.8-2.3L249,229l-3-3.2l-0.6-0.7l-1.8-2l-2.4-2.7l-2.4-2.7l0,0l1.7-2.3l3.7-5l0.9-0.5l0.6-0.5l0.3-0.2
	l0.6-0.3l1.2-0.5l0.9-0.4l2.4-1l1.1-0.5l1.1-0.5l1.6-0.7l1.6-0.7l0.6-0.2l0.3-0.1l0.2-0.1l0.3-0.2l0.2-0.2l0.2-0.2l0.3-0.2l0.3-0.3
	l0.4-0.4l0.8-0.9l0.6-0.8l0.2-0.2l1-1.4l0.3-0.5l0.3-0.6l0.3-0.7l0.2-0.5l0.1-0.4l0.1-0.4l0.3-1.3l0.2-0.8l0.2-0.4l0.5-1l0.5-1
	l0.1-0.3l0.3-0.8l0.4-1l0.2-0.6l0.3-0.7l0.3-0.9l0.2-0.5l1-3.3l0.3-1l0.1-0.7l0.1-0.8l0-0.5l-0.1-0.2l-0.1-0.2l0-0.7l6.4-2.7
	l0.6-0.1l4.4-1.8l4.9-1.8l4.7-2.2l3.8-2l0,0l0.6-0.2l2.7,0.1l3.2-1.8l2.9-0.8l1.3-0.5l2.4-0.2l0.6-0.3l1.6-0.3l1.6-0.1l2.2-0.1
	l18.8-2.6l0.7,0.1l9.8,1.4l13.5,0.3l8.8-2.8l10.4-3.5l8.8-2.7l3.6-2.1l6-3l6.2-2.7l23.8,9.3l1.6,5.1l1.6,5.1l5.5,17l6.9,16.1
	l3.1,7.9l0.3,4.5l-0.3,4.5l-1.7,4.1l-0.3,4.1l-0.3,2.4l-1.7,2.1l-2.1,1l-2.4,1l-0.8,1.1l-1.2,1.7l-0.7,3.1l-0.3,3.4l-1.4,4.8
	l-0.3,3.4l-1,2.7l-0.2,2.1l-0.9,4.9l-0.5,0.9l-0.9,0.8l-0.9,0.3l-1.7-0.1l-1.6-0.1l-1.7,0.1l-1.3,0.4l-0.9,0.8l-0.5,1l-0.1,1.3
	l-0.1,1l-0.3,1.1l-0.7,0.7l-1.3,0.9l-0.6,0.9l-0.9,0.8l-1,0.4l-0.9,0.6l-0.3,0.9l0,1.6l-0.2,2.9l0,1.6l0,0.7l0.4,1.1l0.4,1.4l0,1
	l-0.2,0.8l-0.5,1.1v1l0.5,1l0.8,1.2l0.9,1.4l0.6,1.8l0,1.6l-0.5,1.5l-0.4,1.7v1l-0.6,0.7l-0.8,2.1l-0.6,1l-1.3,1.5l-3.1,4.2
	l-0.4,0.9l-0.2,1.7l-0.3,4.7l0.1,2.4l0,1.4l0.1,0.5l0.5,0.9l0.9,1.2l0.3,0.5l0.3,0.7l0.1,0.5l0,0.4l0,0.4l-0.4,0.8l-0.2,0.5v0.4
	l-0.1,0.6l-0.2,0.5l-0.4,0.5l-0.6,0.6l-0.4,0.4l-1.2,0.7l-1.2,0.7l-1.1,0.4L399,328l-1.4,0.3l-0.6,0.3l-0.7,0.4l-0.2,0.2
	L390.3,335.4"/>
<path vector-effect="none" class="st4" d="M478.8,356l0.6,0.2l0.4,0.6l4.1,0.7l1-2.8l1-0.1l1.5-3.1l0.8-1.1l3.2,1.8l-2.2,4.4
	l2.8,3.7l1.6-0.2l-0.2,0.9l-0.8,0.7l0,0.7l-0.3,0.4l-0.7,0.1l-0.3,0.1l-0.1,0.3l3.2-0.1l1.6-0.2l1.7-0.1l35.4,7.3l6.3-17.8
	l10.1-26.7l13.8-38.2l12.9-34.6l7.7-21.2l0.3-0.9l0,0l9.6,5.5l17,12l24.5,15.7l11.4,6.6l7.9,4.9l13.3,9.1l11.7,9.2l46.2,41.8l16.9,0
	l0.2,0l0.3,0.1l0.2,0.1l0.3,0.2l0.1,0.1l-1.3,29.4L741,377l-0.2,0.7l-0.2,0.7l-0.1,0.5l-0.1,0.4l0,0.5l0,0.5l0,0.5l-0.1,0.4
	l-0.2,0.3l-0.4,0.5l-0.5,0.4l-0.2,0.2l-0.3,0.5l-0.2,0.3l-0.3,0.3l-0.4,0.1l-0.4,0l-0.4-0.2l-4.8,4.8l-1.1,1.9L711.8,515l-2.3,33.2
	l-0.1,2l-0.1,2.3l-0.7-1l-0.9-0.9l-1.2-1.1l-0.9-1.2l-0.7-1.3l-1-1.2l-0.2-0.3l-1.2-1.3l-1.3-1.8l-1.9-2.7l-1.2-1.3l-1.3-1.2
	l-0.9-1.2l-1.1-0.9l-1.5-0.9l-1.3-0.4l-1.9-0.6l-1.3-0.4l-1.4-1.1l-0.9-0.9l-1.9-1.4l-1.4-1.3l-1.3-1.2l-2.1-1.3l-1.5-1.6l-3.8-3.4
	l-2.6-1.7l-1.5-1.5l-0.9-0.7l-1.4-1.3l-1.8-1.3l-1.6-1.5l-1.3-0.9l-1.9-1.1l-1.8-0.8l-2.2-1.1l-1.5-1.2l-1.3-0.9l-2-1.2l-1.8-1.1
	l-1.9-1.2l-2.1-1.6l-2-1.1l-2.2-0.8l-1.9-0.6l-2.3-0.9l-6.3-2.7l-1.3-1.1l-2.1-1.4l-1.4-1.3l-1.1-1.1l-1.3-1.5l-0.5-1.1L624,487
	l-0.6-1.1l-1.4-1.4l-2-1.3l-2.3-2.1l-2.8-2.9l-2.8-2.9l-2.8-2.9l-3.5-3.6l-3.5-3.6l-3.5-3.9L594,457l-2-1.4l-2.6-2.1l-1.4-1.2
	l-1.8-1.4L585,450l-1.5-0.7l-1.3-0.4l-1.5-0.5l-1.6-1.3l-1.2-1.1l-1.1-1.1l-1.1-0.8l-1.1-0.7l-0.8-1.1l-1.2-0.6l-1.3-0.1l-1.6,0.1
	h-1.4l-1.2-0.5l-0.8-0.8l-0.8-0.7l-2.1-2.1l-0.8-0.6l-1.3-0.5l-0.8-0.2l-1.1-0.7l-0.6-0.7l-0.5-0.7l-1.1-0.9l-1.3-0.7l-4.5-1.2
	l-2.5-0.5l-1.9-0.1l-2.2,0.1l-1.3,0.1l-1.8,0.6l-2.5,0.1l-1.4-0.1l-2-0.8l-0.8-0.8l-0.9-0.8l-1.7-1.2l-2.1-0.9l-1.8-0.8l-1.5-1.3
	l-2.7-1.6l-1.1-1.2l-1.4-1.4l-1.8-0.8l-4.9-2.5l-3.2-1.9l-3.2-1.9l-4.9-3.1l-1.9-1.2l-1.4-0.6l-2-0.9l-1.9-1.5l-0.9-0.9l-1.2-0.9
	l-2.6-1.8l-1.3-1.1l-2.2-1.6l-1.3-1.1l-1.3-1.2l-1.5-1.1l-1.6-0.7l-1.8-0.7l-1.9-0.8l-2.2-0.8l-2-0.5l-5.4-2.3l-0.9-0.4l-1.6-0.7
	l-1.1-0.2l-1.5-0.1l-1.8-0.2l-1.8-0.6l-2.2-1.1l-2.3-1.1l-1.9-0.5l-1-0.7l5.3-19l0.5-1.8l7.3-14.6L478.8,356"/>
<path vector-effect="none" class="st5" d="M396.1,329.1l0.2-0.2l0.7-0.4l0.6-0.3l1.4-0.3l1.5-0.4l1.1-0.4l1.2-0.7l1.2-0.7l0.4-0.4
	l0.6-0.6l0.4-0.5l0.2-0.5l0.1-0.6v-0.4l0.2-0.5l0.4-0.8l0-0.4l0-0.4l-0.1-0.5l-0.3-0.7l-0.3-0.5l-0.9-1.2l-0.5-0.9l-0.1-0.5l0-1.4
	l-0.1-2.4l0.3-4.7l0.2-1.7l0.4-0.9l3.1-4.2l1.3-1.5l0.6-1l0.8-2.1l0.6-0.7v-1l0.4-1.7l0.5-1.5l0-1.6l-0.6-1.8l-0.9-1.4l-0.8-1.2
	l-0.5-1v-1l0.5-1.1l0.2-0.8l0-1l-0.4-1.4l-0.4-1.1l0-0.7l0-1.6l0.2-2.9l0-1.6l0.3-0.9l0.9-0.6l1-0.4l0.9-0.8l0.6-0.9l1.3-0.9
	l0.7-0.7l0.3-1.1l0.1-1l0.1-1.3l0.5-1l0.9-0.8l1.3-0.4l1.7-0.1l1.6,0.1l1.7,0.1l0.9-0.3l0.9-0.8l0.5-0.9l0.9-4.9l0.2-2.1l1-2.7
	l0.3-3.4l1.4-4.8l0.3-3.4l0.7-3.1l1.2-1.7l0.8-1.1l2.4-1l2.1-1l1.7-2.1l0.3-2.4l0.3-4.1l1.7-4.1l0.3-4.5l-0.3-4.5l-3.1-7.9
	l-6.9-16.1l-5.5-17l-1.6-5.1l-1.6-5.1l14.1,6.4l12.7,8.5l11.1,5.4l3.7,1.8l10.1,4.8l17.1,11.2l22.2,7.2l21.8,7.7l12.5,5.9l18,5.5
	l1.2,0.7l15.2,8.7l1.8,1l0,0l-0.3,0.9l-7.7,21.2l-12.9,34.6l-13.8,38.2l-10.1,26.7l-6.3,17.8l0,0l-35.4-7.3l-1.7,0.1l-1.6,0.2
	l-3.2,0.1l0.1-0.3l0.3-0.1l0.7-0.1l0.3-0.4l0-0.7l0.8-0.7l0.2-0.9l-1.6,0.2l-2.8-3.7l2.2-4.4l-3.2-1.8l-0.8,1.1l-1.5,3.1l-1,0.1
	l-1,2.8l-4.1-0.7l-0.4-0.6l-0.6-0.2l-12.3-6.1l-7.3,14.6l-0.5,1.8l-5.3,19l-3-2.3l-3.8-2.3l-1.8-1.4l-1.3-0.9l-1.1-1l-3.1-1.8
	l-1.7-1.4l-3-2.4l-0.7-0.8l-1.7,0.6l-2,0.3l-1.3-1l0.9-1.3l-1.7-0.7l0.1-1.5l-1.5-2.1l-1.3-0.8l-1.3-0.6l-0.9-0.5l-1-0.7l-0.2-0.4
	l-0.7-0.5l-2.7-1l-2.2-1.6l-2.9-1.9l-2-0.4l-2.4-1.8l-1.2-0.9l-1.4-0.6l-1.9-1.4l-1.7-1.6l-1.3-1.3l-0.6-1.4l-1.6-0.7l0.2-1.8
	l-0.2-0.8l0-0.5l0-0.4l0.1-0.3l-1.5-0.1l-0.6,0l-0.3-0.5l-0.3-0.5l-0.4-0.6l-0.3-0.5l-0.8-0.4l-0.6-0.6l-0.7-0.4l-1.1-1l-0.4-0.8
	l-0.6-1.1l-0.6-0.5l-1.1-1.3L396.1,329.1"/>
</svg>
