<?xml version="1.0" encoding="utf-8"?>
<!-- Generator: Adobe Illustrator 25.0.1, SVG Export Plug-In . SVG Version: 6.00 Build 0)  -->
<svg version="1.1"
	 id="Layer_1" xmlns:cc="http://creativecommons.org/ns#" xmlns:inkscape="http://www.inkscape.org/namespaces/inkscape"
	 xmlns="http://www.w3.org/2000/svg" xmlns:xlink="http://www.w3.org/1999/xlink" x="0px" y="0px" viewBox="0 0 841.7 595.2"
	 style="enable-background:new 0 0 841.7 595.2;" xml:space="preserve">
<style type="text/css">
	.st0{fill-rule:evenodd;clip-rule:evenodd;fill:url(#SVGID_1_);}
</style>
<linearGradient id="SVGID_1_" gradientUnits="userSpaceOnUse" x1="-45.8002" y1="602.8181" x2="-45.4002" y2="602.0181" gradientTransform="matrix(464.5159 0 0 -514.1096 21509.2852 309749.8438)">
	<stop  offset="0" style="stop-color:#102431"/>
	<stop  offset="1" style="stop-color:#316E97"/>
</linearGradient>
<path vector-effect="none" class="st0" d="M229.3,240.4l1,0.3l0.6,1l6.6,1.2l1.6-4.5l1.7-0.2l2.4-4.9l1.4-1.7l5.1,2.9l-3.6,7l4.5,6
	l2.6-0.3l-0.3,1.5l-1.3,1.2l0,1.2l-0.4,0.6l-1.1,0.1l-0.6,0.2l-0.2,0.5l5.1-0.1l2.6-0.4l2.7-0.1l56.6,11.6l10-28.5l16.1-42.7
	l22-61.1L385,75.8l12.3-33.9l0.5-1.4l0,0l15.3,8.7l27.1,19.2l39.2,25l18.3,10.6l12.6,7.8l21.3,14.6l18.7,14.7l73.9,66.9l27.1,0
	l0.3,0l0.4,0.1l0.3,0.1l0.4,0.3l0.2,0.2l-2.1,47l-2.2,18.1l-0.3,1.1l-0.3,1.1l-0.2,0.8l-0.1,0.6l0,0.8l0.1,0.9l0.1,0.8l-0.1,0.7
	l-0.3,0.4l-0.6,0.7l-0.9,0.6l-0.3,0.3l-0.4,0.8l-0.4,0.5l-0.5,0.5l-0.6,0.1l-0.6,0l-0.6-0.3l-7.6,7.7l-1.7,3l-31.3,199.6l-3.7,53.1
	l-0.1,3.2l-0.1,3.7L597,553l-1.5-1.5l-1.9-1.7l-1.5-1.9l-1.1-2.1l-1.5-1.8l-0.3-0.4l-1.9-2.1l-2.1-2.8l-3-4.3l-1.9-2.1l-2.1-1.9
	l-1.5-1.9l-1.7-1.5l-2.4-1.5l-2.1-0.6l-3-0.9l-2.1-0.6l-2.3-1.7l-1.5-1.5l-3-2.3l-2.3-2.1l-2.1-1.9l-3.4-2.1l-2.4-2.6l-6-5.4
	l-4.2-2.7l-2.4-2.4l-1.5-1.1l-2.3-2.1l-2.8-2.1l-2.6-2.4l-2.1-1.5l-3-1.7l-2.8-1.3l-3.6-1.7l-2.4-1.9l-2.1-1.5l-3.2-1.9l-2.8-1.7
	l-3-1.9l-3.4-2.6l-3.2-1.7l-3.6-1.3l-3-0.9l-3.8-1.5l-10.1-4.3l-2.1-1.7l-3.4-2.3l-2.3-2.1l-1.7-1.7l-2.1-2.4l-0.8-1.7l-0.8-1.9
	l-0.9-1.7l-2.3-2.3l-3.2-2.1l-3.8-3.4l-4.4-4.6l-4.4-4.6l-4.4-4.6l-5.5-5.8l-5.5-5.8l-5.6-6.2l-7.8-6.9l-3.2-2.3l-4.1-3.4l-2.3-1.9
	l-2.8-2.3l-2.1-1.5l-2.4-1.1l-2.1-0.6l-2.4-0.8l-2.6-2.1l-1.9-1.7l-1.7-1.7l-1.7-1.3l-1.7-1.1l-1.3-1.7l-1.9-0.9l-2.1-0.2l-2.6,0.2
	h-2.3l-1.9-0.8l-1.3-1.3l-1.3-1.1l-3.4-3.4l-1.3-0.9l-2.1-0.8l-1.3-0.4l-1.7-1.1l-0.9-1.1l-0.8-1.1l-1.7-1.5l-2.1-1.1l-7.1-1.9
	l-3.9-0.8l-3-0.2l-3.6,0.2l-2.1,0.2l-2.8,0.9l-3.9,0.2l-2.3-0.2l-3.2-1.3l-1.3-1.3l-1.5-1.2l-2.6-2l-3.4-1.5l-2.8-1.3l-2.4-2.1
	l-4.3-2.6l-1.7-1.9l-2.3-2.3l-2.8-1.3l-7.8-4l-5.2-3.1l-5.2-3.1l-7.9-4.9l-3-1.9l-2.3-0.9l-3.2-1.5l-3-2.4l-1.5-1.5l-1.9-1.4
	l-4.1-2.9l-2.1-1.7l-3.6-2.6l-2.1-1.7l-2.1-1.9l-2.4-1.7l-2.6-1.1l-2.8-1.1l-3-1.3l-3.6-1.3l-3.2-0.8l-8.6-3.8l-1.5-0.6l-2.6-1.1
	l-1.7-0.4l-2.4-0.2l-2.8-0.4l-2.8-0.9l-3.6-1.7l-3.8-1.7l-3.1-0.8l-1.6-1.1l8.5-30.4l0.8-2.8l11.6-23.4L229.3,240.4"/>
</svg>
